<svg width="75" height="71" viewBox="0 0 75 71" fill="none" xmlns="http://www.w3.org/2000/svg">
<g clip-path="url(#clip0_529_770)">
<path fill-rule="evenodd" clip-rule="evenodd" d="M22.7625 54.7294L23.3105 53.8732L32.0401 50.2275L26.4218 54.9768L26.2316 54.9053L39.4762 59.8838L54.1849 65.7091L57.1608 68.831L52.4499 68.2426L38.8725 61.8459L25.2547 57.2579C23.6372 58.7446 23.2822 71.5757 22.6825 70.7391C22.4274 69.8254 21.7898 62.3025 21.862 61.3169L22.2771 55.6527L22.7625 54.7292L22.7625 54.7294ZM7.60434 59.8164L8.07482 60.4883L7.58935 60.8283C7.39323 60.9655 7.22629 61.0569 7.08854 61.1022C6.95158 61.147 6.80549 61.1556 6.65035 61.1255C6.49521 61.0967 6.34291 61.0282 6.19034 60.9209L6.37848 60.5933C6.51756 60.6954 6.64707 60.7472 6.76815 60.7499C6.88949 60.7513 7.01837 60.7073 7.15356 60.6163L6.92604 60.2914L7.60434 59.8165V59.8164ZM6.8188 58.6947L7.28927 59.3666L6.80389 59.7065C6.60609 59.8449 6.43924 59.9363 6.30237 59.9811C6.16533 60.0258 6.01941 60.0331 5.86445 60.003C5.7086 59.9734 5.5563 59.9049 5.40497 59.7992L5.59311 59.4715C5.73219 59.5736 5.86161 59.6255 5.98278 59.6282C6.10412 59.6296 6.23301 59.5856 6.36819 59.4946L6.14058 59.1697L6.8188 58.6948V58.6947ZM6.74349 54.5307L7.17999 54.2787L7.6031 55.0114L7.1666 55.2634C7.48663 55.8681 7.57968 56.3714 7.44743 56.7723C7.31437 57.1735 7.04321 57.4924 6.63279 57.7294C6.20063 57.9789 5.78063 58.0522 5.37313 57.948C4.96474 57.8443 4.58448 57.5138 4.23393 56.9567L3.8636 57.1704L3.44058 56.4377L3.81082 56.2239C3.49282 55.6227 3.39853 55.1213 3.52786 54.7197C3.65639 54.3187 3.92897 53.9979 4.34365 53.7585C4.75576 53.5205 5.16761 53.445 5.58043 53.5324C5.99289 53.6211 6.38078 53.953 6.7434 54.5308L6.74349 54.5307ZM6.11273 54.8949C5.99963 54.6988 5.86933 54.5497 5.72191 54.4473C5.57448 54.3449 5.42688 54.2966 5.2815 54.3023C5.13523 54.3085 4.95304 54.3733 4.73696 54.4981C4.19605 54.8104 4.09697 55.2647 4.44078 55.8602L6.11273 54.895V54.8949ZM6.53575 55.6276L4.8638 56.5929C5.04573 56.908 5.24877 57.0946 5.47141 57.1523C5.69414 57.2103 5.94969 57.1559 6.23735 56.9899C6.78003 56.6765 6.87964 56.2232 6.53575 55.6276ZM4.47999 50.6989L4.30125 49.8886C4.62156 49.8731 4.89715 49.9402 5.12875 50.0918C5.36098 50.242 5.54007 50.4758 5.6678 50.7919C5.86977 51.2918 5.85496 51.7278 5.62176 52.1014C5.43433 52.3976 5.13878 52.6277 4.73678 52.79C4.25548 52.9844 3.82829 53.012 3.45512 52.8725C3.08222 52.734 2.81886 52.4739 2.66505 52.0931C2.49217 51.6653 2.49856 51.2704 2.68404 50.9074C2.86969 50.5453 3.25847 50.2506 3.85118 50.023L4.62138 51.9293C4.84677 51.8319 4.99934 51.6993 5.07784 51.531C5.1574 51.3625 5.1614 51.1898 5.09088 51.0151C5.04271 50.896 4.96971 50.8093 4.87161 50.7544C4.77253 50.6998 4.64214 50.6805 4.48017 50.6987L4.47999 50.6989ZM3.68637 50.9689C3.46559 51.0645 3.31959 51.1892 3.24765 51.344C3.17562 51.4989 3.17119 51.6543 3.2339 51.8096C3.30114 51.9759 3.41796 52.0878 3.58383 52.1465C3.74873 52.2056 3.93642 52.1922 4.14558 52.1055L3.68637 50.9688V50.9689ZM4.13307 46.4329L4.78024 48.69L5.57333 48.4626L5.75685 49.1025L4.31207 49.5169L4.21947 49.194C4.02991 49.1022 3.76203 49.0586 3.41574 49.0626C3.06945 49.0665 2.50406 49.1716 1.72189 49.3783L1.03196 46.9727L3.38877 46.2968L3.29697 45.9769L4.74166 45.5626L4.92598 46.2055L4.13299 46.4329H4.13307ZM3.61257 47.0777L1.90878 47.5631L2.18243 48.5173C3.02323 48.3104 3.62854 48.2789 3.99807 48.4217L3.61257 47.0776V47.0777ZM2.60323 43.6099L2.59684 42.7801C2.91333 42.8317 3.16906 42.9545 3.36403 43.1509C3.55979 43.346 3.68646 43.6122 3.74562 43.9478C3.83929 44.4788 3.73409 44.9021 3.42842 45.2193C3.18352 45.4698 2.84654 45.6335 2.41953 45.7088C1.90834 45.7989 1.48487 45.737 1.14878 45.523C0.812955 45.31 0.609206 45.0009 0.537979 44.5965C0.457881 44.1421 0.546228 43.7571 0.803109 43.4405C1.05999 43.125 1.50146 42.9176 2.12858 42.8182L2.48561 44.843C2.72626 44.7945 2.90313 44.6965 3.0149 44.5483C3.12764 44.3999 3.16755 44.232 3.13482 44.0464C3.11247 43.9198 3.05916 43.8199 2.97454 43.7458C2.88885 43.6718 2.76538 43.6258 2.60323 43.6098V43.6099ZM1.77085 43.7091C1.53499 43.7567 1.36628 43.8483 1.26365 43.9848C1.16102 44.1213 1.12439 44.2724 1.15357 44.4374C1.18462 44.614 1.27571 44.7478 1.42571 44.8397C1.57473 44.9319 1.76118 44.9577 1.98373 44.9164L1.77094 43.7091H1.77085ZM0.258744 42.1818L0.205346 41.4183L0.664024 41.3862C0.499659 41.2988 0.362703 41.1736 0.253511 41.0113C0.143432 40.8492 0.0810741 40.6647 0.0667044 40.4589C0.0416017 40.0999 0.162769 39.7847 0.429319 39.5154C0.69578 39.2451 1.08341 39.092 1.59123 39.0565C2.11209 39.0202 2.52641 39.118 2.83297 39.3494C3.1397 39.5817 3.30557 39.8778 3.33059 40.2368C3.34256 40.4078 3.31932 40.5652 3.26078 40.7092C3.20117 40.8522 3.09402 41.0066 2.93826 41.1724L4.51183 41.0623L4.56904 41.8805L0.258656 42.1818H0.258744ZM1.71053 41.2662C2.06073 41.2417 2.31592 41.1549 2.47284 41.005C2.6309 40.8562 2.70346 40.6821 2.68945 40.4834C2.67614 40.2935 2.58779 40.1408 2.42538 40.0252C2.26315 39.9097 2.00573 39.8638 1.65554 39.8883C1.32734 39.9112 1.08908 39.9939 0.939622 40.1352C0.790159 40.2765 0.722124 40.4431 0.735518 40.635C0.749444 40.8349 0.838412 40.9955 1.0042 41.1168C1.16909 41.2381 1.40442 41.2875 1.71053 41.2662V41.2662ZM0.997721 37.5916L0.823156 38.3279C0.525117 38.2285 0.309571 38.0735 0.174655 37.8619C0.040626 37.6492 -0.0168529 37.3428 0.00425815 36.9407C0.0234178 36.5744 0.0818725 36.305 0.178646 36.1304C0.27542 35.9569 0.392418 35.8363 0.530971 35.7707C0.669346 35.705 0.917446 35.6811 1.27713 35.7L2.24221 35.7596C2.51648 35.774 2.71996 35.7717 2.85213 35.7516C2.98296 35.7325 3.12631 35.6902 3.27878 35.6263L3.2363 36.4374C3.17997 36.4554 3.09712 36.478 2.98802 36.5032C2.93817 36.5135 2.90544 36.5218 2.88903 36.527C3.01933 36.6745 3.11389 36.8292 3.17491 36.9921C3.23497 37.1548 3.26016 37.3268 3.25067 37.5079C3.2339 37.8265 3.13331 38.0737 2.94988 38.2477C2.76547 38.4226 2.53963 38.5026 2.27246 38.4886C2.09647 38.4795 1.94107 38.4294 1.80686 38.3386C1.67248 38.2476 1.57313 38.1247 1.50776 37.9706C1.4423 37.8164 1.38934 37.5951 1.34898 37.3085C1.29674 36.9227 1.24227 36.6534 1.18781 36.5027L1.10541 36.4983C0.945742 36.49 0.831228 36.523 0.758669 36.597C0.687353 36.671 0.645485 36.8156 0.63422 37.0315C0.626592 37.1778 0.649743 37.2928 0.703763 37.3775C0.756807 37.4621 0.854822 37.533 0.99781 37.5915L0.997721 37.5916ZM1.72632 36.531C1.75595 36.6372 1.78948 36.8058 1.82673 37.0362C1.86407 37.2658 1.90452 37.4166 1.94701 37.4897C2.01886 37.6002 2.11244 37.6591 2.22997 37.6651C2.34661 37.6712 2.44827 37.6336 2.53706 37.5525C2.62603 37.4713 2.67384 37.365 2.68084 37.2327C2.68865 37.0844 2.64678 36.9414 2.55639 36.8021C2.4873 36.6986 2.39921 36.6291 2.29233 36.5926C2.22314 36.5671 2.08902 36.55 1.89113 36.5397L1.72641 36.5311L1.72632 36.531ZM0.21395 34.6484L0.314094 33.8334L2.75651 34.1333L2.89914 32.9719L0.456639 32.672L0.556695 31.8569L2.99911 32.1568L3.03858 31.8353L4.5215 32.0174L4.44078 32.6753L3.62188 32.5747L3.32047 35.03L0.214039 34.6484H0.21395ZM0.800892 30.5398L1.00491 29.7782L2.90366 30.2871L1.33142 28.5595L1.53987 27.7817L4.56301 28.5917L4.359 29.3532L2.42609 28.8354L4.02805 30.5883L3.82404 31.3498L0.800892 30.5398ZM2.82729 24.1799L5.74914 25.3016L5.45704 26.0625L4.2436 25.5968L4.21645 25.6675C4.15294 25.833 4.12802 25.9623 4.14159 26.0561C4.15516 26.1499 4.21344 26.2704 4.31598 26.4188L4.35634 26.4877L4.97991 27.3056L4.6377 28.197L4.00091 27.3237C3.81862 27.0744 3.73329 26.8783 3.74518 26.7377C3.6508 26.9471 3.50151 27.0893 3.29874 27.1653C3.0965 27.2403 2.87723 27.233 2.64244 27.1428C2.45368 27.0704 2.30892 26.9645 2.20957 26.825C2.10916 26.685 2.06303 26.5328 2.07031 26.368C2.07838 26.2036 2.13763 25.9764 2.24869 25.6871L2.82729 24.1797V24.1799ZM3.0329 25.1321L2.8225 25.6802C2.74533 25.8812 2.71987 26.0347 2.74568 26.1386C2.77292 26.2419 2.85301 26.3196 2.98633 26.3708C3.12072 26.4223 3.2339 26.4134 3.3289 26.3432C3.42275 26.2725 3.51101 26.1323 3.59181 25.9221L3.78439 25.4205L3.0329 25.1321ZM5.14241 21.3638L4.65251 21.9407C4.43209 21.7168 4.31048 21.4808 4.28626 21.231C4.26347 20.9807 4.35137 20.6816 4.55272 20.333C4.73607 20.0154 4.91046 19.8018 5.07589 19.6902C5.24087 19.5795 5.40001 19.5252 5.55319 19.5296C5.7062 19.534 5.93816 19.6252 6.25004 19.8054L7.08286 20.2966C7.32076 20.4339 7.50313 20.5242 7.62989 20.5664C7.75513 20.6088 7.90211 20.636 8.06692 20.6483L7.66076 21.3518C7.6023 21.3422 7.51839 21.3249 7.40964 21.2978C7.3605 21.2843 7.32768 21.2769 7.31065 21.274C7.35979 21.4646 7.37389 21.6453 7.3542 21.8181C7.3338 21.9904 7.27827 22.1551 7.18753 22.3123C7.02804 22.5885 6.82625 22.763 6.58382 22.8348C6.34007 22.907 6.10244 22.8757 5.87075 22.742C5.71827 22.6539 5.60242 22.5388 5.52401 22.3968C5.44551 22.2549 5.41287 22.1002 5.42458 21.9332C5.4362 21.7661 5.48959 21.5448 5.58371 21.2712C5.71233 20.9036 5.78613 20.6389 5.80591 20.4801L5.73441 20.4387C5.59586 20.3587 5.47886 20.3361 5.38067 20.3692C5.28345 20.4027 5.18064 20.5125 5.07252 20.6999C4.99916 20.8267 4.96767 20.9397 4.97743 21.0397C4.98621 21.1392 5.04138 21.2469 5.14224 21.3638H5.14241ZM6.2731 20.7495C6.25128 20.8578 6.20462 21.0231 6.13313 21.2454C6.06226 21.4669 6.02988 21.6195 6.03449 21.704C6.04833 21.8351 6.10501 21.9299 6.20693 21.9888C6.30805 22.0472 6.41573 22.0599 6.53176 22.0279C6.64778 21.996 6.7387 21.923 6.80496 21.8082C6.8792 21.6796 6.90679 21.5332 6.88949 21.3679C6.87494 21.2444 6.82802 21.1425 6.74934 21.0614C6.69931 21.0073 6.58764 20.9312 6.41591 20.8321L6.2731 20.7496V20.7495ZM5.96575 18.1285L7.54181 15.8777L10.1056 17.6728L9.63677 18.3423L7.6235 16.9325L6.98218 17.8485L8.13345 18.6547C8.42688 18.8601 8.60863 19.0371 8.68047 19.1872C8.75144 19.3367 8.77689 19.4653 8.75676 19.5729C8.73724 19.6797 8.66469 19.8236 8.53837 20.004C8.46342 20.111 8.34979 20.2417 8.19802 20.3971L7.69872 20.0476C7.70901 20.0328 7.73615 19.9958 7.78166 19.9377C7.83576 19.8709 7.87595 19.8188 7.90282 19.7805C7.96633 19.6898 7.97609 19.6127 7.92926 19.5496C7.88402 19.4862 7.72276 19.3587 7.44743 19.166L5.96575 18.1285ZM8.21195 14.9277L8.7501 14.3086L9.73106 15.1613L10.2719 14.5393C10.4837 14.2957 10.6639 14.1235 10.8134 14.0237C10.9629 13.9237 11.1336 13.8821 11.3265 13.898C11.5201 13.913 11.6947 13.9896 11.8504 14.1249C12.0782 14.323 12.1832 14.5502 12.1632 14.8048C12.1431 15.0595 11.9988 15.3421 11.7293 15.6519L10.574 16.981L8.21195 14.9277ZM10.7166 16.0181L11.2187 15.4405C11.3757 15.26 11.4459 15.1178 11.4305 15.0158C11.4158 14.9132 11.3674 14.8263 11.2861 14.7557C11.1722 14.6566 11.0547 14.6324 10.9355 14.6821C10.8171 14.7323 10.6605 14.8681 10.4662 15.0915L10.1151 15.4954L10.7165 16.0181H10.7166ZM10.8121 12.0747L12.793 10.1619L14.9671 12.4133L14.3771 12.9831L12.6677 11.2129L11.8675 11.9856L13.577 13.7557L12.9863 14.3262L10.812 12.0747H10.8121ZM13.8357 9.2683L14.4815 8.8161L15.609 10.4264L15.515 8.09238L16.1746 7.63051L17.9698 10.1943L17.324 10.6465L16.1763 9.00734L16.2766 11.3799L15.6308 11.8321L13.8357 9.2683ZM17.0926 6.98467L17.8037 6.57407L18.3768 7.56646L19.3927 6.97997L18.8197 5.98757L19.5335 5.57546L21.0984 8.28593L20.3846 8.69813L19.7272 7.55937L18.7113 8.14596L19.3687 9.28462L18.6575 9.69523L17.0926 6.98467ZM20.488 5.05717L21.208 4.73651L22.0077 6.53238L22.3607 4.22328L23.0963 3.8958L24.3694 6.75493L23.6492 7.07559L22.8353 5.24761L22.481 7.59565L21.7609 7.91639L20.488 5.05717ZM25.5418 4.94709L25.3662 4.43723C25.5001 4.39111 25.5948 4.34782 25.6493 4.30995C25.7043 4.27083 25.7469 4.2082 25.7774 4.12216C25.8088 4.03586 25.8093 3.9484 25.7793 3.86094C25.7475 3.7686 25.6838 3.69373 25.5897 3.63776C25.4946 3.58214 25.3803 3.57789 25.2466 3.62401C25.1438 3.6594 25.059 3.71298 24.9934 3.78563C24.9278 3.85836 24.8906 3.9892 24.8823 4.17938L24.1757 4.26409C24.1529 3.98042 24.227 3.73675 24.3988 3.53185C24.572 3.32748 24.7973 3.17651 25.0752 3.0808C25.4287 2.9591 25.7301 2.94677 25.9805 3.04355C26.231 3.14032 26.3988 3.3124 26.4839 3.5597C26.5369 3.71378 26.5393 3.85552 26.4903 3.98521C26.4415 4.11587 26.3419 4.25548 26.1921 4.40495C26.4291 4.38933 26.6223 4.42393 26.7722 4.50731C26.9213 4.59113 27.0268 4.72294 27.0891 4.90372C27.1684 5.1339 27.1301 5.36843 26.9734 5.60854C26.8178 5.84839 26.5382 6.03724 26.1376 6.17508C25.4374 6.41618 24.9146 6.28765 24.5683 5.78976L25.2326 5.4142C25.4465 5.66505 25.6861 5.74532 25.949 5.65485C26.094 5.60482 26.1975 5.52561 26.2577 5.41872C26.3188 5.31148 26.3319 5.20592 26.2959 5.10126C26.2563 4.98612 26.179 4.9117 26.0659 4.87719C25.9516 4.84198 25.8208 4.85085 25.6738 4.9015L25.5419 4.94691L25.5418 4.94709ZM27.2049 2.51683L28.1954 2.28807L29.4367 4.23996L29.7025 1.94018L30.6902 1.71213L31.3942 4.7617L30.7144 4.91862L30.2509 2.91111L29.9774 5.08884L29.2946 5.24646L28.1281 3.40119L28.5916 5.4087L27.9089 5.56632L27.2049 2.51683ZM32.5022 2.43026L31.7475 2.37296C31.7992 2.06303 31.9186 1.82593 32.1065 1.65953C32.2955 1.49401 32.5891 1.38925 32.9896 1.34721C33.3544 1.3088 33.6296 1.32441 33.8172 1.39271C34.0038 1.4611 34.1413 1.55796 34.2277 1.68436C34.3141 1.81085 34.3766 2.05221 34.4142 2.41039L34.5065 3.37281C34.5352 3.64592 34.5693 3.84665 34.6098 3.97403C34.6491 4.10034 34.7134 4.23517 34.8002 4.37576L33.9924 4.46065C33.9658 4.40769 33.9306 4.32955 33.8885 4.22586C33.8705 4.17813 33.8572 4.14718 33.8496 4.13174C33.7242 4.28351 33.5862 4.40122 33.435 4.48691C33.2835 4.57153 33.1175 4.62351 32.9372 4.6424C32.6201 4.67575 32.3602 4.61508 32.1596 4.46109C31.9579 4.30631 31.8435 4.09582 31.8155 3.82971C31.7971 3.65461 31.8222 3.49318 31.891 3.34637C31.9597 3.19948 32.0656 3.08213 32.2076 2.99343C32.3496 2.90464 32.56 2.8178 32.8367 2.73309C33.2097 2.62106 33.4673 2.52526 33.6075 2.44782L33.5989 2.36577C33.5821 2.20664 33.5317 2.09878 33.4472 2.03891C33.363 1.97983 33.2136 1.9612 32.9986 1.98382C32.8529 1.99908 32.743 2.04006 32.6677 2.10659C32.5925 2.17223 32.5377 2.28009 32.5024 2.43053L32.5022 2.43026ZM33.6638 2.98394C33.5634 3.02989 33.4022 3.08932 33.1803 3.16223C32.9596 3.23505 32.8168 3.29848 32.7515 3.35196C32.6535 3.44022 32.6101 3.54187 32.6223 3.65887C32.6346 3.77498 32.6876 3.86954 32.7817 3.94467C32.8757 4.0198 32.9882 4.0504 33.12 4.03648C33.2678 4.02095 33.4024 3.95727 33.5259 3.84612C33.6173 3.76168 33.6722 3.66384 33.6915 3.55252C33.7059 3.48023 33.7018 3.34504 33.681 3.14804L33.6639 2.98394H33.6638ZM37.1163 4.31039L37.4177 0L38.2807 0.0603174L38.1622 1.75639L39.8514 1.87454L39.97 0.178469L40.8319 0.238697L40.5305 4.54909L39.6685 4.48886L39.8004 2.60412L38.1111 2.48596L37.9794 4.37071L37.1163 4.31039ZM41.8845 1.57038L42.6608 1.70734L42.3195 3.64326L43.9034 1.92643L44.6964 2.06631L44.1531 5.14845L43.3766 5.01158L43.724 3.04106L42.1173 4.78956L41.3409 4.6526L41.8845 1.57038ZM46.2102 5.68935L46.5557 4.39989C46.4496 4.37966 46.3722 4.3841 46.3214 4.41213C46.2706 4.44016 46.1685 4.5356 46.015 4.70077L45.4035 5.47327L44.5515 5.24495L45.1985 4.52478C45.5242 4.16412 45.8116 3.98494 46.059 3.98556C45.9034 3.87309 45.8167 3.66552 45.7994 3.36403C45.7855 3.13846 45.7551 2.99804 45.7082 2.9418C45.6614 2.88557 45.5331 2.82933 45.3232 2.773L45.465 2.24336C45.6236 2.27547 45.7337 2.29969 45.7953 2.31619C45.9705 2.3632 46.1093 2.44206 46.2127 2.55311C46.316 2.66408 46.3805 2.88965 46.4064 3.22778C46.4267 3.49149 46.4539 3.66242 46.4872 3.73897C46.521 3.81676 46.5882 3.87016 46.6891 3.90147L47.0201 2.66638L47.8066 2.87714L47.4757 4.11223C47.5778 4.13964 47.6626 4.12695 47.7322 4.0748C47.8023 4.02166 47.9095 3.88684 48.0564 3.66996C48.2462 3.39277 48.4113 3.2308 48.5539 3.18361C48.6966 3.13642 48.8633 3.13837 49.0529 3.18919C49.1079 3.20392 49.2114 3.23683 49.3647 3.28836L49.2228 3.818C49.0148 3.7623 48.8756 3.74686 48.806 3.77188C48.7373 3.79716 48.6397 3.90334 48.5149 4.09174C48.3483 4.34392 48.1703 4.4807 47.9794 4.50021C48.194 4.62333 48.3534 4.92226 48.4549 5.39743L48.6552 6.34468L47.8032 6.11645L47.6619 5.14224C47.6365 4.96776 47.6022 4.845 47.5608 4.77244C47.5182 4.70059 47.4449 4.64666 47.3421 4.61082L46.9966 5.90028L46.2101 5.68953L46.2102 5.68935ZM51.0327 6.42992L51.7161 6.90067C51.4924 7.13049 51.2451 7.2694 50.9723 7.3165C50.7002 7.36493 50.4095 7.31606 50.1006 7.17192C49.612 6.94413 49.3255 6.61513 49.2412 6.18289C49.1763 5.83846 49.2354 5.46875 49.4188 5.0758C49.6381 4.60532 49.9318 4.29371 50.2999 4.14123C50.6671 3.98831 51.0371 3.99878 51.4092 4.17228C51.8275 4.36734 52.0921 4.66058 52.2041 5.05247C52.3152 5.444 52.2317 5.92459 51.9535 6.4953L50.0902 5.62646C49.9919 5.85132 49.9707 6.05241 50.028 6.22893C50.0848 6.40642 50.1996 6.53539 50.3704 6.61513C50.4868 6.66942 50.5993 6.68308 50.7086 6.65629C50.8182 6.62853 50.9268 6.55375 51.0328 6.43001L51.0327 6.42992ZM51.4288 5.69112C51.5251 5.4707 51.5469 5.27999 51.4939 5.11758C51.441 4.95534 51.3383 4.83843 51.1865 4.76765C51.0239 4.6919 50.8622 4.68977 50.7009 4.75993C50.5399 4.82912 50.4118 4.96705 50.318 5.17302L51.4289 5.69112H51.4288ZM53.351 5.14162L55.233 6.0595L54.9398 6.66082L53.7959 6.10288L52.7172 8.31458L51.979 7.95454L53.351 5.14144V5.14162ZM54.8127 7.70803C54.9622 7.47767 55.1643 7.29104 55.4166 7.1477C55.6692 7.00587 55.9362 6.94413 56.2161 6.96515C56.4965 6.98538 56.7645 7.0778 57.0193 7.24323C57.4122 7.49843 57.651 7.83701 57.7349 8.25861C57.8189 8.68021 57.7326 9.08726 57.4768 9.48128C57.2192 9.87786 56.8784 10.1243 56.4553 10.2215C56.0314 10.318 55.6277 10.2407 55.2424 9.99043C55.0034 9.83511 54.8119 9.63411 54.666 9.38468C54.5202 9.13516 54.4592 8.86879 54.4828 8.58547C54.5072 8.30251 54.6164 8.01006 54.8125 7.70803H54.8127ZM55.494 8.20326C55.3246 8.46404 55.2563 8.70274 55.2893 8.92095C55.3216 9.13862 55.4279 9.306 55.6076 9.42273C55.7874 9.53946 55.9827 9.56794 56.1938 9.50824C56.4057 9.44917 56.5972 9.28799 56.7686 9.02393C56.9352 8.76749 57.0029 8.5295 56.9707 8.31192C56.9394 8.09486 56.8338 7.92793 56.6541 7.81128C56.4744 7.69455 56.2783 7.66554 56.0662 7.72462C55.8536 7.78307 55.6627 7.94345 55.4939 8.20335L55.494 8.20326ZM58.9975 8.66424L59.6089 9.12496L59.3322 9.4921C59.5061 9.42531 59.6904 9.40419 59.8845 9.42823C60.0791 9.45147 60.2591 9.52554 60.4239 9.64972C60.7113 9.86624 60.8696 10.1645 60.8981 10.5423C60.9272 10.9209 60.7885 11.3138 60.4821 11.7203C60.1679 12.1373 59.8222 12.3858 59.4464 12.4654C59.0699 12.5444 58.7375 12.4754 58.4502 12.2589C58.3134 12.1557 58.2099 12.0348 58.1394 11.8962C58.0706 11.7575 58.0244 11.5754 58.0016 11.3489L57.0523 12.6087L56.3971 12.1151L58.9975 8.66424ZM58.7362 10.3607C58.5249 10.6411 58.423 10.8906 58.4332 11.1073C58.4419 11.3242 58.5255 11.493 58.6849 11.6131C58.8368 11.7276 59.0099 11.7611 59.2037 11.7144C59.3974 11.6675 59.601 11.5034 59.8122 11.223C60.0101 10.9603 60.1041 10.7263 60.0955 10.5208C60.0869 10.3153 60.0058 10.1546 59.8522 10.0389C59.6922 9.91831 59.5126 9.88008 59.3123 9.92558C59.1128 9.97038 58.9209 10.1156 58.7362 10.3607ZM61.0057 12.2906C61.2066 12.1033 61.4477 11.9711 61.7272 11.8931C62.0066 11.8164 62.2805 11.8212 62.547 11.9094C62.8142 11.9968 63.0519 12.1513 63.2592 12.3736C63.5786 12.7162 63.7285 13.1025 63.708 13.5319C63.6873 13.9613 63.5054 14.3354 63.1617 14.6558C62.816 14.9783 62.4257 15.1351 61.9916 15.1269C61.5569 15.1179 61.1839 14.9453 60.8706 14.6092C60.6762 14.4008 60.5391 14.1593 60.4579 13.8821C60.3768 13.6047 60.3819 13.3315 60.4734 13.0623C60.5655 12.7937 60.7423 12.5363 61.0057 12.2907V12.2906ZM61.5469 12.936C61.3196 13.148 61.1957 13.3631 61.1748 13.5828C61.1534 13.8016 61.2161 13.9898 61.3622 14.1466C61.5083 14.3032 61.6911 14.3782 61.9103 14.3714C62.1302 14.3653 62.3549 14.2552 62.5854 14.0406C62.809 13.8319 62.9323 13.6175 62.9536 13.3985C62.9758 13.1803 62.9138 12.9929 62.7676 12.8362C62.6215 12.6794 62.4381 12.6038 62.2183 12.6099C61.9977 12.6151 61.7737 12.7247 61.5471 12.936H61.5469ZM63.9458 18.1674L62.5001 16.3171L61.85 16.825L61.4402 16.3004L62.6246 15.375L62.8313 15.6398C63.0415 15.6539 63.3061 15.5937 63.6257 15.4604C63.9454 15.3271 64.4303 15.0178 65.0781 14.5331L66.6189 16.5051L64.6868 18.0147L64.8917 18.277L63.7073 19.2023L63.2956 18.6753L63.9457 18.1674H63.9458ZM64.1868 17.3746L65.5846 16.2861L64.9735 15.504C64.2714 16.0107 63.7221 16.2666 63.3258 16.2728L64.1867 17.3747L64.1868 17.3746ZM67.9407 20.1942L67.3767 19.5955C67.4987 19.4841 67.5679 19.3654 67.5845 19.2395C67.601 19.1134 67.5677 18.9865 67.4842 18.8577C67.3724 18.6855 67.2239 18.5882 67.0388 18.5635C66.8528 18.5394 66.6197 18.6182 66.3395 18.8001C66.0282 19.0023 65.8417 19.1971 65.7808 19.3841C65.7198 19.571 65.7458 19.7514 65.8593 19.926C65.9445 20.0572 66.0506 20.1393 66.1799 20.1741C66.3093 20.209 66.4764 20.1836 66.6809 20.0995L67.0045 20.8508C66.6458 20.9839 66.3209 21.0024 66.0321 20.907C65.7428 20.8121 65.4902 20.5971 65.2725 20.2619C65.0255 19.8816 64.9493 19.4997 65.0448 19.1168C65.1399 18.733 65.4024 18.402 65.831 18.1238C66.2638 17.8427 66.6751 17.7372 67.0636 17.8069C67.4533 17.8771 67.7732 18.1055 68.0246 18.4925C68.2304 18.8093 68.3245 19.1058 68.3085 19.3824C68.2921 19.6581 68.1694 19.929 67.9407 20.194L67.9407 20.1942ZM69.106 20.4243L69.4902 21.1468L68.3612 21.747C68.4382 21.8597 68.5209 21.9252 68.6087 21.9427C68.6954 21.9599 68.8608 21.9497 69.1026 21.9115C69.4245 21.8589 69.6529 21.8684 69.7877 21.9378C69.9227 22.0072 70.0376 22.1311 70.1326 22.3098C70.1616 22.3644 70.2081 22.4626 70.2714 22.6029L69.7887 22.863C69.6871 22.672 69.6043 22.5592 69.5398 22.5257C69.4732 22.4924 69.329 22.4956 69.107 22.5346C68.8072 22.5857 68.5853 22.5478 68.443 22.4215C68.4992 22.6839 68.4023 22.9838 68.1499 23.3211C68.1363 23.3385 68.1236 23.3576 68.1097 23.3786L67.5628 24.1885L67.1487 23.4098L67.7553 22.6243C67.8778 22.4645 67.9476 22.3449 67.9652 22.2667C67.9815 22.1881 67.9621 22.0958 67.9055 21.9892L66.7268 22.616L66.3425 21.8935L69.106 20.4242V20.4243ZM69.0381 23.7577C69.2927 23.6548 69.5653 23.6177 69.8541 23.6452C70.1423 23.6738 70.3965 23.7764 70.6136 23.9542C70.8318 24.1316 70.9983 24.361 71.1122 24.6428C71.2876 25.0771 71.2891 25.4915 71.1159 25.885C70.9429 26.2784 70.6388 26.5625 70.2033 26.7385C69.7649 26.9157 69.3443 26.9221 68.942 26.759C68.5394 26.595 68.2531 26.3 68.0811 25.874C67.9743 25.6097 67.9328 25.3352 67.9564 25.0472C67.98 24.7592 68.0827 24.506 68.2647 24.2874C68.4469 24.0698 68.7041 23.8927 69.0381 23.7577ZM69.3122 24.5542C69.0239 24.6707 68.8311 24.8271 68.7329 25.0247C68.6345 25.2215 68.6256 25.4196 68.7059 25.6183C68.7861 25.817 68.9299 25.9524 69.137 26.0245C69.3444 26.0976 69.5937 26.0754 69.8857 25.9574C70.1693 25.8429 70.3612 25.6868 70.4597 25.4901C70.5586 25.2943 70.5678 25.0971 70.4875 24.8984C70.4073 24.6997 70.2632 24.5634 70.0557 24.4903C69.8479 24.4162 69.5996 24.4381 69.3123 24.5542L69.3122 24.5542ZM71.889 27.0553L72.1195 27.8092L70.2395 28.384L72.4884 29.0158L72.7238 29.7859L69.7308 30.701L69.5004 29.9472L71.4139 29.3621L69.1265 28.7242L68.896 27.9704L71.889 27.0553ZM73.6787 28.5633L73.7955 28.9455C73.5339 29.0016 73.3057 28.9744 73.113 28.8635C72.9189 28.7518 72.7853 28.5727 72.7095 28.325C72.6338 28.0771 72.6444 27.854 72.7432 27.654C72.8409 27.4542 73.0148 27.3041 73.2628 27.2032L73.3799 27.5864C73.25 27.6397 73.1642 27.717 73.1195 27.8182C73.0756 27.9192 73.0766 28.046 73.1232 28.1985C73.1698 28.351 73.2399 28.4567 73.3328 28.5159C73.4265 28.5748 73.5408 28.5909 73.6786 28.5633H73.6787ZM71.7338 32.7516C72.0064 32.7181 72.2793 32.7529 72.5512 32.854C72.8223 32.9563 73.0411 33.1212 73.205 33.3491C73.3697 33.5768 73.4712 33.8416 73.5082 34.1433C73.5653 34.6082 73.4594 35.0088 73.1904 35.3441C72.9214 35.6793 72.5542 35.875 72.0878 35.9323C71.6185 35.9899 71.2106 35.8874 70.8643 35.6257C70.5179 35.3629 70.3177 35.0039 70.2616 34.548C70.2269 34.2651 70.258 33.9892 70.3553 33.7171C70.4526 33.4451 70.6174 33.2271 70.8496 33.0631C71.0819 32.8999 71.3763 32.7956 71.7337 32.7517L71.7338 32.7516ZM71.7924 33.5919C71.4838 33.6299 71.257 33.7308 71.1112 33.8965C70.9652 34.061 70.9053 34.2501 70.9313 34.4628C70.9575 34.6754 71.0612 34.8434 71.2427 34.9668C71.4242 35.0911 71.6706 35.1342 71.9832 35.0958C72.2867 35.0585 72.5125 34.9574 72.6585 34.7929C72.8046 34.6294 72.8647 34.4412 72.8385 34.2286C72.8124 34.0159 72.7086 33.8469 72.5272 33.7227C72.3456 33.5973 72.1 33.5542 71.7924 33.592L71.7924 33.5919ZM74.9707 38.8536L74.9998 39.41C74.7489 39.4062 74.5576 39.3513 74.4231 39.2456C74.2886 39.1409 74.2099 38.8686 74.1868 38.4297C74.1841 38.377 74.1823 38.3241 74.1815 38.2723L74.1761 38.1668C74.1624 37.906 74.1222 37.6965 74.0553 37.5354C73.9895 37.3752 73.87 37.2478 73.6979 37.153C73.5257 37.0572 73.2535 37.0176 72.8826 37.033C73.119 37.1414 73.298 37.2887 73.4224 37.4738C73.5461 37.6599 73.6153 37.8848 73.6291 38.1485C73.6503 38.5547 73.5087 38.9073 73.2049 39.2056C72.9002 39.5051 72.5378 39.6648 72.119 39.6867C71.6809 39.7097 71.2973 39.5811 70.9673 39.301C70.6383 39.0218 70.4614 38.6419 70.4363 38.1641C70.4191 37.8356 70.4834 37.5429 70.6289 37.2857C70.7747 37.0287 70.9835 36.8391 71.2531 36.7181C71.5228 36.5962 71.977 36.5194 72.6151 36.4861C73.3644 36.4469 73.9101 36.5549 74.252 36.8105C74.5938 37.067 74.7826 37.5353 74.8182 38.215L74.8399 38.6289C74.8458 38.7434 74.8892 38.819 74.9706 38.8537L74.9707 38.8536ZM72.0079 37.3532C71.7236 37.3681 71.5023 37.4505 71.3439 37.6005C71.1855 37.7496 71.1113 37.9271 71.1219 38.1312C71.1334 38.3511 71.2292 38.5267 71.4084 38.6581C71.5875 38.7904 71.8123 38.8495 72.0825 38.8353C72.3599 38.8207 72.5791 38.7374 72.7414 38.5852C72.9037 38.434 72.9789 38.2534 72.9679 38.0433C72.9572 37.8393 72.8647 37.6696 72.6904 37.534C72.5161 37.3994 72.2892 37.3385 72.008 37.3532H72.0079ZM73.5922 40.8679L73.305 43.6005L70.1924 43.2734L70.2779 42.4607L72.7221 42.7176L72.839 41.6055L71.4413 41.4586C71.0851 41.4212 70.8402 41.3543 70.7047 41.258C70.5701 41.1617 70.4855 41.0614 70.451 40.9577C70.4162 40.8548 70.4099 40.6939 70.433 40.4748C70.4466 40.3449 70.4827 40.1754 70.5401 39.966L71.1463 40.0297C71.1444 40.0476 71.1388 40.0931 71.1271 40.166C71.1121 40.2505 71.1022 40.3156 71.0973 40.3623C71.0858 40.4723 71.1146 40.5444 71.186 40.577C71.2563 40.6106 71.4592 40.6438 71.7934 40.679L73.5924 40.8681L73.5922 40.8679ZM72.079 45.234L72.3908 44.5445C72.6645 44.6989 72.8463 44.8922 72.9385 45.1258C73.0295 45.36 73.0274 45.6718 72.93 46.0625C72.8412 46.4183 72.7324 46.6716 72.6042 46.8246C72.4761 46.9765 72.3381 47.0726 72.1897 47.1105C72.0413 47.1484 71.7932 47.1246 71.4438 47.0375L70.5078 46.7949C70.2413 46.7285 70.041 46.6919 69.9075 46.6864C69.7754 46.68 69.6267 46.6945 69.4648 46.7279L69.6614 45.9398C69.7201 45.9329 69.8056 45.9265 69.9175 45.9226C69.9686 45.9219 70.0022 45.9201 70.0192 45.9181C69.9195 45.7484 69.8562 45.5784 69.8273 45.4069C69.7995 45.2358 69.8076 45.0621 69.8515 44.8861C69.9287 44.5766 70.0746 44.3532 70.2878 44.2173C70.5023 44.0807 70.7392 44.0453 70.9989 44.1099C71.1698 44.1526 71.3128 44.2315 71.4273 44.3463C71.5418 44.4611 71.6158 44.6007 71.6506 44.7646C71.6854 44.9284 71.6951 45.1557 71.6801 45.4446C71.6578 45.8335 71.6599 46.1082 71.6847 46.2666L71.7648 46.2865C71.92 46.3252 72.0387 46.3146 72.1239 46.2558C72.2081 46.1968 72.2767 46.0628 72.329 45.8529C72.3645 45.7108 72.3637 45.5935 72.3268 45.5001C72.2909 45.4069 72.2083 45.3185 72.079 45.2339L72.079 45.234ZM71.1614 46.1362C71.1525 46.0261 71.1518 45.8543 71.1592 45.621C71.1664 45.3886 71.1555 45.2328 71.1277 45.1529C71.0782 45.0307 70.9976 44.9551 70.8834 44.9266C70.7702 44.8984 70.6632 44.9159 70.5605 44.9786C70.4577 45.0413 70.3905 45.1365 70.3584 45.2651C70.3225 45.4092 70.3363 45.5575 70.3985 45.7116C70.4465 45.8263 70.5197 45.9114 70.6178 45.9675C70.6807 46.0059 70.8092 46.0483 71.0014 46.0962L71.1615 46.1361L71.1614 46.1362ZM70.5485 50.617L70.6588 49.8021C70.8221 49.8268 70.958 49.806 71.0663 49.7395C71.1747 49.6731 71.2523 49.5673 71.2998 49.4214C71.3633 49.2261 71.3456 49.0496 71.2482 48.89C71.1499 48.7303 70.9419 48.5987 70.6242 48.4956C70.2713 48.3809 70.0024 48.3584 69.8187 48.4288C69.6351 48.499 69.5113 48.6328 69.447 48.8309C69.3986 48.9797 69.4017 49.1138 69.4559 49.2362C69.5103 49.3586 69.6352 49.4726 69.8292 49.5786L69.449 50.3028C69.1199 50.1078 68.9009 49.867 68.7933 49.5826C68.685 49.2979 68.6932 48.9663 68.8167 48.5862C68.9567 48.155 69.2055 47.8553 69.5633 47.6887C69.9213 47.521 70.3437 47.5167 70.8298 47.6747C71.3206 47.8341 71.6614 48.0875 71.8516 48.4333C72.0424 48.7803 72.0662 49.1726 71.9236 49.6114C71.8069 49.9707 71.6357 50.2305 71.4108 50.3921C71.1862 50.5528 70.8983 50.628 70.5486 50.617H70.5485ZM71.3111 51.5338L70.1253 54.0764L69.519 53.7936L69.9385 52.894L67.7083 51.8541L68.0549 51.1108L70.2851 52.1507L70.7046 51.2511L71.311 51.5339L71.3111 51.5338ZM69.8742 54.6412L69.504 55.3372L67.7684 54.4143L68.9117 56.4512L68.5336 57.1624L65.7702 55.6929L66.1404 54.9969L67.9071 55.9363L66.7407 53.8679L67.1108 53.1718L69.8743 54.6412H69.8742ZM68.139 59.9394L67.6803 60.6194L67.1866 60.2864C66.9881 60.1525 66.843 60.0294 66.7529 59.9182C66.6621 59.8064 66.6021 59.6723 66.5739 59.5161C66.5462 59.3593 66.5541 59.1913 66.5987 59.0134L66.975 59.0725C66.928 59.2392 66.9262 59.3787 66.9684 59.4925C67.0101 59.6071 67.0984 59.71 67.2325 59.8028L67.4525 59.4764L68.139 59.9394ZM68.9097 58.7967L68.451 59.4768L67.9573 59.1437C67.7588 59.0098 67.6132 58.8875 67.5224 58.7772C67.4311 58.6662 67.3712 58.532 67.343 58.376C67.3147 58.2199 67.323 58.0512 67.3693 57.8708L67.7451 57.9307C67.6977 58.0984 67.6953 58.2386 67.738 58.3515C67.7807 58.4645 67.868 58.569 68.0014 58.6627L68.2233 58.3339L68.9096 58.7968L68.9097 58.7967ZM9.54355 50.6516L12.614 46.2062L21.1169 29.6631L28.9553 17.743L36.9764 8.64251C37.1619 8.45118 37.8439 8.24007 38.0273 8.57944L38.2649 8.87473L42.4745 19.4998L45.5241 29.3448L46.995 27.8046L48.5504 25.8306L49.7913 23.7605L50.6822 21.534C50.6943 21.5077 50.739 21.4874 50.7617 21.5055L50.8023 21.5213L53.3249 23.7563L54.1644 24.8216L55.3934 26.3811L57.041 29.3595L58.3007 32.6554L58.3004 32.6543L59.9609 37.3272C57.9696 35.0734 57.021 30.8212 53.0586 29.0048C51.9273 30.8444 47.8094 31.5676 44.9541 31.6825L33.775 26.0826L23.6909 31.7938L24.0033 30.9595L30.7969 19.0422L34.3913 14.0517L37.3217 10.6846L41.4825 19.8751L45.108 29.9929L45.1864 30.1229C45.225 30.2162 45.3904 30.2568 45.4703 30.195C46.2137 29.6197 46.7889 28.8581 47.3621 28.113L48.8631 26.039L50.042 23.8798L50.7925 21.7493L53.2877 23.7926L54.1646 24.8215L55.4568 26.3377L57.2303 29.2677L58.6346 32.5434L61.4407 39.5145L65.5669 46.1219C65.6355 46.2767 65.4974 46.5195 65.3333 46.592L65.4835 46.8549L53.1199 41.8786L49.8557 45.934L42.7727 55.3964L33.0425 49.1516L29.0031 50.443L28.6119 50.6172L26.7719 51.1564L12.2419 55.8016L11.4217 54.2362C10.7106 53.6617 10.2773 52.818 10.2096 51.9227L9.54381 50.6516H9.54355ZM44.097 57.6444L62.2759 47.3188L51.3188 58.4729L44.097 57.6443V57.6444Z" fill="#617693"/>
</g>
<defs>
<clipPath id="clip0_529_770">
<rect width="75" height="70.7788" fill="white"/>
</clipPath>
</defs>
</svg>
