<svg width="347" height="300" viewBox="0 0 347 300" fill="none" xmlns="http://www.w3.org/2000/svg">
<path d="M346.253 0.800452C346.549 1.58749 346.057 278.869 345.761 279.214C345.466 279.509 325.089 268.49 320.807 265.686C315.836 262.489 310.372 258.013 306.238 253.684C302.103 249.405 301.611 248.568 301.611 245.617C301.611 241.633 299.002 238.288 294.72 236.812C292.112 235.927 283.793 231.008 273.063 224.121C263.269 217.776 260.365 215.759 240.874 201.002C231.965 194.312 224.631 188.852 224.582 188.951C224.188 189.393 223.351 198.002 223.351 201.642C223.351 204.495 223.154 206.118 222.712 206.462C222.416 206.708 220.497 207.052 218.528 207.151C216.214 207.348 214.639 207.692 214.049 208.233C212.425 209.709 211.243 208.922 211.44 206.462C211.686 203.511 209.57 205.675 208.585 209.414C207.749 212.611 206.666 213.447 203.27 213.447C198.741 213.447 186.436 209.512 175.903 204.691C171.228 202.576 170.932 202.527 167.536 202.773C162.712 203.166 160.645 203.855 158.627 205.773C157.692 206.659 154.788 208.823 152.229 210.496C149.669 212.168 147.553 213.791 147.553 214.037C147.553 214.332 149.965 219.202 152.918 224.957C155.871 230.663 158.775 237.009 159.366 239.026C159.956 241.092 163.697 249.06 167.733 256.98C181.908 284.87 184.025 288.363 189.34 292.101C193.819 295.2 194.016 297.364 190.079 299.135C188.159 299.972 187.027 300.119 183.779 299.922C178.758 299.676 175.903 298.25 174.427 295.348C173.59 293.823 172.95 293.282 171.424 292.839C169.456 292.298 168.225 290.871 168.225 289.051C168.225 287.231 166.01 283.985 161.58 279.312C154.001 271.294 146.421 260.521 143.714 253.881C141.302 247.929 131.95 235.484 124.764 228.696C113.099 217.677 112.508 216.989 109.161 209.02C108.029 206.364 106.848 204.052 106.454 203.953C106.11 203.806 103.353 204.74 100.302 206.069C92.2296 209.61 91.7866 209.709 90.0147 208.774C86.9631 207.2 86.1263 203.166 88.2428 200.067C88.9318 199.084 89.4733 198.002 89.4733 197.706C89.4733 197.411 88.735 196.427 87.7998 195.493C84.7482 192.492 84.4036 186.983 86.5693 177.539C87.6521 172.816 90.0147 165.438 91.7866 161.159C93.3616 157.371 93.8046 153.485 94.6414 135.728C95.4781 118.314 95.8719 115.265 98.136 109.854C99.0219 107.689 100.006 104.345 100.302 102.475C100.597 100.409 101.483 97.8023 102.517 95.7364C104.485 91.8504 104.485 91.9488 103.452 91.9488C102.27 91.9488 99.0711 89.2433 90.9499 81.373C83.5669 74.2405 81.7457 73.0108 75.2979 70.748C68.4564 68.3869 63.2883 64.1075 56.9881 55.7944C54.3303 52.2528 49.5559 46.5468 46.3566 43.0543C41.0901 37.2991 38.0877 34.5937 28.6375 26.8709C27.0624 25.5428 20.024 19.099 13.0348 12.606L0.33605 0.702073L66.6845 0.406936C103.156 0.259367 180.924 0.0626085 239.495 0.0134189C338.083 -0.0357707 345.958 0.0134189 346.253 0.800452ZM109.998 95.638C109.801 96.0315 109.9 97.6056 110.146 99.1796C110.835 103.164 110.835 103.066 108.767 104.099C106.602 105.181 105.421 107.296 104.141 112.608C102.32 120.282 102.467 129.972 104.584 136.465C106.011 141.04 106.749 140.991 109.161 136.17C110.835 132.924 112.951 130.956 115.363 130.513C120.433 129.579 127.323 132.038 129.046 135.432C129.981 137.302 129.981 137.4 129.095 140.892C128.554 143.155 128.357 145.123 128.554 146.254C128.849 147.779 128.652 148.32 127.422 149.894C126.044 151.665 124.469 155.649 125.01 156.141C125.158 156.289 126.29 155.944 127.569 155.354C130.523 154.075 131.605 154.321 136.281 157.322C142.089 161.06 145.928 164.503 147.159 167.11C148.242 169.324 149.62 170.259 150.555 169.324C151.047 168.832 152.13 159.24 153.016 147.877L153.607 140.105L141.597 127.956C128.751 114.97 124.567 110.395 123.238 107.788C122.155 105.722 118.218 101.344 114.182 97.7039C110.736 94.7034 110.392 94.5066 109.998 95.638ZM160.153 148.861C159.021 151.124 158.873 152.796 158.43 165.536C158.135 175.522 157.889 178.08 157.2 179.359C155.723 182.261 153.656 182.064 146.027 178.227C143.714 177.096 141.105 175.571 140.317 174.882C138.496 173.358 136.724 173.259 135.494 174.587C134.756 175.424 134.657 176.112 134.903 179.654C135.494 186.786 137.413 191.312 140.416 192.591C142.434 193.427 143.812 192.984 146.618 190.771C148.931 188.951 163.352 181.917 167.831 180.441C171.031 179.408 171.277 179.408 173.295 180.195C174.476 180.638 177.38 182.261 179.792 183.737C182.204 185.261 186.486 187.524 189.34 188.705C192.195 189.934 196.182 191.656 198.2 192.591C202.138 194.411 210.013 196.083 212.178 195.591C214.935 194.853 219.414 189.787 219.414 187.327C219.414 185.163 216.953 182.851 210.21 178.67C206.863 176.555 202.039 173.21 199.578 171.193C193.77 166.52 188.061 162.831 175.657 155.698C170.095 152.501 164.78 149.353 163.845 148.714C161.58 147.189 161.039 147.238 160.153 148.861Z" fill="#E8E8E8"/>
</svg>
