<svg width="185" height="300" viewBox="0 0 185 300" fill="none" xmlns="http://www.w3.org/2000/svg">
<path fill-rule="evenodd" clip-rule="evenodd" d="M184.687 0L135.232 0.0445598C77.649 0.0916927 28.5117 0.233092 26.0385 0.37449C23.5653 0.515889 21.4188 0.798687 21.2321 0.940086C21.0921 1.12862 21.7454 2.35407 22.7721 3.72093C23.7987 5.04065 24.8719 7.06737 25.1986 8.1043C25.5719 9.18835 26.2719 10.6966 26.8318 11.4979C28.3251 13.5717 36.8646 29.6912 38.9178 34.2631C39.8511 36.3841 42.2776 43.1712 44.2842 49.3456C48.7173 62.9671 51.3771 69.5185 53.4303 71.9223C54.8769 73.6191 56.6502 76.1643 63.3698 86.1093C64.723 88.0889 65.8896 90.1628 65.983 90.6812C66.9162 95.4417 67.3829 97.0913 68.5962 99.6365C69.3428 101.286 70.8827 103.549 71.956 104.727C73.0759 105.905 74.4292 107.508 74.9891 108.262C75.5491 109.016 76.9957 110.006 78.2556 110.477C81.1488 111.561 82.502 112.881 85.9552 117.924L88.755 122.119L84.4153 126.644C78.2556 133.054 71.5826 139.275 68.7828 141.114C65.4697 143.376 62.0165 144.601 57.7701 145.167C53.197 145.733 52.4037 145.403 49.3239 141.585C45.7308 137.107 45.4974 136.447 46.1507 133.054C46.8974 129.33 46.2441 127.916 42.8376 125.795C41.4843 124.947 40.2244 124.004 39.9911 123.627C39.7111 123.156 39.3378 123.203 38.1245 123.863C37.3312 124.334 35.4647 124.9 34.0648 125.041C29.5383 125.56 24.5453 126.879 23.472 127.822C22.0721 129.047 21.2321 131.31 21.8388 132.064C22.1654 132.441 22.1654 133.384 21.9321 134.751C21.1388 138.851 21.3255 140.077 23.0054 141.396C23.9853 142.198 25.0586 143.847 25.8519 145.78L27.1585 148.89L25.4786 151.2C23.5653 153.792 21.3721 158.411 20.5322 161.616C19.6922 164.727 18.2456 167.367 13.9992 173.4C8.86617 180.705 2.3332 193.902 0.979945 199.7C0.419976 202.009 0 204.319 0 204.837C0 206.251 1.8199 208.278 3.91978 209.268C5.69301 210.069 5.87967 210.069 6.43964 209.362C7.18626 208.325 7.1396 205.968 6.29965 204.507C5.92633 203.847 5.64635 202.622 5.59969 201.774C5.59969 200.407 5.73968 200.218 6.67296 200.36C7.41958 200.454 7.74623 200.878 7.83956 201.915C8.07288 204.413 8.3062 204.79 9.19282 203.895C10.1261 202.999 10.2194 198.05 9.37947 195.882C8.67951 194.138 9.14615 193.337 12.3193 190.886C14.9792 188.765 16.4257 186.785 19.3656 181.035C20.3455 179.103 22.5854 175.945 24.3586 173.965C26.1319 172.033 27.9984 169.582 28.5117 168.592C29.025 167.555 29.7717 166.612 30.145 166.471C30.5183 166.33 33.2248 167.791 36.5379 169.912C39.6644 171.938 45.0775 175.379 48.5306 177.547C51.9837 179.763 55.3436 181.978 55.9502 182.543C57.7701 184.193 59.73 187.115 59.73 188.246C59.73 188.859 60.6633 190.367 61.8765 191.734C63.3231 193.337 64.0697 194.609 64.1164 195.552C64.1631 196.306 64.443 197.202 64.7697 197.532C65.563 198.333 65.4697 198.71 64.3497 198.993C63.5564 199.228 63.5098 199.37 63.9764 200.171C64.443 200.925 64.443 201.397 64.0231 202.339C63.2764 203.989 62.6698 203.895 62.3898 202.056C62.2498 201.208 61.5965 198.993 60.8966 197.107L59.6367 193.761L57.1168 194.657C53.5703 195.835 51.0505 197.343 50.3972 198.663C49.6972 199.935 50.5372 203.895 52.777 209.739C54.0836 213.18 54.317 213.463 55.9035 213.934C56.8368 214.17 58.7967 214.405 60.2433 214.405H62.8565L63.1831 219.448C63.3231 222.229 63.6964 224.727 63.9297 224.963C64.2097 225.246 64.3964 227.084 64.3964 229.111C64.3964 231.467 64.583 232.787 64.9097 232.787C65.1897 232.787 65.9363 233.211 66.5896 233.73C68.0828 234.908 68.3628 234.908 69.5294 233.636C70.696 232.316 70.7427 231.656 69.5294 232.41C69.0628 232.74 68.5028 232.881 68.3628 232.74C67.9429 232.269 67.5229 226.66 67.9429 226.66C68.1762 226.707 68.9695 227.461 69.7161 228.451C70.4627 229.441 70.9294 229.818 70.7427 229.252C70.1827 227.367 69.5294 221.617 69.5294 218.506C69.5294 216.762 69.3428 215.348 69.1095 215.348C68.8761 215.348 68.5962 215.725 68.5028 216.149C68.4095 216.668 68.2228 216.809 68.0362 216.479C67.8495 216.196 68.0362 215.395 68.4095 214.688C68.8295 213.793 69.0628 211.907 69.0628 209.174C69.0628 204.649 69.4828 203.847 71.0693 205.356C72.4226 206.581 76.1557 208.467 79.8422 209.692C81.4754 210.258 83.1087 210.917 83.4353 211.2C83.762 211.483 84.6952 211.577 85.5819 211.436C86.6551 211.247 87.7284 211.483 88.8484 212.096C89.9683 212.708 91.4615 212.991 93.4214 212.991C95.0547 213.038 97.6212 213.321 99.1611 213.698C100.701 214.075 104.574 214.735 107.794 215.112C118.527 216.479 120.207 217.563 122.68 225.057C123.52 227.603 124.733 230.525 125.34 231.515C125.946 232.457 129.259 236.181 132.666 239.763C142.512 250.038 146.058 254.044 146.058 254.751C146.058 256.071 153.618 260.124 156.138 260.124C157.165 260.124 158.098 258.805 158.891 256.259C160.291 251.735 161.551 248.812 162.111 248.812C162.624 248.859 170.417 264.413 171.07 266.723C171.257 267.383 172.564 270.446 174.01 273.557C175.457 276.668 177.79 282.701 179.143 286.99C182.17 296.428 182.558 297.41 184.687 300V0ZM102.661 134.562C102.241 133.431 101.308 132.253 100.374 131.593C98.5078 130.32 96.4546 130.226 94.4947 131.31C90.7149 133.337 83.8553 139.37 78.9556 144.837C75.2691 149.032 72.9359 151.247 71.116 152.284C69.6694 153.085 68.4095 154.028 68.2695 154.452C67.5695 156.149 72.8426 168.074 74.8491 169.393C76.2024 170.242 80.0755 170.807 80.4488 170.147C80.6355 169.912 80.3088 169.44 79.7022 169.11L78.6756 168.545L79.9822 167.461C80.6821 166.848 81.8021 166.33 82.502 166.33C83.9953 166.33 85.0686 165.67 89.735 161.852C94.308 158.081 101.028 153.085 102.848 152.095C103.641 151.624 105.507 151.153 107.001 151.011C109.614 150.729 109.661 150.682 109.661 149.173C109.661 146.864 107.607 142.009 105.367 139.087C104.247 137.673 103.034 135.646 102.661 134.562ZM118.387 163.077C117.5 161.899 116.333 159.92 115.774 158.647C115.167 157.422 114.42 156.432 114.094 156.432C113.02 156.432 112.834 159.165 113.394 167.272C114.374 182.261 115.913 194.138 117.22 196.73C118.807 199.841 121.047 200.171 124.08 197.767C126.226 196.023 129.259 192.017 129.259 190.886C129.259 190.462 128.186 187.775 126.88 184.947C123.66 177.877 123.193 176.51 122.68 172.787C122.4 170.43 121.933 169.158 121.093 168.121C120.44 167.367 119.927 166.424 119.927 166C119.927 165.623 119.227 164.303 118.387 163.077ZM106.207 190.273C106.534 189.943 103.734 181.554 102.008 177.5C101.354 176.039 100.701 174.814 100.561 174.814C100.281 174.814 98.4611 177.689 97.3879 179.81L96.6412 181.271L101.261 185.89C103.828 188.482 106.021 190.415 106.207 190.273ZM109.661 199.653C109.614 196.872 105.554 190.933 99.9077 185.513C98.3678 184.052 96.8279 182.826 96.4079 182.826C95.6613 182.826 94.4014 184.429 92.9081 187.445C91.7415 189.755 91.9282 190.367 93.7947 190.367C95.568 190.367 97.4345 191.263 97.7145 192.206C97.8085 192.49 97.9235 193.051 98.0455 193.646C98.1051 193.937 98.1665 194.236 98.2278 194.515C98.6011 196.259 100.328 197.343 106.301 199.511L109.661 200.737V199.653ZM64.3964 207.335C64.6297 207.335 64.9564 206.628 65.0963 205.733C65.6096 203.14 65.143 202.056 64.4897 204.272C63.8364 206.581 63.7898 207.335 64.3964 207.335ZM139.059 213.038C136.772 208.655 134.626 204.602 134.299 204.083C133.413 202.622 132.853 202.622 130.659 204.083C129.539 204.837 128.419 205.45 128.093 205.45C127.766 205.45 127.16 205.874 126.693 206.393C125.946 207.241 125.9 207.382 126.646 208.514C128.466 211.294 146.992 228.121 146.992 226.99C146.992 226.848 146.152 225.482 145.125 223.926C144.099 222.371 141.345 217.469 139.059 213.038ZM66.3096 208.467C66.4963 207.995 66.6829 207.288 66.6829 206.958C66.7296 206.016 65.8896 206.298 65.563 207.335C65.143 208.608 65.843 209.692 66.3096 208.467ZM67.1962 211.672C67.1962 212.52 68.0362 213.274 68.5028 212.803C68.6428 212.614 68.4095 212.143 67.9895 211.719C67.2429 210.965 67.1962 210.965 67.1962 211.672ZM152.918 234.295C151.891 232.834 144.845 226.613 135.699 218.977C130.986 215.112 130.193 214.547 130.193 215.112C130.193 216.055 140.412 234.72 143.259 238.914C145.638 242.449 149.092 245.513 150.678 245.513C154.691 245.466 156.045 238.726 152.918 234.295ZM156.838 240.8C157.165 240.8 157.258 240.328 157.025 239.48C156.605 237.783 155.951 237.123 155.625 238.113C155.251 238.962 156.138 240.8 156.838 240.8Z" fill="#111111" fill-opacity="0.1"/>
</svg>
