<svg width="462" height="518" viewBox="0 0 462 518" fill="none" xmlns="http://www.w3.org/2000/svg">
<path d="M460.939 1.38019C461.333 2.73724 460.677 480.851 460.283 481.445C459.89 481.954 432.737 462.955 427.031 458.12C420.407 452.607 413.127 444.889 407.618 437.425C402.108 430.046 401.453 428.604 401.453 423.515C401.453 416.645 397.977 410.877 392.271 408.333C388.794 406.806 377.71 398.324 363.413 386.45C350.361 375.508 346.491 372.031 320.519 346.586C308.648 335.051 298.876 325.636 298.81 325.806C298.286 326.569 297.171 341.412 297.171 347.688C297.171 352.608 296.908 355.407 296.318 356C295.925 356.425 293.367 357.018 290.743 357.188C287.661 357.527 285.562 358.121 284.775 359.054C282.611 361.598 281.036 360.241 281.299 356C281.627 350.911 278.807 354.643 277.495 361.09C276.38 366.603 274.937 368.045 270.412 368.045C264.378 368.045 247.981 361.259 233.946 352.947C227.715 349.3 227.321 349.215 222.796 349.639C216.369 350.318 213.614 351.505 210.925 354.813C209.679 356.34 205.809 360.072 202.399 362.955C198.988 365.839 196.168 368.638 196.168 369.062C196.168 369.571 199.382 377.968 203.317 387.892C207.252 397.73 211.122 408.672 211.909 412.149C212.696 415.712 217.68 429.452 223.058 443.108C241.947 491.199 244.767 497.221 251.851 503.667C257.819 509.011 258.081 512.742 252.834 515.796C250.277 517.238 248.768 517.492 244.439 517.153C237.75 516.729 233.946 514.269 231.978 509.265C230.863 506.636 230.01 505.703 227.977 504.939C225.354 504.006 223.714 501.547 223.714 498.408C223.714 495.27 220.763 489.672 214.86 481.615C204.76 467.789 194.66 449.214 191.052 437.764C187.839 427.501 175.377 406.043 165.802 394.338C150.258 375.339 149.471 374.151 145.011 360.411C143.502 355.831 141.928 351.844 141.404 351.675C140.945 351.42 137.272 353.032 133.205 355.322C122.449 361.429 121.859 361.598 119.498 359.987C115.432 357.273 114.317 350.318 117.137 344.974C118.055 343.278 118.776 341.412 118.776 340.903C118.776 340.394 117.793 338.698 116.546 337.086C112.48 331.912 112.021 322.413 114.907 306.128C116.35 297.986 119.498 285.263 121.859 277.884C123.958 271.353 124.548 264.652 125.663 234.034C126.778 204.008 127.303 198.75 130.32 189.42C131.5 185.688 132.812 179.92 133.205 176.697C133.599 173.135 134.779 168.639 136.157 165.077C138.78 158.377 138.78 158.546 137.403 158.546C135.829 158.546 131.566 153.881 120.744 140.311C110.906 128.012 108.479 125.892 99.8876 121.99C90.7711 117.919 83.8846 110.54 75.4896 96.2057C71.9479 90.0988 65.5861 80.2601 61.323 74.2381C54.3053 64.3145 50.3045 59.6495 37.712 46.3332C35.6132 44.0432 26.2344 32.9321 16.9212 21.7363L-3.05176e-05 1.21051L88.41 0.701599C137.009 0.447144 240.635 0.10791 318.683 0.0230713C450.052 -0.0617065 460.546 0.0230713 460.939 1.38019ZM146.126 164.908C145.863 165.586 145.995 168.3 146.323 171.014C147.241 177.885 147.241 177.715 144.486 179.496C141.6 181.362 140.026 185.009 138.321 194.169C135.894 207.401 136.091 224.11 138.911 235.306C140.813 243.194 141.797 243.109 145.011 234.797C147.241 229.199 150.061 225.806 153.275 225.043C160.03 223.431 169.212 227.672 171.508 233.525C172.754 236.748 172.754 236.917 171.573 242.939C170.852 246.841 170.589 250.234 170.852 252.184C171.245 254.814 170.983 255.747 169.343 258.461C167.507 261.514 165.408 268.384 166.13 269.233C166.326 269.487 167.835 268.893 169.54 267.876C173.475 265.67 174.918 266.094 181.149 271.268C188.888 277.714 194.004 283.652 195.643 288.147C197.086 291.964 198.923 293.575 200.169 291.964C200.825 291.115 202.268 274.576 203.448 254.983L204.235 241.582L188.232 220.632C171.114 198.241 165.539 190.353 163.768 185.857C162.326 182.295 157.079 174.746 151.701 168.47C147.11 163.296 146.651 162.957 146.126 164.908ZM212.958 256.68C211.45 260.581 211.253 263.465 210.663 285.433C210.269 302.651 209.941 307.061 209.023 309.266C207.055 314.27 204.301 313.931 194.135 307.315C191.052 305.365 187.576 302.735 186.527 301.548C184.1 298.919 181.739 298.749 180.099 301.039C179.116 302.481 178.984 303.668 179.312 309.775C180.099 322.074 182.657 329.877 186.658 332.082C189.347 333.524 191.184 332.761 194.922 328.944C198.004 325.806 217.221 313.677 223.19 311.132C227.453 309.351 227.781 309.351 230.47 310.708C232.044 311.472 235.913 314.27 239.127 316.815C242.341 319.444 248.047 323.346 251.851 325.382C255.655 327.502 260.967 330.471 263.656 332.082C268.903 335.22 279.397 338.104 282.283 337.256C285.955 335.984 291.924 327.247 291.924 323.007C291.924 319.275 288.644 315.288 279.659 308.079C275.199 304.432 268.772 298.664 265.493 295.187C257.753 287.129 250.145 280.768 233.618 268.469C226.206 262.956 219.123 257.528 217.877 256.425C214.86 253.796 214.139 253.881 212.958 256.68Z" fill="#111111" fill-opacity="0.1"/>
</svg>
