<svg width="75" height="75" viewBox="0 0 75 75" fill="none" xmlns="http://www.w3.org/2000/svg">
<path fill-rule="evenodd" clip-rule="evenodd" d="M60.4111 26.8941C60.7453 25.7802 60.4111 25.0005 58.8517 25.0005H53.6537C52.3171 25.0005 51.723 25.7059 51.3889 26.4856C51.3889 26.4856 48.7527 32.9461 45.0027 37.1045C43.7775 38.3297 43.2577 38.701 42.5894 38.701C42.2552 38.701 41.7725 38.3297 41.7725 37.2159V26.8941C41.7725 25.5574 41.4012 25.0005 40.2874 25.0005H32.1191C31.3022 25.0005 30.7824 25.6317 30.7824 26.1886C30.7824 27.451 32.6389 27.748 32.8616 31.2381V38.8866C32.8616 40.5574 32.5646 40.8545 31.8963 40.8545C30.1512 40.8545 25.8443 34.3941 23.3195 26.9683C22.7997 25.5945 22.3171 25.0005 20.9804 25.0005H15.7824C14.2973 25.0005 14.0002 25.7059 14.0002 26.4856C14.0002 27.8594 15.7453 34.6911 22.2057 43.7134C26.5126 49.8768 32.5646 53.2183 38.0597 53.2183C41.3641 53.2183 41.7725 52.4758 41.7725 51.2134V46.5352C41.7725 45.05 42.0695 44.753 43.1463 44.753C43.926 44.753 45.2255 45.1243 48.3072 48.0946C51.8344 51.6218 52.4285 53.2183 54.3963 53.2183H59.5943C61.0795 53.2183 61.822 52.4758 61.3765 51.0277C60.8938 49.5797 59.223 47.4634 56.9953 44.9386C55.77 43.4906 53.9507 41.9683 53.4309 41.1886C52.6512 40.1861 52.874 39.7406 53.4309 38.8866C53.4309 38.8495 59.7799 29.9386 60.4111 26.8941Z" fill="white" fill-opacity="0.6"/>
<rect x="2.5" y="2.5" width="70" height="70" stroke="white" stroke-opacity="0.6" stroke-width="5"/>
</svg>
