<svg width="75" height="75" viewBox="0 0 75 75" fill="none" xmlns="http://www.w3.org/2000/svg">
<path d="M26.5842 1.85645H48.453C68.4282 1.85645 73.1436 6.60892 73.1436 26.5842V48.453C73.1436 68.4282 68.3911 73.1436 48.4159 73.1436H26.547C6.57179 73.1436 1.85645 68.3911 1.85645 48.4159V26.547C1.85645 6.60892 6.60892 1.85645 26.5842 1.85645Z" fill="#617693"/>
<mask id="mask0_515_780" style="mask-type:luminance" maskUnits="userSpaceOnUse" x="1" y="1" width="73" height="73">
<path d="M26.5842 1.85645H48.453C68.4282 1.85645 73.1436 6.60892 73.1436 26.5842V48.453C73.1436 68.4282 68.3911 73.1436 48.4159 73.1436H26.547C6.57179 73.1436 1.85645 68.3911 1.85645 48.4159V26.547C1.85645 6.60892 6.60892 1.85645 26.5842 1.85645Z" fill="white"/>
</mask>
<g mask="url(#mask0_515_780)">
<path d="M0 0H75V75H0V0Z" fill="#617693"/>
</g>
<path fill-rule="evenodd" clip-rule="evenodd" d="M60.2227 26.3984C60.5568 25.2846 60.2227 24.5049 58.6632 24.5049H53.4652C52.1286 24.5049 51.5345 25.2103 51.2004 25.99C51.2004 25.99 48.5642 32.4504 44.8142 36.6088C43.589 37.8341 43.0692 38.2054 42.4009 38.2054C42.0667 38.2054 41.584 37.8341 41.584 36.7202V26.3984C41.584 25.0618 41.2128 24.5049 40.0989 24.5049H31.9306C31.1137 24.5049 30.5939 25.1361 30.5939 25.693C30.5939 26.9554 32.4504 27.2524 32.6732 30.7425V38.391C32.6732 40.0618 32.3761 40.3588 31.7078 40.3588C29.9628 40.3588 25.6558 33.8984 23.1311 26.4727C22.6113 25.0989 22.1286 24.5049 20.792 24.5049H15.5939C14.1088 24.5049 13.8118 25.2103 13.8118 25.99C13.8118 27.3638 15.5568 34.1955 22.0172 43.2178C26.3241 49.3811 32.3761 52.7227 37.8712 52.7227C41.1756 52.7227 41.584 51.9801 41.584 50.7178V46.0395C41.584 44.5544 41.8811 44.2574 42.9578 44.2574C43.7375 44.2574 45.037 44.6286 48.1187 47.5989C51.6459 51.1262 52.24 52.7227 54.2078 52.7227H59.4058C60.891 52.7227 61.6335 51.9801 61.188 50.5321C60.7053 49.0841 59.0345 46.9678 56.8068 44.443C55.5816 42.995 53.7623 41.4727 53.2425 40.693C52.4628 39.6905 52.6855 39.245 53.2425 38.391C53.2425 38.3539 59.5915 29.443 60.2227 26.3984Z" fill="white"/>
</svg>
