<svg width="75" height="75" viewBox="0 0 75 75" fill="none" xmlns="http://www.w3.org/2000/svg">
<path fill-rule="evenodd" clip-rule="evenodd" d="M60.4109 26.8936C60.745 25.7797 60.4109 25 58.8515 25H53.6535C52.3168 25 51.7228 25.7054 51.3886 26.4851C51.3886 26.4851 48.7525 32.9456 45.0025 37.104C43.7772 38.3292 43.2574 38.7005 42.5891 38.7005C42.2549 38.7005 41.7723 38.3292 41.7723 37.2154V26.8936C41.7723 25.5569 41.401 25 40.2871 25H32.1188C31.302 25 30.7822 25.6312 30.7822 26.1881C30.7822 27.4505 32.6386 27.7475 32.8614 31.2376V38.8862C32.8614 40.557 32.5644 40.854 31.896 40.854C30.151 40.854 25.8441 34.3936 23.3193 26.9678C22.7995 25.5941 22.3168 25 20.9802 25H15.7822C14.297 25 14 25.7054 14 26.4851C14 27.8589 15.745 34.6906 22.2054 43.7129C26.5124 49.8763 32.5644 53.2178 38.0594 53.2178C41.3639 53.2178 41.7723 52.4753 41.7723 51.2129V46.5347C41.7723 45.0495 42.0693 44.7525 43.146 44.7525C43.9257 44.7525 45.2252 45.1238 48.3069 48.0941C51.8342 51.6213 52.4282 53.2178 54.396 53.2178H59.5941C61.0792 53.2178 61.8218 52.4753 61.3762 51.0272C60.8936 49.5792 59.2228 47.4629 56.995 44.9381C55.7698 43.4901 53.9505 41.9678 53.4307 41.1881C52.651 40.1857 52.8738 39.7401 53.4307 38.8862C53.4307 38.849 59.7797 29.9381 60.4109 26.8936Z" fill="white" fill-opacity="0.85"/>
<rect x="2.5" y="2.5" width="70" height="70" stroke="white" stroke-opacity="0.85" stroke-width="5"/>
</svg>
