<svg width="75" height="75" viewBox="0 0 75 75" fill="none" xmlns="http://www.w3.org/2000/svg">
<g opacity="0.8" clip-path="url(#clip0_515_777)">
<path d="M25.002 37.5C25.002 30.5967 30.5967 24.999 37.5 24.999C44.4033 24.999 50.001 30.5967 50.001 37.5C50.001 44.4033 44.4033 50.001 37.5 50.001C30.5967 50.001 25.002 44.4033 25.002 37.5ZM18.2442 37.5C18.2442 48.135 26.865 56.7558 37.5 56.7558C48.135 56.7558 56.7558 48.135 56.7558 37.5C56.7558 26.865 48.135 18.2442 37.5 18.2442C26.865 18.2442 18.2442 26.865 18.2442 37.5ZM53.0181 17.4807C53.0177 18.3707 53.2813 19.2409 53.7755 19.9811C54.2697 20.7213 54.9722 21.2983 55.7944 21.6393C56.6165 21.9802 57.5213 22.0697 58.3942 21.8964C59.2672 21.7231 60.0692 21.2948 60.6988 20.6658C61.3284 20.0367 61.7573 19.235 61.9313 18.3622C62.1053 17.4893 62.0165 16.5845 61.6762 15.7621C61.336 14.9397 60.7595 14.2366 60.0197 13.7419C59.2798 13.2471 58.4099 12.9829 57.5199 12.9825H57.5181C56.3251 12.9831 55.1811 13.4571 54.3374 14.3005C53.4936 15.1439 53.0191 16.2877 53.0181 17.4807ZM22.35 68.0241C18.6939 67.8576 16.7067 67.2486 15.3861 66.7341C13.6353 66.0525 12.3861 65.2407 11.0727 63.9291C9.7593 62.6175 8.9463 61.3695 8.2677 59.6187C7.7529 58.2987 7.1439 56.3109 6.9777 52.6548C6.7959 48.702 6.7596 47.5146 6.7596 37.5003C6.7596 27.486 6.7989 26.3019 6.9777 22.3458C7.1442 18.6897 7.7577 16.7058 8.2677 15.3819C8.9493 13.6311 9.7611 12.3819 11.0727 11.0685C12.3843 9.7551 13.6323 8.9421 15.3861 8.2635C16.7061 7.7487 18.6939 7.1397 22.35 6.9735C26.3028 6.7917 27.4902 6.7554 37.5 6.7554C47.5098 6.7554 48.6984 6.7947 52.6545 6.9735C56.3106 7.14 58.2945 7.7535 59.6184 8.2635C61.3692 8.9421 62.6184 9.7569 63.9318 11.0685C65.2452 12.3801 66.0552 13.6311 66.7368 15.3819C67.2516 16.7019 67.8606 18.6897 68.0268 22.3458C68.2086 26.3019 68.2449 27.486 68.2449 37.5003C68.2449 47.5146 68.2086 48.6987 68.0268 52.6548C67.8603 56.3109 67.2483 58.2981 66.7368 59.6187C66.0552 61.3695 65.2434 62.6187 63.9318 63.9291C62.6202 65.2395 61.3692 66.0525 59.6184 66.7341C58.2984 67.2489 56.3106 67.8579 52.6545 68.0241C48.7017 68.2059 47.5143 68.2422 37.5 68.2422C27.4857 68.2422 26.3016 68.2059 22.35 68.0241ZM22.0395 0.2271C18.0474 0.4089 15.3195 1.0419 12.9372 1.9689C10.47 2.9262 8.3814 4.2105 6.2943 6.2943C4.2072 8.3781 2.9262 10.47 1.9689 12.9372C1.0419 15.321 0.4089 18.0474 0.2271 22.0395C0.0423 26.0379 0 27.3162 0 37.5C0 47.6838 0.0423 48.9621 0.2271 52.9605C0.4089 56.9529 1.0419 59.679 1.9689 62.0628C2.9262 64.5285 4.2075 66.6228 6.2943 68.7057C8.3811 70.7886 10.47 72.0711 12.9372 73.0311C15.324 73.9581 18.0474 74.5911 22.0395 74.7729C26.04 74.9547 27.3162 75 37.5 75C47.6838 75 48.9621 74.9577 52.9605 74.7729C56.9529 74.5911 59.679 73.9581 62.0628 73.0311C64.5285 72.0711 66.6186 70.7895 68.7057 68.7057C70.7928 66.6219 72.0711 64.5285 73.0311 62.0628C73.9581 59.679 74.5941 56.9526 74.7729 52.9605C74.9547 48.9591 74.997 47.6838 74.997 37.5C74.997 27.3162 74.9547 26.0379 74.7729 22.0395C74.5911 18.0471 73.9581 15.3195 73.0311 12.9372C72.0711 10.4715 70.7895 8.3814 68.7057 6.2943C66.6219 4.2072 64.5285 2.9262 62.0658 1.9689C59.679 1.0419 56.9526 0.4059 52.9635 0.2271C48.9651 0.0453 47.6868 0 37.503 0C27.3192 0 26.04 0.0423 22.0395 0.2271Z" fill="url(#paint0_radial_515_777)"/>
<path d="M25.002 37.5C25.002 30.5967 30.5967 24.999 37.5 24.999C44.4033 24.999 50.001 30.5967 50.001 37.5C50.001 44.4033 44.4033 50.001 37.5 50.001C30.5967 50.001 25.002 44.4033 25.002 37.5ZM18.2442 37.5C18.2442 48.135 26.865 56.7558 37.5 56.7558C48.135 56.7558 56.7558 48.135 56.7558 37.5C56.7558 26.865 48.135 18.2442 37.5 18.2442C26.865 18.2442 18.2442 26.865 18.2442 37.5ZM53.0181 17.4807C53.0177 18.3707 53.2813 19.2409 53.7755 19.9811C54.2697 20.7213 54.9722 21.2983 55.7944 21.6393C56.6165 21.9802 57.5213 22.0697 58.3942 21.8964C59.2672 21.7231 60.0692 21.2948 60.6988 20.6658C61.3284 20.0367 61.7573 19.235 61.9313 18.3622C62.1053 17.4893 62.0165 16.5845 61.6762 15.7621C61.336 14.9397 60.7595 14.2366 60.0197 13.7419C59.2798 13.2471 58.4099 12.9829 57.5199 12.9825H57.5181C56.3251 12.9831 55.1811 13.4571 54.3374 14.3005C53.4936 15.1439 53.0191 16.2877 53.0181 17.4807ZM22.35 68.0241C18.6939 67.8576 16.7067 67.2486 15.3861 66.7341C13.6353 66.0525 12.3861 65.2407 11.0727 63.9291C9.7593 62.6175 8.9463 61.3695 8.2677 59.6187C7.7529 58.2987 7.1439 56.3109 6.9777 52.6548C6.7959 48.702 6.7596 47.5146 6.7596 37.5003C6.7596 27.486 6.7989 26.3019 6.9777 22.3458C7.1442 18.6897 7.7577 16.7058 8.2677 15.3819C8.9493 13.6311 9.7611 12.3819 11.0727 11.0685C12.3843 9.7551 13.6323 8.9421 15.3861 8.2635C16.7061 7.7487 18.6939 7.1397 22.35 6.9735C26.3028 6.7917 27.4902 6.7554 37.5 6.7554C47.5098 6.7554 48.6984 6.7947 52.6545 6.9735C56.3106 7.14 58.2945 7.7535 59.6184 8.2635C61.3692 8.9421 62.6184 9.7569 63.9318 11.0685C65.2452 12.3801 66.0552 13.6311 66.7368 15.3819C67.2516 16.7019 67.8606 18.6897 68.0268 22.3458C68.2086 26.3019 68.2449 27.486 68.2449 37.5003C68.2449 47.5146 68.2086 48.6987 68.0268 52.6548C67.8603 56.3109 67.2483 58.2981 66.7368 59.6187C66.0552 61.3695 65.2434 62.6187 63.9318 63.9291C62.6202 65.2395 61.3692 66.0525 59.6184 66.7341C58.2984 67.2489 56.3106 67.8579 52.6545 68.0241C48.7017 68.2059 47.5143 68.2422 37.5 68.2422C27.4857 68.2422 26.3016 68.2059 22.35 68.0241ZM22.0395 0.2271C18.0474 0.4089 15.3195 1.0419 12.9372 1.9689C10.47 2.9262 8.3814 4.2105 6.2943 6.2943C4.2072 8.3781 2.9262 10.47 1.9689 12.9372C1.0419 15.321 0.4089 18.0474 0.2271 22.0395C0.0423 26.0379 0 27.3162 0 37.5C0 47.6838 0.0423 48.9621 0.2271 52.9605C0.4089 56.9529 1.0419 59.679 1.9689 62.0628C2.9262 64.5285 4.2075 66.6228 6.2943 68.7057C8.3811 70.7886 10.47 72.0711 12.9372 73.0311C15.324 73.9581 18.0474 74.5911 22.0395 74.7729C26.04 74.9547 27.3162 75 37.5 75C47.6838 75 48.9621 74.9577 52.9605 74.7729C56.9529 74.5911 59.679 73.9581 62.0628 73.0311C64.5285 72.0711 66.6186 70.7895 68.7057 68.7057C70.7928 66.6219 72.0711 64.5285 73.0311 62.0628C73.9581 59.679 74.5941 56.9526 74.7729 52.9605C74.9547 48.9591 74.997 47.6838 74.997 37.5C74.997 27.3162 74.9547 26.0379 74.7729 22.0395C74.5911 18.0471 73.9581 15.3195 73.0311 12.9372C72.0711 10.4715 70.7895 8.3814 68.7057 6.2943C66.6219 4.2072 64.5285 2.9262 62.0658 1.9689C59.679 1.0419 56.9526 0.4059 52.9635 0.2271C48.9651 0.0453 47.6868 0 37.503 0C27.3192 0 26.04 0.0423 22.0395 0.2271Z" fill="url(#paint1_radial_515_777)"/>
</g>
<defs>
<radialGradient id="paint0_radial_515_777" cx="0" cy="0" r="1" gradientUnits="userSpaceOnUse" gradientTransform="translate(9.9642 75.3543) scale(97.9062 97.9062)">
<stop offset="0.09" stop-color="#FA8F21"/>
<stop offset="0.78" stop-color="#D82D7E"/>
</radialGradient>
<radialGradient id="paint1_radial_515_777" cx="0" cy="0" r="1" gradientUnits="userSpaceOnUse" gradientTransform="translate(45.4842 78.7143) scale(77.1636 77.1636)">
<stop offset="0.64" stop-color="#8C3AAA" stop-opacity="0"/>
<stop offset="1" stop-color="#8C3AAA"/>
</radialGradient>
<clipPath id="clip0_515_777">
<rect width="75" height="75" fill="white"/>
</clipPath>
</defs>
</svg>
