<svg width="75" height="75" viewBox="0 0 75 75" fill="none" xmlns="http://www.w3.org/2000/svg">
<g clip-path="url(#clip0_345_898)">
<path d="M74.4141 0.585938H0.585938V74.4141H74.4141V0.585938ZM69.7266 69.7266H5.27344V5.27344H69.7266V69.7266Z" fill="white" fill-opacity="0.85"/>
<path d="M37.5 54.4922C46.875 54.4922 54.4922 46.875 54.4922 37.5C54.4922 28.125 46.875 20.5078 37.5 20.5078C28.125 20.5078 20.5078 28.125 20.5078 37.5C20.5078 46.875 28.125 54.4922 37.5 54.4922ZM37.5 25.1953C44.2969 25.1953 49.8047 30.7031 49.8047 37.5C49.8047 44.2969 44.2969 49.8047 37.5 49.8047C30.7031 49.8047 25.1953 44.2969 25.1953 37.5C25.1953 30.7031 30.7031 25.1953 37.5 25.1953Z" fill="white" fill-opacity="0.85"/>
<path d="M62.6953 12.3047H58.0078V16.9922H62.6953V12.3047Z" fill="white" fill-opacity="0.85"/>
</g>
<defs>
<clipPath id="clip0_345_898">
<rect width="75" height="75" fill="white"/>
</clipPath>
</defs>
</svg>
