<svg width="60" height="60" viewBox="0 0 60 60" fill="none" xmlns="http://www.w3.org/2000/svg">
<path d="M40.991 15.8907V10.0164C40.991 9.93844 40.9171 9.86449 40.8391 9.86449H19.1004C19.0224 9.86449 18.9485 9.93832 18.9485 10.0164V15.8907H14.3926V10.0164C14.3926 7.42043 16.5044 5.30859 19.1004 5.30859H40.839C43.4349 5.30859 45.5468 7.42043 45.5468 10.0164V15.8907H40.991Z" fill="#725B4B"/>
<path d="M57.2153 54.6918H2.78453C1.7418 54.6918 0.888672 53.8386 0.888672 52.7959V16.6234C0.888672 15.5807 1.7418 14.7275 2.78453 14.7275H57.2153C58.258 14.7275 59.1112 15.5807 59.1112 16.6234V52.7958C59.1112 53.8385 58.258 54.6918 57.2153 54.6918Z" fill="#836F5A"/>
<path d="M30.0004 47.349C36.9812 47.349 42.6403 41.69 42.6403 34.7092C42.6403 27.7284 36.9812 22.0693 30.0004 22.0693C23.0196 22.0693 17.3606 27.7284 17.3606 34.7092C17.3606 41.69 23.0196 47.349 30.0004 47.349Z" fill="#C2B5A5"/>
<path d="M37.8974 32.5651H32.144V26.8115H27.8561V32.5651H22.1025V36.853H27.8561V42.6065H32.144V36.853H37.8974V32.5651Z" fill="#FF3069"/>
<path d="M59.1111 52.796V46.1768H58.6656C54.0339 46.1768 50.2793 49.9314 50.2793 54.5632V54.6918H57.2153C58.258 54.692 59.1111 53.8387 59.1111 52.796Z" fill="#C2B5A5"/>
<path d="M58.6308 23.1139H59.1111V16.6234C59.1111 15.5807 58.258 14.7275 57.2153 14.7275H50.2444C50.2444 19.3593 53.9991 23.1139 58.6308 23.1139Z" fill="#C2B5A5"/>
<path d="M0.923477 23.1139C5.5552 23.1139 9.30977 19.3593 9.30977 14.7275H2.78453C1.7418 14.7275 0.888672 15.5807 0.888672 16.6234V22.7214L0.923477 23.1139Z" fill="#C2B5A5"/>
<path d="M9.27496 54.5632C9.27496 49.9314 5.52027 46.1768 0.888672 46.1768V52.796C0.888672 53.8387 1.7418 54.6918 2.78453 54.6918H9.30988V54.563L9.27496 54.5632Z" fill="#C2B5A5"/>
<path d="M18.9482 12.4453H14.3923V14.7279H18.9482V12.4453Z" fill="#564A3D"/>
<path d="M45.5466 12.4453H40.9907V14.7279H45.5466V12.4453Z" fill="#564A3D"/>
<path opacity="0.2" d="M57.185 14.7275H52.4748V46.8216C52.4748 47.8643 51.6217 48.7174 50.5789 48.7174H0.858398V52.7958C0.858398 53.8385 1.71152 54.6916 2.75426 54.6916H57.185C58.2278 54.6916 59.0809 53.8385 59.0809 52.7958V16.6234C59.0809 15.5807 58.2278 14.7275 57.185 14.7275Z" fill="#564A3D"/>
<path d="M57.2154 13.839H46.4355V10.0163C46.4355 6.93055 43.9249 4.41992 40.8391 4.41992H19.1004C16.0145 4.41992 13.5039 6.93055 13.5039 10.0163V13.839H2.78461C1.24922 13.839 0 15.0882 0 16.6236V52.796C0 54.3315 1.24922 55.5806 2.78461 55.5806H57.2154C58.7509 55.5806 60 54.3314 60 52.796V16.6236C60 15.0882 58.7508 13.839 57.2154 13.839ZM1.77738 23.9619C6.1998 23.5562 9.73312 20.0341 10.1552 15.6163H49.3993C49.8355 20.1815 53.5938 23.7905 58.2226 23.9922V45.2991C53.5665 45.5193 49.8007 49.1887 49.4244 53.803H10.1302C9.76594 49.3368 6.22652 45.7564 1.7775 45.3314V23.9619H1.77738ZM58.2226 16.6236V22.2138C54.5746 22.0169 51.6132 19.2001 51.1879 15.6164H57.2154C57.7706 15.6164 58.2226 16.0682 58.2226 16.6236ZM15.2812 10.0163C15.2812 7.91059 16.9945 6.19742 19.1004 6.19742H40.839C42.9448 6.19742 44.6579 7.91059 44.6579 10.0163V13.8171H41.8794V10.0163C41.8794 9.4523 41.4029 8.97582 40.8389 8.97582H19.1004C18.5364 8.97582 18.0599 9.4523 18.0599 10.0163V13.8171H15.2812V10.0163ZM19.8373 10.7533H40.1023V13.839H19.8373V10.7533ZM2.78461 15.6164H8.36684C7.95891 19.053 5.21871 21.7832 1.77738 22.1752V16.6235C1.77738 16.0682 2.22926 15.6164 2.78461 15.6164ZM1.77738 52.7959V47.1198C5.24531 47.5314 7.99547 50.3176 8.34809 53.8031H2.78461C2.22926 53.8031 1.77738 53.3513 1.77738 52.7959ZM57.2154 53.8031H51.2065C51.574 50.1695 54.5468 47.295 58.2225 47.0795V52.7959C58.2226 53.3513 57.7706 53.8031 57.2154 53.8031Z" fill="black"/>
<path d="M29.9999 48.2382C37.4598 48.2382 43.5291 42.169 43.5291 34.709C43.5291 27.2489 37.4599 21.1797 29.9999 21.1797C22.5398 21.1797 16.4707 27.2488 16.4707 34.709C16.4707 42.169 22.54 48.2382 29.9999 48.2382ZM29.9999 22.9574C36.4799 22.9574 41.7516 28.2292 41.7516 34.7092C41.7516 41.1892 36.4799 46.4609 29.9999 46.4609C23.5199 46.4609 18.2482 41.1892 18.2482 34.7092C18.2482 28.2292 23.5199 22.9574 29.9999 22.9574Z" fill="black"/>
<path d="M26.9675 37.7419V42.6068C26.9675 43.0977 27.3653 43.4956 27.8563 43.4956H32.1442C32.6351 43.4956 33.0329 43.0979 33.0329 42.6068V37.7419H37.8979C38.3888 37.7419 38.7866 37.3442 38.7866 36.8532V32.5653C38.7866 32.0744 38.3889 31.6765 37.8979 31.6765H33.0329V26.8116C33.0329 26.3207 32.6352 25.9229 32.1442 25.9229H27.8563C27.3654 25.9229 26.9675 26.3206 26.9675 26.8116V31.6765H22.1026C21.6117 31.6765 21.2139 32.0743 21.2139 32.5653V36.8532C21.2139 37.3441 21.6116 37.7419 22.1026 37.7419H26.9675ZM22.9912 33.4543H27.8562C28.3471 33.4543 28.7449 33.0565 28.7449 32.5655V27.7006H31.2553V32.5655C31.2553 33.0564 31.653 33.4543 32.1441 33.4543H37.009V35.9646H32.1441C31.6532 35.9646 31.2553 36.3624 31.2553 36.8534V41.7183H28.7449V36.8534C28.7449 36.3625 28.3472 35.9646 27.8562 35.9646H22.9912V33.4543Z" fill="black"/>
</svg>
