<svg width="60" height="60" viewBox="0 0 60 60" fill="none" xmlns="http://www.w3.org/2000/svg">
<g clip-path="url(#clip0_481_964)">
<path d="M38.9619 15.6855L44.8882 31.5166L44.9294 31.5252L44.9158 31.59L44.5767 33.2064L39.1462 59.1035L29.6755 50.9695C28.529 49.9848 28.3572 48.2734 29.2849 47.0804C30.3175 45.7527 32.2726 45.6117 33.4853 46.7771L36.1 49.2904L39.7292 31.9839L34.7282 18.6244L38.9619 15.6855Z" fill="#7A797E"/>
<path d="M29.9415 10.962L11.1507 25.6625C10.4385 26.3979 9.27468 25.4754 9.82804 24.6141L24.3718 1.97742L30.8577 3.67605L34.1006 0.896484L50.3152 8.61762L44.1382 13.2503L39.2761 11.9261" fill="#D8D7D9"/>
<path d="M34.4052 18.5046C37.2172 18.5046 39.4968 16.225 39.4968 13.413C39.4968 10.6009 37.2172 8.32129 34.4052 8.32129C31.5931 8.32129 29.3135 10.6009 29.3135 13.413C29.3135 16.225 31.5931 18.5046 34.4052 18.5046Z" fill="#403E43"/>
<path d="M34.4052 15.2216C35.4041 15.2216 36.2138 14.4119 36.2138 13.413C36.2138 12.4142 35.4041 11.6045 34.4052 11.6045C33.4064 11.6045 32.5967 12.4142 32.5967 13.413C32.5967 14.4119 33.4064 15.2216 34.4052 15.2216Z" fill="#7A797E"/>
<path d="M36.1 49.2903L33.4853 46.777C32.2728 45.6116 30.3177 45.7526 29.285 47.0803C28.357 48.2734 28.5289 49.9847 29.6755 50.9694L39.1462 59.1034L43.3074 39.2593L38.9853 35.5312L36.1 49.2903Z" fill="#FFCF9B"/>
<g opacity="0.16">
<path d="M43.4139 27.5791L43.1267 28.9491L39.9517 44.0899L39.526 46.1203L37.6962 54.8463L30.6798 48.8202L29.0578 47.427C29.01 47.5126 28.966 47.5996 28.9272 47.6884C28.8748 47.808 28.8281 47.9294 28.7935 48.0534C28.6247 48.6547 28.6603 49.2956 28.8901 49.8719C29.0543 50.2836 29.3174 50.6623 29.6756 50.97L32.1299 53.0779L39.1463 59.1042L40.976 50.3782L41.4018 48.3478L44.5767 33.207L44.9156 31.5907L44.9292 31.5259L44.8881 31.5173L43.4139 27.5791Z" fill="#403E43"/>
<path d="M28.6924 11.9395L14.1025 17.9614L9.82811 24.6143C9.27463 25.4757 10.4383 26.3982 11.1508 25.6628L28.6924 11.9395Z" fill="#403E43"/>
</g>
<path d="M51.2071 8.52855C51.1759 8.21636 50.9838 7.9432 50.7005 7.8082L34.486 0.0870649C34.1663 -0.0651617 33.7862 -0.0150054 33.517 0.215854L30.6306 2.68992L24.599 1.11035C24.2229 1.01132 23.8274 1.16648 23.6175 1.49296L9.07385 24.1295C8.57908 24.8994 8.74057 25.871 9.45776 26.4397C9.78459 26.6987 10.1665 26.8263 10.5458 26.8263C10.977 26.8263 11.4048 26.6613 11.7438 26.3368L28.42 13.2908C28.4192 13.3318 28.4168 13.3724 28.4168 13.4135C28.4168 16.5987 30.9169 19.2102 34.0576 19.3909L38.7982 32.0545L38.1096 35.3386C38.1094 35.34 38.109 35.3413 38.1088 35.3428L37.0459 40.4114C37.0456 40.4132 37.0452 40.415 37.0447 40.4169L35.5546 47.5228L34.1066 46.131C33.3458 45.3997 32.3062 45.0235 31.2533 45.0998C30.2006 45.1758 29.2254 45.697 28.5774 46.5302C27.3542 48.1029 27.5799 50.3517 29.0913 51.6499L38.5621 59.7839C38.7272 59.9257 38.9351 60.0003 39.1464 60.0003C39.243 60.0003 39.3403 59.9846 39.4344 59.9528C39.7346 59.8509 39.9586 59.5982 40.0238 59.2877L44.1831 39.4528C44.1833 39.4515 44.1837 39.4502 44.1839 39.4488L45.4542 33.3908L45.8069 31.7091C45.8615 31.4476 45.7962 31.189 45.6483 30.9902L39.9313 15.7182C40.2285 15.0084 40.3931 14.2298 40.3931 13.4135C40.3931 13.3278 40.3903 13.2428 40.3867 13.158L43.9024 14.1156C44.1692 14.1882 44.4547 14.1337 44.676 13.9678L50.853 9.33503C51.104 9.14648 51.2384 8.84074 51.2071 8.52855ZM30.2099 13.4134C30.2099 11.1001 32.0918 9.21808 34.4051 9.21808C36.7184 9.21808 38.6004 11.1001 38.6004 13.4134C38.6004 15.7267 36.7184 17.6086 34.4051 17.6086C32.0918 17.6086 30.2099 15.7266 30.2099 13.4134ZM41.6781 42.6613L38.9074 40.2712L39.5509 37.203L42.3216 39.593L41.6781 42.6613ZM40.6527 47.5512L37.8819 45.1611L38.4869 42.2764L41.2487 44.6589C41.2515 44.6613 41.2547 44.6634 41.2578 44.6659L40.6527 47.5512ZM38.5799 57.4353L30.2596 50.2894C29.4747 49.6152 29.3575 48.4474 29.9926 47.6307C30.334 47.1917 30.8276 46.928 31.3824 46.8879C31.9364 46.8478 32.4631 47.038 32.864 47.4233L35.4787 49.9365C35.7137 50.1625 36.0528 50.2428 36.3642 50.1469C36.6756 50.0509 36.9104 49.7932 36.9774 49.4741L37.4613 47.1661L40.136 49.4732C40.1673 49.5003 40.2005 49.5239 40.2342 49.5458L38.5799 57.4353ZM43.9848 31.6607L42.7418 37.588L39.9712 35.1981L40.6067 32.1678C40.6415 32.0014 40.6285 31.8287 40.5689 31.6696L35.9052 19.2112C36.9895 18.9306 37.9545 18.3519 38.7099 17.5698L43.9848 31.6607ZM43.9508 12.2701L39.9611 11.1835C39.0747 8.983 36.9191 7.42511 34.4051 7.42511C32.2181 7.42511 30.3022 8.60414 29.2569 10.3593L10.75 24.8378L24.7744 3.0096L30.6304 4.54324C30.9148 4.618 31.2177 4.54816 31.441 4.35667L34.2414 1.95644L48.5913 8.78964L43.9508 12.2701Z" fill="black"/>
<path d="M37.1103 13.4133C37.1103 11.9216 35.8967 10.708 34.405 10.708C32.9133 10.708 31.6998 11.9216 31.6998 13.4133C31.6998 14.905 32.9133 16.1184 34.405 16.1184C35.8967 16.1184 37.1103 14.9048 37.1103 13.4133ZM33.493 13.4133C33.493 12.9103 33.9022 12.5011 34.4051 12.5011C34.9081 12.5011 35.3173 12.9103 35.3173 13.4133C35.3173 13.9161 34.9081 14.3254 34.4051 14.3254C33.9021 14.3254 33.493 13.9161 33.493 13.4133Z" fill="black"/>
</g>
<defs>
<clipPath id="clip0_481_964">
<rect width="60" height="60" fill="white"/>
</clipPath>
</defs>
</svg>
