<svg width="100" height="100" viewBox="0 0 100 100" fill="none" xmlns="http://www.w3.org/2000/svg">
<g clip-path="url(#clip0_182_843)">
<path d="M89.2512 29.9604H65.8674V13.2578H89.2512L80.8999 21.609L89.2512 29.9604Z" fill="#EFCCCB"/>
<path d="M74.2183 4.90649H50.8345V21.6092H74.2183V4.90649Z" fill="#D8C0B4"/>
<path d="M54.1749 4.90649H50.8345V21.6092H54.1749V4.90649Z" fill="#EFCCCB"/>
<path d="M50.8352 34.9712L97.6026 98.4413H4.06763L50.8352 34.9712Z" fill="#506873"/>
<path d="M50.8352 34.9712L97.6026 98.4413H4.06763L50.8352 34.9712Z" fill="#506873"/>
<path d="M37.4731 63.3657L44.1542 70.0468L50.8352 63.3657L57.5163 70.0468L64.1973 63.3657L70.8784 70.0468L74.2188 66.7063L50.8352 34.9712L27.4514 66.7063L30.792 70.0468L37.4731 63.3657Z" fill="#E7EBEC"/>
<path d="M34.1324 8.24697C33.3597 8.24697 32.6281 8.42217 31.9746 8.73447C32.2869 8.08096 32.4621 7.34932 32.4621 6.57666C32.4621 3.80928 30.2187 1.56592 27.4513 1.56592C24.6839 1.56592 22.4406 3.80928 22.4406 6.57666C22.4406 7.34932 22.6158 8.08096 22.9281 8.73447C22.2746 8.42217 21.5429 8.24697 20.7703 8.24697C18.0029 8.24697 15.7595 10.4903 15.7595 13.2577C15.7595 16.0251 18.0029 18.2685 20.7703 18.2685H34.1324C36.8998 18.2685 39.1431 16.0251 39.1431 13.2577C39.1431 10.4903 36.8998 8.24697 34.1324 8.24697Z" fill="#CED7D9"/>
<path d="M35.8027 14.928H22.4406C19.6732 14.928 17.4298 12.6847 17.4298 9.91729C17.4298 9.77939 17.4369 9.64346 17.4478 9.5083C16.4126 10.4263 15.7595 11.7655 15.7595 13.2579C15.7595 16.0253 18.0029 18.2687 20.7703 18.2687H34.1324C36.7621 18.2687 38.9169 16.2427 39.1251 13.6669C38.2408 14.4511 37.0777 14.928 35.8027 14.928Z" fill="#B6C4C6"/>
<path d="M92.5918 44.9928C91.8192 44.9928 91.0875 45.168 90.434 45.4803C90.7463 44.8268 90.9215 44.0952 90.9215 43.3225C90.9215 40.5551 88.6782 38.3118 85.9108 38.3118C83.1434 38.3118 80.9 40.5551 80.9 43.3225C80.9 44.0952 81.0752 44.8268 81.3875 45.4803C80.734 45.168 80.0024 44.9928 79.2297 44.9928C76.4624 44.9928 74.219 47.2362 74.219 50.0036C74.219 52.7709 76.4624 55.0143 79.2297 55.0143H92.5918C95.3592 55.0143 97.6026 52.7709 97.6026 50.0036C97.6026 47.2362 95.3592 44.9928 92.5918 44.9928Z" fill="#CED7D9"/>
<path d="M94.2619 51.6739H80.8998C78.1324 51.6739 75.8891 49.4305 75.8891 46.6631C75.8891 46.5252 75.8961 46.3893 75.907 46.2542C74.8719 47.1721 74.2188 48.5114 74.2188 50.0038C74.2188 52.7711 76.4621 55.0145 79.2295 55.0145H92.5916C95.2213 55.0145 97.376 52.9885 97.5844 50.4127C96.7002 51.1967 95.5369 51.6739 94.2619 51.6739Z" fill="#B6C4C6"/>
<path d="M20.7703 51.6737C19.9977 51.6737 19.266 51.8489 18.6125 52.1612C18.9248 51.5077 19.1 50.7761 19.1 50.0034C19.1 47.236 16.8566 44.9927 14.0893 44.9927C11.3219 44.9927 9.07852 47.236 9.07852 50.0034C9.07852 50.7761 9.25371 51.5077 9.56602 52.1612C8.9125 51.8489 8.18086 51.6737 7.4082 51.6737C4.64082 51.6737 2.39746 53.9171 2.39746 56.6845C2.39746 59.4519 4.64082 61.6952 7.4082 61.6952H20.7703C23.5377 61.6952 25.7811 59.4519 25.7811 56.6845C25.7811 53.9171 23.5377 51.6737 20.7703 51.6737Z" fill="#CED7D9"/>
<path d="M22.4406 58.3548H9.07852C6.31113 58.3548 4.06777 56.1114 4.06777 53.344C4.06777 53.2062 4.0748 53.0702 4.08574 52.9351C3.05059 53.853 2.39746 55.1923 2.39746 56.6847C2.39746 59.452 4.64082 61.6954 7.4082 61.6954H20.7703C23.4 61.6954 25.5547 59.6694 25.7631 57.0937C24.8787 57.8776 23.7156 58.3548 22.4406 58.3548Z" fill="#B6C4C6"/>
<path d="M64.4032 50.7451C63.8903 50.049 62.9103 49.901 62.2138 50.4133C61.5177 50.9262 61.3691 51.9064 61.882 52.6027L72.1595 66.551L70.8784 67.8322L65.3048 62.2584C64.6931 61.6471 63.7017 61.6471 63.0902 62.2584L57.5165 67.8322L51.9429 62.2584C51.3312 61.6471 50.3398 61.6471 49.7282 62.2584L44.1546 67.8322L38.581 62.2584C37.9693 61.6471 36.9779 61.6471 36.3663 62.2584L30.7927 67.8322L29.5116 66.551L50.8359 37.6109L58.1898 47.5912C58.696 48.2779 59.6923 48.4291 60.3792 47.923C61.0663 47.417 61.2169 46.4203 60.7111 45.7336L52.4017 34.4568V23.175H64.3023V29.9605C64.3023 30.8256 65.0032 31.5264 65.8681 31.5264H89.2519C90.6167 31.5264 91.3253 29.8195 90.3593 28.8531L83.1144 21.6092L90.3585 14.3652C91.3245 13.3988 90.6163 11.692 89.2513 11.692H75.7847V4.90645C75.7847 4.04141 75.0837 3.34063 74.2189 3.34063H62.5271C61.662 3.34063 60.9612 4.0416 60.9612 4.90645C60.9612 5.77129 61.6622 6.47227 62.5271 6.47227H72.653V20.0432H52.4011V6.47227H55.846C56.7111 6.47227 57.4118 5.77129 57.4118 4.90645C57.4118 4.0416 56.7109 3.34063 55.846 3.34063H52.4011V1.56582C52.4011 0.700781 51.7001 0 50.8353 0C49.9704 0 49.2695 0.700977 49.2695 1.56582V34.4564L26.1909 65.7773L2.80714 97.5123C2.31535 98.1801 2.44113 99.1502 3.0923 99.666C3.77726 100.209 4.80929 100.075 5.32863 99.3699L27.6321 69.1008L29.6849 71.1537C30.2966 71.765 31.288 71.765 31.8995 71.1537L37.4732 65.5799L43.0468 71.1537C43.6585 71.765 44.6499 71.765 45.2614 71.1537L50.8351 65.5799L56.4087 71.1537C57.0204 71.765 58.0118 71.765 58.6234 71.1537L64.197 65.5799L69.7706 71.1537C70.3823 71.765 71.3737 71.765 71.9853 71.1537L74.038 69.1008L96.3415 99.3699C96.8948 100.121 98.0126 100.215 98.6866 99.5705C99.2478 99.0342 99.3228 98.1363 98.8628 97.5119L64.4032 50.7451ZM74.2189 23.175C75.0839 23.175 75.7847 22.474 75.7847 21.6092V14.8236H85.471L79.7927 20.5018C79.1812 21.1135 79.1812 22.1049 79.7927 22.7164L85.4708 28.3947H67.4331V23.1752H74.2189V23.175Z" fill="black"/>
<path d="M20.7703 19.8344H34.1324C37.7588 19.8344 40.7092 16.884 40.7092 13.2576C40.7092 9.59648 37.6937 6.63066 34.0273 6.68184C34.0279 6.64668 34.0281 6.61172 34.0281 6.57656C34.0281 2.95039 31.0777 0 27.4514 0C23.825 0 20.8746 2.95039 20.8746 6.57676C20.8746 6.61191 20.8748 6.64688 20.8754 6.68203C20.8402 6.68145 20.8053 6.68125 20.7701 6.68125C17.1438 6.68125 14.1934 9.63164 14.1934 13.258C14.1934 16.8844 17.1439 19.8344 20.7703 19.8344ZM20.7703 9.81289C21.2898 9.81289 21.7885 9.92539 22.2529 10.1473C22.8453 10.4309 23.5715 10.3057 24.0355 9.8418C24.4996 9.37793 24.624 8.65156 24.341 8.05918C24.1191 7.59492 24.0066 7.09629 24.0066 6.57656C24.0066 4.67715 25.5521 3.13164 27.4516 3.13164C29.351 3.13164 30.8965 4.67715 30.8965 6.57656C30.8965 7.09609 30.784 7.59473 30.5621 8.05918C30.2787 8.65176 30.4033 9.37773 30.8676 9.8418C31.3316 10.3057 32.0578 10.4309 32.6502 10.1473C33.1145 9.92539 33.6131 9.81289 34.1328 9.81289C36.0322 9.81289 37.5777 11.3584 37.5777 13.2578C37.5777 15.1572 36.0322 16.7027 34.1328 16.7027H20.7707C18.8713 16.7027 17.3258 15.1572 17.3258 13.2578C17.3258 11.3584 18.8709 9.81289 20.7703 9.81289Z" fill="black"/>
<path d="M85.9106 36.7458C82.2842 36.7458 79.3338 39.6962 79.3338 43.3226C79.3338 43.3578 79.334 43.3927 79.3346 43.4279C79.2995 43.4273 79.2645 43.4271 79.2293 43.4271C75.603 43.4271 72.6526 46.3775 72.6526 50.0039C72.6526 53.6302 75.603 56.5806 79.2293 56.5806H92.5915C96.2178 56.5806 99.1682 53.6302 99.1682 50.0039C99.1682 46.3775 96.2178 43.4271 92.5915 43.4271C92.5563 43.4271 92.5213 43.4273 92.4862 43.4279C92.4868 43.3927 92.487 43.3578 92.487 43.3226C92.4874 39.696 89.537 36.7458 85.9106 36.7458ZM92.5919 46.5585C94.4913 46.5585 96.0368 48.1041 96.0368 50.0035C96.0368 51.9029 94.4913 53.4484 92.5919 53.4484H79.2297C77.3303 53.4484 75.7848 51.9029 75.7848 50.0035C75.7848 48.1041 77.3303 46.5585 79.2297 46.5585C79.7493 46.5585 80.2479 46.671 80.7124 46.8929C81.3049 47.1765 82.0309 47.0515 82.495 46.5875C82.959 46.1234 83.0834 45.3974 82.8004 44.8048C82.5786 44.3406 82.4661 43.8419 82.4661 43.3222C82.4661 41.4228 84.0116 39.8773 85.911 39.8773C87.8104 39.8773 89.3559 41.4228 89.3559 43.3222C89.3559 43.8417 89.2434 44.3404 89.0215 44.8048C88.7381 45.3974 88.8627 46.1234 89.327 46.5875C89.7911 47.0513 90.5172 47.1765 91.1096 46.8929C91.5735 46.671 92.0723 46.5585 92.5919 46.5585Z" fill="black"/>
<path d="M7.40825 63.2613H20.7704C24.3967 63.2613 27.3471 60.3109 27.3471 56.6845C27.3471 53.0582 24.3967 50.1078 20.7704 50.1078C20.7352 50.1078 20.7002 50.108 20.6651 50.1085C20.6657 50.0734 20.6659 50.0384 20.6659 50.0033C20.6659 46.3769 17.7155 43.4265 14.0891 43.4265C10.4627 43.4265 7.51235 46.3769 7.51235 50.0033C7.51235 50.0384 7.51255 50.0734 7.51313 50.1085C3.84634 50.0574 0.831494 53.0232 0.831299 56.6843C0.831494 60.3109 3.78188 63.2613 7.40825 63.2613ZM7.40825 53.2396C7.92778 53.2396 8.42642 53.3521 8.89087 53.574C9.48325 53.8576 10.2094 53.7326 10.6735 53.2685C11.1375 52.8044 11.262 52.0785 10.979 51.4859C10.7571 51.0216 10.6446 50.523 10.6446 50.0033C10.6446 48.1039 12.1901 46.5584 14.0895 46.5584C15.9889 46.5584 17.5344 48.1039 17.5344 50.0033C17.5344 50.5228 17.4219 51.0214 17.2 51.4859C16.9188 52.0742 17.0446 52.8078 17.5055 53.2685C17.9663 53.7292 18.7 53.8554 19.2881 53.574C19.7524 53.3521 20.251 53.2396 20.7708 53.2396C22.6702 53.2396 24.2157 54.7849 24.2157 56.6845C24.2157 58.5839 22.6702 60.1294 20.7708 60.1294H7.40825C5.50884 60.1294 3.96333 58.5839 3.96333 56.6845C3.96333 54.7851 5.50884 53.2396 7.40825 53.2396Z" fill="black"/>
</g>
<defs>
<clipPath id="clip0_182_843">
<rect width="100" height="100" fill="white"/>
</clipPath>
</defs>
</svg>
