<svg width="65" height="65" viewBox="0 0 65 65" fill="none" xmlns="http://www.w3.org/2000/svg">
<g clip-path="url(#clip0_481_981)">
<path d="M0.965332 49.6203C1.79319 42.4068 5.80923 34.4545 12.2668 27.3889C19.037 19.9814 26.7899 15.3799 32.5 15.3799C38.2105 15.3799 45.9635 19.9816 52.7335 27.3889C59.191 34.4545 63.2069 42.4069 64.0346 49.6207L0.965332 49.6203Z" fill="#D4E9F4"/>
<path d="M5.00586 49.5293H59.9943C59.0786 43.3173 55.3438 36.2013 49.6176 29.9355C43.8007 23.5711 36.7618 19.126 32.5001 19.126C28.2388 19.126 21.2 23.5711 15.3831 29.9355C9.65653 36.2013 5.92157 43.3175 5.00586 49.5293Z" fill="#6EADE3"/>
<path d="M5.00586 49.5289H59.9943C59.0786 43.3169 45.886 28.0166 32.5001 28.0166C19.3056 28.0166 5.92157 43.3171 5.00586 49.5289Z" fill="#6393CF"/>
<g opacity="0.67">
<path d="M59.9943 49.4655C59.5654 46.5555 58.5177 43.4469 56.9364 40.3203H38.9265H27.0435H8.06391C6.48258 43.4469 5.43483 46.5554 5.00586 49.4655H12.7287H22.0959C22.0957 49.496 22.0936 49.5261 22.0936 49.5567H42.9076C42.9076 49.5262 42.9056 49.496 42.9053 49.4655H52.2718H59.9943Z" fill="#557FB1"/>
</g>
<path d="M12.7285 49.5289H52.2714C51.3558 43.3169 45.8859 28.0166 32.4999 28.0166C19.3054 28.0166 13.6441 43.3171 12.7285 49.5289Z" fill="#72BDE7"/>
<path d="M22.0935 49.6208C22.0935 43.8733 26.7529 39.2139 32.5005 39.2139C38.248 39.2139 42.9075 43.8733 42.9075 49.6208H22.0935Z" fill="#D4E9F4"/>
<path d="M26.4712 49.4881C26.4712 46.1583 29.1706 43.459 32.5003 43.459C35.83 43.459 38.5295 46.1584 38.5295 49.4881H26.4712Z" fill="#72BDE7"/>
<path d="M64.9937 49.51C64.1359 42.0339 60.0348 33.9463 53.4461 26.7371C46.4991 19.1358 38.473 14.4141 32.5001 14.4141C26.5276 14.4141 18.5016 19.1361 11.5543 26.7371C4.96546 33.9463 0.864368 42.0337 0.00629142 49.5097C-0.025066 49.7831 0.0617699 50.057 0.244963 50.2625C0.428157 50.4679 0.690188 50.5853 0.965549 50.5853L22.0904 50.5854C22.0916 50.5854 22.0926 50.5855 22.0937 50.5855H42.9077C42.9082 50.5855 42.9088 50.5854 42.9093 50.5854L64.035 50.5855C64.3102 50.5855 64.5722 50.4681 64.7556 50.2627C64.9384 50.0573 65.0252 49.7835 64.9937 49.51ZM33.0368 28.9915C33.05 28.9918 33.0634 28.9922 33.0766 28.9927C40.1737 29.2488 44.8532 34.2157 47.7098 39.4186H37.522C36.0066 38.6697 34.302 38.248 32.5006 38.248C30.6991 38.248 28.9944 38.6697 27.4792 39.4186H17.2906C20.2238 34.0763 25.079 28.9822 32.5002 28.9822C32.6805 28.9821 32.8593 28.9855 33.0368 28.9915ZM27.529 48.5228C27.9808 46.1907 30.0382 44.4244 32.5005 44.4244C34.9627 44.4244 37.0202 46.1907 37.4719 48.5228H27.529ZM32.5005 42.4937C28.9571 42.4937 26.0228 45.1427 25.5689 48.5638H23.1193C23.6461 43.8531 27.6513 40.1787 32.5005 40.1787C37.3496 40.1787 41.3549 43.8532 41.8817 48.5638H39.432C38.9781 45.1427 36.0438 42.4937 32.5005 42.4937ZM11.9132 48.5637H6.23563C6.88055 46.6245 8.47711 44.0221 10.7288 41.3491H14.2014C13.0322 44.0142 12.2861 46.583 11.9132 48.5637ZM16.3134 41.3493H24.704C22.7446 43.1974 21.4399 45.7316 21.1778 48.5639H13.8818C14.2744 46.6645 15.0573 44.0497 16.3134 41.3493ZM40.2971 41.3493H48.687C49.9429 44.0499 50.7258 46.6646 51.1185 48.5639H43.8234C43.5611 45.7315 42.2565 43.1973 40.2971 41.3493ZM50.834 41.3493H54.3167C56.6168 44.0985 58.1418 46.6946 58.7635 48.5639H53.0875C52.716 46.5731 51.9798 44.0021 50.834 41.3493ZM49.9307 39.4186C49.3258 38.2216 48.6367 37.0328 47.8584 35.8977C47.4455 35.2954 47.017 34.7245 46.5757 34.1817C48.0507 35.2313 49.3051 36.281 50.2759 37.1595C51.1015 37.9065 51.874 38.6634 52.5924 39.4187H49.9307V39.4186ZM17.2157 35.8948C16.4277 37.0355 15.7306 38.2246 15.1185 39.4186H12.4615C14.236 37.5588 16.2934 35.7338 18.5355 34.1431C18.0816 34.6963 17.641 35.2792 17.2157 35.8948ZM55.3396 39.5825C54.1962 38.2599 52.9264 36.9536 51.5712 35.7276C48.0771 32.5662 41.0999 27.3155 33.1003 27.0619C33.0769 27.0611 33.0537 27.0605 33.0302 27.0597C32.8539 27.0548 32.6773 27.0514 32.5001 27.0514C32.3249 27.0514 32.1502 27.0548 31.9759 27.0597C31.9533 27.0604 31.9307 27.061 31.9081 27.0618C24.002 27.315 17.0127 32.5651 13.5024 35.7261C12.1005 36.9886 10.7887 38.3338 9.61322 39.6931C9.57437 39.7311 9.53907 39.7727 9.50696 39.8166C9.4577 39.874 9.4092 39.9315 9.36058 39.989C11.0805 36.7821 13.3626 33.5767 16.0957 30.5864C21.654 24.5048 28.553 20.0909 32.5001 20.0909C36.4474 20.0909 43.3467 24.5048 48.905 30.5864C51.5561 33.4872 53.7829 36.5906 55.4839 39.7015C55.4397 39.6573 55.3914 39.6176 55.3396 39.5825ZM60.828 48.6547C59.7049 42.4058 55.9119 35.3913 50.33 29.284C44.2491 22.6305 37.0837 18.1602 32.5001 18.1602C27.9166 18.1602 20.7516 22.6303 14.6706 29.284C9.08877 35.3912 5.29554 42.4057 4.17226 48.6545H2.07106C3.13886 41.8792 6.98148 34.6023 12.9795 28.0396C19.5726 20.8258 27.0525 16.3448 32.5001 16.3448C37.9481 16.3448 45.428 20.826 52.021 28.0396C58.0193 34.6028 61.8618 41.879 62.9292 48.6547H60.828Z" fill="black"/>
</g>
<defs>
<clipPath id="clip0_481_981">
<rect width="65" height="65" fill="white"/>
</clipPath>
</defs>
</svg>
