<svg width="80" height="80" viewBox="0 0 80 80" fill="none" xmlns="http://www.w3.org/2000/svg">
<path d="M67.051 49.9728L51.5784 44.3464C50.4834 43.948 49.2728 44.5133 48.8747 45.6081C48.4764 46.7033 49.0414 47.9139 50.1366 48.3119L65.6091 53.9383C65.8472 54.025 66.0905 54.066 66.33 54.066C67.192 54.066 68.0014 53.5336 68.313 52.6766C68.7109 51.5817 68.146 50.3711 67.051 49.9728Z" fill="#CDB854"/>
<path d="M51.5784 44.3464C50.4834 43.948 49.2728 44.5133 48.8747 45.6081C48.4764 46.7033 49.0414 47.9139 50.1366 48.3119L58.8666 51.4864L59.8713 47.3617L51.5784 44.3464Z" fill="#D59B26"/>
<path d="M34.681 78.6809C22.6591 78.6809 12.8788 68.9004 12.8788 56.8787C12.8788 52.4524 15.181 46.9129 19.9039 39.9996C15.181 33.0862 12.8788 27.5466 12.8788 23.1205C12.8788 11.0987 22.6593 1.31836 34.681 1.31836C46.7027 1.31836 56.4832 11.0988 56.4832 23.1205C56.4832 27.5466 54.181 33.086 49.4582 39.9996C54.181 46.9132 56.4832 52.4527 56.4832 56.8787C56.4832 68.9006 46.7028 78.6809 34.681 78.6809ZM34.681 13.9776C29.6396 13.9776 25.5382 18.079 25.5382 23.1204C25.5382 24.4188 27.0582 28.6326 32.7552 36.189C34.4466 38.4324 34.4466 41.5663 32.7552 43.8101C27.0583 51.3665 25.5383 55.5801 25.5383 56.8787C25.5383 61.9201 29.6397 66.0215 34.6811 66.0215C39.7225 66.0215 43.8239 61.9201 43.8239 56.8787C43.8239 55.5802 42.3039 51.3663 36.6069 43.8101C34.9157 41.5663 34.9157 38.4327 36.6068 36.1893C42.3039 28.6326 43.8239 24.419 43.8239 23.1204C43.8239 18.0791 39.7224 13.9776 34.681 13.9776Z" fill="#E17C1A"/>
<path d="M52.2634 23.1214C52.2634 13.4264 44.3761 5.53906 34.6811 5.53906C24.9861 5.53906 17.0988 13.4266 17.0988 23.1214C17.0988 27.0866 19.7806 32.7611 25.0731 40.0005C19.7806 47.2398 17.0988 52.9144 17.0988 56.8795C17.0988 66.5745 24.9863 74.4619 34.6811 74.4619C44.3763 74.4619 52.2634 66.5744 52.2634 56.8795C52.2634 52.9144 49.5816 47.2398 44.2891 40.0005C49.5816 32.7611 52.2634 27.0866 52.2634 23.1214ZM48.0436 56.8795C48.0436 64.2478 42.0491 70.2422 34.6809 70.2422C27.3127 70.2422 21.3183 64.2478 21.3183 56.8795C21.3183 53.7142 24.1833 48.1708 29.3856 41.2706C29.9525 40.5188 29.9525 39.4822 29.3856 38.7303C24.1833 31.8302 21.3183 26.2867 21.3183 23.1214C21.3183 15.7531 27.3127 9.75875 34.6809 9.75875C42.0491 9.75875 48.0436 15.7531 48.0436 23.1214C48.0436 26.2867 45.1786 31.8302 39.9763 38.7303C39.4094 39.4822 39.4094 40.5188 39.9763 41.2706C45.1786 48.1708 48.0436 53.7142 48.0436 56.8795Z" fill="#CDB854"/>
<path d="M19.9041 40.0001C18.1802 42.5235 16.7803 44.863 15.6958 47.033H30.4335C31.1171 46.0352 31.8871 44.9621 32.7553 43.8105C33.6196 42.6643 34.0394 41.2857 34.0205 39.9121H19.8447C19.8644 39.9415 19.8838 39.9705 19.9041 40.0001Z" fill="#CA4600"/>
<path d="M49.5174 39.9121H35.3417C35.3229 41.2857 35.7426 42.6643 36.6067 43.8105C37.4749 44.9623 38.2449 46.0351 38.9285 47.033H53.6662C52.5815 44.863 51.1818 42.5235 49.4579 40.0001C49.4781 39.9705 49.4974 39.9415 49.5174 39.9121Z" fill="#CA4600"/>
<path d="M25.0729 40.0001C23.2165 42.5393 21.6829 44.8852 20.4719 47.033H25.3836C26.5027 45.2493 27.8402 43.3204 29.3857 41.2702C29.6877 40.8698 29.8272 40.3884 29.8072 39.9121H25.0091C25.0307 39.9415 25.0513 39.9705 25.0729 40.0001Z" fill="#D59B26"/>
<path d="M44.353 39.9121H39.5548C39.535 40.3882 39.6744 40.8696 39.9764 41.2702C41.5219 43.3204 42.8594 45.2493 43.9784 47.033H48.8901C47.6792 44.8852 46.1455 42.5393 44.2892 40.0001C44.3108 39.9705 44.3316 39.9415 44.353 39.9121Z" fill="#D59B26"/>
<path d="M52.9668 37.8906H16.3954C15.2302 37.8906 14.2855 38.8353 14.2855 40.0005C14.2855 41.1656 15.2302 42.1103 16.3954 42.1103H52.9668C54.1321 42.1103 55.0766 41.1656 55.0766 40.0005C55.0766 38.8353 54.1321 37.8906 52.9668 37.8906Z" fill="#CDB854"/>
<path d="M20.615 40.0005C20.615 38.8353 21.5597 37.8906 22.7248 37.8906H16.3951C15.23 37.8906 14.2853 38.8353 14.2853 40.0005C14.2853 41.1656 15.23 42.1103 16.3951 42.1103H22.7248C21.5597 42.1103 20.615 41.1656 20.615 40.0005Z" fill="#D59B26"/>
<path d="M55.7799 29.8018H13.5821C12.4654 29.8018 11.5601 30.7071 11.5601 31.8238C11.5601 32.9405 12.4654 33.8458 13.5821 33.8458H55.7799C56.8968 33.8458 57.8019 32.9405 57.8019 31.8238C57.8019 30.7071 56.8968 29.8018 55.7799 29.8018Z" fill="#CDB854"/>
<path d="M17.8019 31.8238C17.8019 30.7071 18.7072 29.8018 19.824 29.8018H13.5821C12.4654 29.8018 11.5601 30.7071 11.5601 31.8238C11.5601 32.9405 12.4654 33.8458 13.5821 33.8458H19.8238C18.7072 33.8457 17.8019 32.9404 17.8019 31.8238Z" fill="#D59B26"/>
<path d="M55.7799 33.8457H13.5821C12.4654 33.8457 11.5601 34.751 11.5601 35.8677C11.5601 36.9845 12.4654 37.8898 13.5821 37.8898H55.7799C56.8968 37.8898 57.8019 36.9845 57.8019 35.8677C57.8019 34.751 56.8968 33.8457 55.7799 33.8457Z" fill="#E17C1A"/>
<path d="M17.8019 35.8677C17.8019 34.751 18.7072 33.8457 19.824 33.8457H13.5821C12.4654 33.8457 11.5601 34.751 11.5601 35.8677C11.5601 36.9845 12.4654 37.8898 13.5821 37.8898H19.8238C18.7072 37.8898 17.8019 36.9845 17.8019 35.8677Z" fill="#CA4600"/>
<path d="M67.5016 48.7334L53.3515 43.588C53.3296 43.58 53.3077 43.5744 53.2857 43.5678C53.2563 43.5175 53.2271 43.4673 53.1974 43.417C54.9801 43.2975 56.3951 41.8128 56.3951 40.0003C56.3951 39.7122 56.3555 39.4338 56.2882 39.1663C57.8891 38.9202 59.1204 37.5372 59.1204 35.8684C59.1204 35.1081 58.8621 34.4086 58.4327 33.8464C58.8622 33.2842 59.1204 32.5847 59.1204 31.8244C59.1204 30.3617 58.174 29.1184 56.8624 28.6673C57.4854 26.6805 57.8016 24.8194 57.8016 23.1211C57.8016 17.8961 56.094 12.9627 52.8636 8.85391C52.4135 8.28141 51.5846 8.1825 51.0121 8.63234C50.4396 9.0825 50.3404 9.91141 50.7905 10.4841C53.6518 14.1234 55.1643 18.4933 55.1643 23.1212C55.1643 24.7183 54.8185 26.5214 54.1441 28.4839H52.4726C53.2091 26.4856 53.5818 24.6866 53.5818 23.1212C53.5818 12.6991 45.1027 4.22016 34.6807 4.22016C24.2585 4.22016 15.7796 12.6991 15.7796 23.1212C15.7796 24.6866 16.1524 26.4855 16.8886 28.4839H15.2177C14.5435 26.5212 14.1975 24.718 14.1975 23.1212C14.1975 11.8267 23.3865 2.63766 34.6811 2.63766C39.328 2.63766 43.7119 4.16141 47.3591 7.04375C47.9304 7.49516 48.7599 7.39844 49.2113 6.82672C49.6629 6.25531 49.566 5.42609 48.9946 4.97438C44.8769 1.72016 39.9274 0 34.681 0C21.9322 0 11.5602 10.372 11.5602 23.1209C11.5602 24.8192 11.8763 26.6803 12.4994 28.6672C11.188 29.1183 10.2415 30.3616 10.2415 31.8242C10.2415 32.5845 10.4997 33.2841 10.9291 33.8462C10.4996 34.4084 10.2415 35.108 10.2415 35.8683C10.2415 37.537 11.4727 38.9198 13.0736 39.1661C13.0063 39.4337 12.9668 39.712 12.9668 40.0002C12.9668 41.813 14.3818 43.2975 16.1647 43.4172C13.0699 48.6872 11.5602 53.1056 11.5602 56.8794C11.5602 69.628 21.9322 80 34.681 80C47.4301 80 57.8019 69.628 57.8019 56.8791C57.8019 55.4373 57.5813 53.9014 57.1368 52.2605L65.1579 55.1772C66.9127 55.8158 68.9143 54.8806 69.5521 53.1269C70.198 51.3503 69.2783 49.3794 67.5016 48.7334ZM12.8788 31.8242C12.8788 31.4364 13.1943 31.1209 13.5821 31.1209H32.7469C33.4752 31.1209 34.0657 30.5305 34.0657 29.8022C34.0657 29.0739 33.4752 28.4834 32.7469 28.4834H29.1497C27.3421 25.3509 26.8568 23.608 26.8568 23.1208C26.8568 18.8064 30.3666 15.2966 34.681 15.2966C38.9952 15.2966 42.5052 18.8064 42.5052 23.1208C42.5052 23.613 42.0166 25.3564 40.2119 28.4834H38.1976C37.4691 28.4834 36.8788 29.0739 36.8788 29.8022C36.8788 30.5305 37.4691 31.1209 38.1976 31.1209H55.7799C56.1677 31.1209 56.4832 31.4364 56.4832 31.8242C56.4832 32.212 56.1677 32.5275 55.7799 32.5275H13.5821C13.1943 32.5275 12.8788 32.212 12.8788 31.8242ZM22.6371 23.1209C22.6371 16.4798 28.04 11.077 34.681 11.077C41.3219 11.077 46.7249 16.48 46.7249 23.1209C46.7249 24.0019 46.4241 25.6464 45.0097 28.4836H43.2271C44.4563 26.1583 45.1426 24.2531 45.1426 23.1209C45.1426 17.3523 40.4496 12.6594 34.681 12.6594C28.9124 12.6594 24.2194 17.3523 24.2194 23.1209C24.2194 24.2506 24.908 26.16 26.1357 28.4836H24.3529C22.9415 25.652 22.6371 24.0059 22.6371 23.1209ZM18.4172 23.1209C18.4172 14.153 25.713 6.85719 34.681 6.85719C43.649 6.85719 50.9447 14.153 50.9447 23.1209C50.9447 24.5986 50.5054 26.4017 49.6401 28.4836H47.9268C48.8786 26.3536 49.3622 24.553 49.3622 23.1209C49.3622 15.0256 42.7761 8.43969 34.681 8.43969C26.5858 8.43969 19.9997 15.0258 19.9997 23.1209C19.9997 24.5534 20.4824 26.3531 21.4346 28.4836H19.7215C18.8561 26.4016 18.4172 24.5989 18.4172 23.1209ZM13.5821 35.1648H55.7799C56.1677 35.1648 56.4832 35.4803 56.4832 35.8681C56.4832 36.2559 56.1677 36.5714 55.7799 36.5714H52.9668H16.3954H13.5821C13.1943 36.5714 12.8788 36.2559 12.8788 35.8681C12.8788 35.4803 13.1943 35.1648 13.5821 35.1648ZM15.6041 40C15.6041 39.5637 15.9591 39.2088 16.3954 39.2088H52.9668C53.403 39.2088 53.758 39.5637 53.758 40C53.758 40.4363 53.403 40.7912 52.9668 40.7912H16.3954C15.9591 40.7912 15.6041 40.4363 15.6041 40ZM26.1908 43.4286C23.123 47.8392 19.9997 53.2267 19.9997 56.8792C19.9997 64.9745 26.5858 71.5605 34.681 71.5605C42.7761 71.5605 49.3622 64.9744 49.3622 56.8792C49.3622 53.2202 46.2241 47.8186 43.1708 43.4286H45.0918C48.9754 49.1692 50.9447 53.6947 50.9447 56.8792C50.9447 65.8472 43.649 73.143 34.681 73.143C25.713 73.143 18.4172 65.847 18.4172 56.8791C18.4172 53.6944 20.3866 49.1691 24.2702 43.4284H26.1908V43.4286ZM35.554 44.6045C41.2565 52.1681 42.5052 56.0295 42.5052 56.8794C42.5052 61.1938 38.9952 64.7036 34.681 64.7036C30.3666 64.7036 26.8568 61.1938 26.8568 56.8794C26.8568 56.0297 28.1057 52.1683 33.808 44.6045C34.0855 44.2366 34.3272 43.8411 34.5335 43.4286H34.8271C35.0332 43.8409 35.2768 44.2364 35.554 44.6045ZM24.2194 56.8791C24.2194 62.6477 28.9124 67.3406 34.681 67.3406C40.4496 67.3406 45.1426 62.6477 45.1426 56.8791C45.1426 55.0116 43.2482 50.5073 37.9677 43.4284H39.934C44.2507 49.362 46.7252 54.2606 46.7252 56.8791C46.7252 63.5202 41.3222 68.923 34.6813 68.923C28.0404 68.923 22.6374 63.52 22.6374 56.8791C22.6374 54.2586 25.1105 49.3648 29.4288 43.4284H31.3947C26.1136 50.5078 24.2194 55.0117 24.2194 56.8791ZM34.681 77.3627C23.3865 77.3627 14.1974 68.1738 14.1974 56.8791C14.1974 53.2852 15.848 48.8816 19.2393 43.4284H21.1104C17.5271 48.9958 15.7797 53.4077 15.7797 56.8791C15.7797 67.3013 24.2586 75.7802 34.6808 75.7802C45.1029 75.7802 53.5819 67.3013 53.5819 56.8791C53.5819 53.4078 51.8346 48.9958 48.2513 43.4284H50.1222C53.514 48.8833 55.1644 53.2852 55.1644 56.8791C55.1646 68.1738 45.9757 77.3627 34.681 77.3627ZM67.0733 52.2259C66.9261 52.6311 66.4644 52.8462 66.0596 52.6991C66.0596 52.6991 56.1163 49.0911 56.0479 49.0781C55.7779 48.4166 55.4757 47.7391 55.1426 47.0456L66.6004 51.2119C67.0102 51.3611 67.2226 51.8159 67.0733 52.2259Z" fill="black"/>
</svg>
