<svg width="60" height="60" viewBox="0 0 60 60" fill="none" xmlns="http://www.w3.org/2000/svg">
<path d="M45.1395 36.3321L45.7558 39.418C46.7259 44.2741 45.4812 49.2555 42.3411 53.0848C39.2009 56.9141 34.5597 59.1104 29.6075 59.1104H27.9281C18.8481 59.1104 11.4609 51.7232 11.4609 42.6431V15.5037C11.4609 7.44495 18.0172 0.888672 26.0758 0.888672C33.0202 0.888672 39.0478 5.83128 40.4076 12.6413L40.7819 15.1983L36.2664 16.1155L35.758 13.5699C34.8391 8.9692 30.7672 5.6303 26.0758 5.6303C20.6317 5.6303 16.2026 10.0595 16.2026 15.5037V42.6433C16.2026 49.1088 21.4626 54.3688 27.928 54.3688H29.6074C33.1337 54.3688 36.4383 52.8051 38.6743 50.0784C40.9101 47.3518 41.7964 43.8048 41.1058 40.3469L40.4919 37.2765L45.1395 36.3321Z" fill="#E0E0E2"/>
<path d="M45.7307 39.3662L45.1145 36.2803L40.467 37.2245L41.081 40.2949C41.1795 40.7878 41.2447 41.2825 41.2797 41.7765L45.9546 40.8247C45.9016 40.3382 45.8278 39.8517 45.7307 39.3662Z" fill="#7A797E"/>
<path d="M34.955 22.6981L33.7229 16.6327L43.303 14.6865L44.5371 20.762L46.333 29.6029L47.5986 35.8331L40.492 37.2767L38.0184 37.7791L36.7529 31.549L34.955 22.6981Z" fill="#AEADB1"/>
<path d="M46.5339 29.5625L36.3343 31.6345C34.9795 31.9097 33.6581 31.0345 33.3829 29.6797L32.5836 25.7449C32.3083 24.3901 33.1836 23.0687 34.5384 22.7935L44.738 20.7215C46.0928 20.4462 47.4142 21.3214 47.6894 22.6763L48.4887 26.6111C48.7638 27.966 47.8887 29.2873 46.5339 29.5625Z" fill="#7A797E"/>
<path d="M47.3675 30.2292C48.817 29.6109 49.6855 28.0371 49.3598 26.4337L48.5605 22.499C48.3802 21.611 47.8648 20.8464 47.1094 20.3461C46.5478 19.9742 45.9036 19.7818 45.2452 19.7814L44.8024 17.6018V17.6015L44.1744 14.5097C44.0767 14.0284 43.6075 13.7181 43.1262 13.8153L41.6105 14.1232L41.2799 12.4676C39.8371 5.24331 33.443 0 26.076 0C17.5272 0 10.572 6.95506 10.572 15.5041V42.6437C10.572 52.214 18.3579 60 27.9282 60H29.6076C34.8271 60 39.7188 57.6852 43.0287 53.6492C46.3383 49.6131 47.6501 44.3629 46.6276 39.2445L46.1849 37.0277L47.7758 36.7045C48.0069 36.6575 48.2098 36.5207 48.3401 36.3242C48.4704 36.1275 48.517 35.8872 48.4702 35.6562L47.3675 30.2292ZM39.7951 38.3255L40.2342 40.5213C40.8724 43.7169 40.0534 46.9949 37.987 49.5149C35.9207 52.0349 32.8666 53.4802 29.6076 53.4802H27.9282C21.9529 53.4802 17.0917 48.619 17.0917 42.6436V15.5041C17.0917 10.5501 21.122 6.51983 26.0759 6.51983C30.3448 6.51983 34.05 9.55815 34.8862 13.7443L35.2211 15.4209L33.5459 15.7612C33.0646 15.8591 32.7538 16.3283 32.8517 16.8095L33.9153 22.0452C32.3405 22.5957 31.371 24.2418 31.7121 25.9214L32.5115 29.856C32.8377 31.4623 34.2555 32.5734 35.8348 32.5734C35.907 32.5734 35.9795 32.5702 36.0523 32.5654L37.1473 37.9559C37.1943 38.187 37.331 38.3898 37.5276 38.5202C37.6742 38.6172 37.8453 38.6679 38.0186 38.6679C38.0776 38.6679 38.1369 38.662 38.1955 38.6501L39.7951 38.3255ZM43.489 20.0677L35.6514 21.6598L35.3993 20.4191L43.2368 18.827L43.489 20.0677ZM37.8013 32.2434L45.6388 30.6513L45.9131 32.0016L38.0756 33.5937L37.8013 32.2434ZM46.818 22.8529L47.6174 26.7876C47.7944 27.6598 47.2291 28.5137 46.3568 28.6908L36.1572 30.7628C35.7348 30.8487 35.3042 30.7648 34.9446 30.5267C34.5852 30.2887 34.3399 29.9248 34.2542 29.5022L33.4548 25.5676C33.2778 24.6953 33.8432 23.8416 34.7154 23.6643L44.915 21.5923C45.0232 21.5703 45.1318 21.5595 45.2397 21.5595C45.5534 21.5595 45.8603 21.6513 46.1277 21.8285C46.487 22.0667 46.7322 22.4305 46.818 22.8529ZM42.883 17.0844L35.0455 18.6765L34.7713 17.3268L36.4398 16.9879C36.4402 16.9879 36.4404 16.9878 36.4408 16.9878C36.4411 16.9877 36.4415 16.9876 36.4418 16.9876L42.6089 15.7349L42.883 17.0844ZM44.884 39.5927C45.8014 44.1866 44.6243 48.899 41.6536 52.5216C38.6829 56.1442 34.2924 58.2218 29.6077 58.2218H27.9283C19.3386 58.2218 12.3502 51.2336 12.3502 42.6436V15.5041C12.3502 7.93557 18.5075 1.7782 26.076 1.7782C32.5981 1.7782 38.2587 6.42022 39.536 12.8157L39.8678 14.4771L36.9637 15.0671L36.6299 13.3961C35.6283 8.38147 31.1898 4.74175 26.0759 4.74175C20.1414 4.74175 15.3137 9.56975 15.3137 15.5041V42.6437C15.3137 49.5994 20.9725 55.2584 27.9282 55.2584H29.6076C33.4012 55.2584 36.9564 53.576 39.362 50.6426C41.7674 47.7092 42.7208 43.8932 41.9777 40.173L41.5376 37.9716L44.4423 37.3815L44.884 39.5927ZM44.9654 35.4608L38.7129 36.7308L38.4295 35.3362L46.2671 33.7441L46.5505 35.1387L44.9654 35.4608Z" fill="black"/>
</svg>
