<svg width="75" height="75" viewBox="0 0 75 75" fill="none" xmlns="http://www.w3.org/2000/svg">
<path fill-rule="evenodd" clip-rule="evenodd" d="M9.77516e-06 20C9.77516e-06 8.95432 8.95431 9.77516e-06 20 9.77516e-06H55C66.0457 9.77516e-06 75 8.95431 75 20V55C75 66.0457 66.0457 75 55 75H20C8.95432 75 9.77516e-06 66.0457 9.77516e-06 55V20ZM58.6635 24.5049C60.2229 24.5049 60.5571 25.2846 60.2229 26.3984C59.6653 29.088 54.6457 36.3554 53.4826 38.0394V38.0394C53.3247 38.268 53.1569 38.5121 53.0164 38.7518C52.6414 39.3916 52.5802 39.8413 53.2427 40.693C53.5082 41.0913 54.1129 41.6834 54.8042 42.3603C55.4662 43.0086 56.2077 43.7347 56.8071 44.443C59.0348 46.9678 60.7056 49.0841 61.1882 50.5321C61.6338 51.9801 60.8912 52.7227 59.4061 52.7227H54.208C52.829 52.7227 52.1246 51.9386 50.6126 50.2554C49.967 49.5368 49.1743 48.6543 48.1189 47.5989C45.0373 44.6286 43.7378 44.2574 42.958 44.2574C41.8813 44.2574 41.5843 44.5544 41.5843 46.0395V50.7178C41.5843 51.9801 41.1759 52.7227 37.8714 52.7227C32.3764 52.7227 26.3244 49.3811 22.0175 43.2178C15.5571 34.1955 13.812 27.3638 13.812 25.99C13.812 25.2103 14.109 24.5049 15.5942 24.5049H20.7922C22.1288 24.5049 22.6115 25.0989 23.1313 26.4727C25.6561 33.8984 29.963 40.3588 31.708 40.3588C32.3764 40.3588 32.6734 40.0618 32.6734 38.391V30.7425C32.5365 28.5972 31.7823 27.6583 31.2214 26.9601C30.8698 26.5225 30.5942 26.1794 30.5942 25.693C30.5942 25.1361 31.114 24.5049 31.9308 24.5049H40.0991C41.213 24.5049 41.5843 25.0618 41.5843 26.3984V36.7202C41.5843 37.8341 42.067 38.2054 42.4011 38.2054C43.0694 38.2054 43.5892 37.8341 44.8145 36.6088C48.2155 32.8374 50.7003 27.1726 51.1334 26.1508C51.1788 26.0436 51.2222 25.9359 51.2731 25.8311C51.6196 25.117 52.2204 24.5049 53.4655 24.5049H58.6635Z" fill="white"/>
</svg>
