<svg width="80" height="80" viewBox="0 0 80 80" fill="none" xmlns="http://www.w3.org/2000/svg">
<g clip-path="url(#clip0_481_1042)">
<path d="M44.0845 39.7201C44.0845 39.7201 42.0626 52.6187 44.712 73.0471H35.6321C32.9827 52.6186 35.0046 39.7201 35.0046 39.7201V34.373H44.192L44.0845 39.7201Z" fill="#D8D7D9"/>
<g opacity="0.22">
<path d="M44.1551 38.85L44.2626 33.5029H35.0752V38.85C35.0752 38.85 34.6614 41.4897 34.4536 46.2714H43.5335C43.7415 41.4895 44.1551 38.85 44.1551 38.85Z" fill="#59575C"/>
</g>
<path d="M58.3097 39.72C58.3097 39.72 60.3316 52.6186 57.6822 73.047H48.6023C51.2517 52.6185 49.2298 39.72 49.2298 39.72V35.1279H58.6264L58.3097 39.72Z" fill="#7A797E"/>
<path d="M58.3094 39.6917L58.6258 35.0996H49.2292V39.6917C49.2292 39.6917 49.6792 42.5642 49.8764 47.7431H58.9563C58.7594 42.5642 58.3094 39.6917 58.3094 39.6917Z" fill="#59575C"/>
<path d="M76.1168 38.8756V19.8893C76.1168 19.8893 63.2786 -6.73659 27.0066 3.55455C4.20167 10.0249 3.88354 36.118 3.88354 36.118H13.1245C15.7572 36.118 18.3808 36.4091 20.953 36.9705C25.4157 37.9448 34.1841 39.4061 46.6297 39.4061C65.2977 39.4061 66.2194 48.175 76.1168 38.8756Z" fill="#D55276"/>
<path opacity="0.2" d="M66.6618 8.95996C64.734 15.0669 60.8312 21.2986 53.3041 25.7238C29.4684 39.7371 12.8196 31.3593 5.63503 25.895C3.9383 31.6196 3.8833 36.1184 3.8833 36.1184H13.1243C15.7569 36.1184 18.3805 36.4094 20.9527 36.9709C25.4154 37.9452 34.1839 39.4065 46.6294 39.4065C65.2978 39.4065 66.2195 48.1754 76.1167 38.8762V19.8897C76.1167 19.8897 73.3229 14.0972 66.6618 8.95996Z" fill="#782A40"/>
<path d="M20.3633 29.7451C21.634 29.7451 22.6641 28.715 22.6641 27.4443C22.6641 26.1737 21.634 25.1436 20.3633 25.1436C19.0926 25.1436 18.0625 26.1737 18.0625 27.4443C18.0625 28.715 19.0926 29.7451 20.3633 29.7451Z" fill="#782A40"/>
<path d="M44.7113 72.6035H35.5754V78.8085H44.7113V72.6035Z" fill="#7A797E"/>
<path d="M57.7381 72.6035H48.6023V78.8085H57.7381V72.6035Z" fill="#7A797E"/>
<path d="M77.1905 19.3716C77.054 19.0884 73.7536 12.3693 65.8428 6.88347C61.2011 3.66424 55.9308 1.54688 50.1779 0.589537C43.031 -0.599686 35.1252 0.0121911 26.6811 2.40783C16.9878 5.15815 9.76261 11.8708 5.78619 21.8202C2.8079 29.2726 2.69477 35.828 2.69149 36.1033C2.68774 36.422 2.81149 36.7291 3.0354 36.9555C3.2593 37.1823 3.56477 37.3097 3.88337 37.3097H13.1243C15.6423 37.3097 18.1906 37.5873 20.6984 38.1347C23.3056 38.7041 27.7366 39.5114 33.7543 40.0447C33.41 42.6302 32.0947 54.6087 34.3833 72.6772V78.8078C34.3833 79.4663 34.9171 79.9999 35.5754 79.9999H44.7118C45.3703 79.9999 45.9038 79.4663 45.9038 78.8078V72.6031C45.9038 72.4253 45.8638 72.2569 45.794 72.1053C43.674 55.1391 44.819 43.458 45.1706 40.5902C45.6518 40.5945 46.1368 40.5978 46.6293 40.5978C47.1501 40.5978 47.6546 40.6053 48.1467 40.6183C48.5025 43.5341 49.6329 55.1941 47.5199 72.1053C47.4499 72.2569 47.4101 72.4251 47.4101 72.6031V78.8078C47.4101 79.4663 47.9437 79.9999 48.6021 79.9999H57.7384C58.3969 79.9999 58.9305 79.4663 58.9305 78.8078V72.6769C60.7966 57.9445 60.2669 47.2604 59.8206 42.416C60.6044 42.6425 61.3394 42.871 62.04 43.0891C64.257 43.7792 66.1067 44.355 67.9746 44.355C70.5786 44.355 73.2172 43.2352 76.9326 39.7444C77.1724 39.5191 77.3083 39.2047 77.3083 38.8756V19.8896C77.309 19.7102 77.2685 19.5334 77.1905 19.3716ZM36.7676 77.6163V74.2391H43.5199V77.6163H36.7676ZM43.3077 71.4115H36.6291C34.5274 54.004 35.8621 42.3066 36.1363 40.2345C38.1905 40.3802 40.4045 40.4906 42.7704 40.5495C42.3681 43.8663 41.3516 55.0169 43.3077 71.4115ZM49.7945 77.6163V74.2391H56.5467V77.6163H49.7945ZM56.6853 71.4115H50.0068C51.9273 55.3152 50.9826 44.2739 50.5667 40.7385C53.2304 40.9347 55.4414 41.3185 57.3555 41.7675C57.7736 45.8775 58.4801 56.5516 56.6853 71.4115ZM62.6427 40.6761C62.652 40.6792 62.6698 40.685 62.6955 40.695C62.6781 40.6884 62.6605 40.682 62.6427 40.6761ZM74.9249 38.3558C69.9349 42.9247 67.7949 42.3811 63.0425 40.9042C62.9431 40.8188 62.8291 40.7475 62.7009 40.6975C62.0552 40.423 60.6698 39.7367 59.0201 38.7638C58.9536 38.7144 58.882 38.6719 58.8064 38.637C54.6912 36.1817 49.0951 32.019 49.0951 28.0023C49.0951 26.9586 49.4534 26.1771 50.2225 25.5435C53.3422 22.9726 61.8831 23.9409 64.9106 24.5307C65.5564 24.6584 66.1828 24.2354 66.3091 23.5895C66.4355 22.9434 66.0141 22.3171 65.3678 22.191C64.8788 22.0951 53.3336 19.8931 48.7078 23.7024C47.3829 24.7934 46.711 26.2403 46.711 28.0025C46.711 31.4026 49.269 34.9512 54.3137 38.5492C54.4431 38.6416 54.5725 38.7323 54.7017 38.8223C52.4181 38.4589 49.7636 38.2144 46.6295 38.2144C34.1076 38.2144 25.3267 36.7056 21.207 35.8062C18.5325 35.2223 15.8131 34.9262 13.1245 34.9262H5.14369C5.31712 32.7411 5.92385 27.8703 8.0287 22.634C11.7786 13.3051 18.2731 7.27191 27.3321 4.70143C36.3837 2.13345 44.6054 1.6811 51.9176 3.32986C47.7124 2.87095 43.6245 3.10236 39.6794 4.02939C33.1007 5.57549 28.4247 8.64801 25.0861 11.1519C20.4928 14.5968 17.9173 13.8449 17.8919 13.8371L17.9201 13.8471L17.0889 16.0816C17.2225 16.1313 17.7537 16.3049 18.6456 16.3049C20.217 16.3049 22.9083 15.7657 26.5166 13.0594C30.8744 9.79082 44.1199 -0.14156 65.7606 9.77254C71.4841 14.1362 74.3319 19.0726 74.9249 20.1795V38.3558Z" fill="black"/>
<path d="M20.3627 23.9512C18.4368 23.9512 16.8699 25.5181 16.8699 27.444C16.8699 29.3699 18.4366 30.9371 20.3627 30.9371C22.2888 30.9371 23.8555 29.3703 23.8555 27.4442C23.8555 25.5181 22.2886 23.9512 20.3627 23.9512ZM20.3627 28.5529C19.7514 28.5529 19.2539 28.0554 19.2539 27.444C19.2539 26.8326 19.7513 26.3352 20.3627 26.3352C20.9741 26.3352 21.4715 26.8326 21.4715 27.444C21.4715 28.0554 20.9741 28.5529 20.3627 28.5529Z" fill="black"/>
</g>
<defs>
<clipPath id="clip0_481_1042">
<rect width="80" height="80" fill="white"/>
</clipPath>
</defs>
</svg>
