<svg width="80" height="80" viewBox="0 0 80 80" fill="none" xmlns="http://www.w3.org/2000/svg">
<path d="M76.0752 68.0583H3.92487C2.44894 68.0583 1.25269 66.862 1.25269 65.3861V14.6136C1.25269 13.1377 2.44894 11.9414 3.92487 11.9414H76.0752C77.5511 11.9414 78.7474 13.1377 78.7474 14.6136V65.3861C78.7474 66.862 77.5511 68.0583 76.0752 68.0583Z" fill="#38ABEC"/>
<path d="M5.26097 65.3861V14.6136C5.26097 13.1378 6.45753 11.9414 7.93315 11.9414H3.92487C2.44909 11.9414 1.25269 13.138 1.25269 14.6136V65.3861C1.25269 66.8619 2.44925 68.0583 3.92487 68.0583H7.93315C6.45753 68.0583 5.26097 66.8619 5.26097 65.3861Z" fill="#3E92DD"/>
<path d="M70.7307 61.3777H9.26944C8.53163 61.3777 7.93335 60.7794 7.93335 60.0416V19.9582C7.93335 19.2204 8.53163 18.6221 9.26944 18.6221H70.7308C71.4687 18.6221 72.0669 19.2204 72.0669 19.9582V60.0416C72.0669 60.7796 71.4687 61.3777 70.7307 61.3777Z" fill="#E7EBEC"/>
<path d="M11.9416 60.0416V19.9582C11.9416 19.2204 12.5399 18.6221 13.2777 18.6221H9.26944C8.53163 18.6221 7.93335 19.2204 7.93335 19.9582V60.0416C7.93335 60.7794 8.53163 61.3777 9.26944 61.3777H13.2777C12.5399 61.3777 11.9416 60.7796 11.9416 60.0416Z" fill="#CED7D9"/>
<path d="M29.1832 36.9316L24.0684 38.4916L29.5974 54.6973L30.8321 50.0407L34.6555 52.9715L29.1832 36.9316Z" fill="#FDD349"/>
<path d="M21.4224 36.9316L26.5373 38.4916L21.0082 54.6973L19.7735 50.0407L15.95 52.9715L21.4224 36.9316Z" fill="#FDD349"/>
<path d="M25.3028 44.0084C30.4682 44.0084 34.6556 39.821 34.6556 34.6555C34.6556 29.4901 30.4682 25.3027 25.3028 25.3027C20.1373 25.3027 15.95 29.4901 15.95 34.6555C15.95 39.821 20.1373 44.0084 25.3028 44.0084Z" fill="#FF5800"/>
<path d="M25.3025 39.9996C28.2542 39.9996 30.6471 37.6068 30.6471 34.6551C30.6471 31.7034 28.2542 29.3105 25.3025 29.3105C22.3508 29.3105 19.958 31.7034 19.958 34.6551C19.958 37.6068 22.3508 39.9996 25.3025 39.9996Z" fill="#FDD349"/>
<path d="M27.975 38.6639C25.0233 38.6639 22.6304 36.2711 22.6304 33.3194C22.6304 31.7695 23.2908 30.3745 24.3447 29.3984C21.8504 29.85 19.9583 32.0311 19.9583 34.6556C19.9583 37.6073 22.3511 40.0002 25.3028 40.0002C26.7047 40.0002 27.9797 39.4597 28.9329 38.5767C28.622 38.6328 28.3022 38.6639 27.975 38.6639Z" fill="#FCB82D"/>
<path d="M62.0459 29.3112H44.6763C43.5695 29.3112 42.6721 28.4138 42.6721 27.307C42.6721 26.2001 43.5695 25.3027 44.6763 25.3027H62.0459C63.1527 25.3027 64.0501 26.2001 64.0501 27.307C64.0501 28.4138 63.1527 29.3112 62.0459 29.3112Z" fill="#6D888E"/>
<path d="M76.0752 10.6885H3.92484C1.76062 10.6885 0 12.4491 0 14.6133V65.3858C0 67.55 1.76062 69.3107 3.92484 69.3107H18.6778C19.3697 69.3107 19.9305 68.75 19.9305 68.058C19.9305 67.366 19.3698 66.8054 18.6778 66.8054H3.92484C3.14203 66.8054 2.50516 66.1685 2.50516 65.3857V14.6133C2.50516 13.8305 3.14203 13.1936 3.92484 13.1936H76.0752C76.858 13.1936 77.4948 13.8305 77.4948 14.6133V65.3858C77.4948 66.1686 76.858 66.8055 76.0752 66.8055H24.0683C23.3764 66.8055 22.8156 67.3661 22.8156 68.0582C22.8156 68.7502 23.3763 69.3108 24.0683 69.3108H76.0752C78.2394 69.3108 80 67.5502 80 65.386V14.6133C80 12.4491 78.2394 10.6885 76.0752 10.6885Z" fill="black"/>
<path d="M55.9778 17.3691H9.26941C7.84191 17.3691 6.68066 18.5304 6.68066 19.9579V60.0413C6.68066 61.4688 7.84191 62.6301 9.26941 62.6301H70.7308C72.1583 62.6301 73.3196 61.4688 73.3196 60.0413V19.9579C73.3196 18.5304 72.1583 17.3691 70.7308 17.3691H61.378C60.6861 17.3691 60.1253 17.9298 60.1253 18.6218C60.1253 19.3137 60.686 19.8745 61.378 19.8745H70.7308C70.7768 19.8745 70.8143 19.9121 70.8143 19.9579V60.0413C70.8143 60.0873 70.7766 60.1248 70.7308 60.1248H9.26941C9.22348 60.1248 9.18598 60.0871 9.18598 60.0413V19.9579C9.18598 19.912 9.22348 19.8745 9.26941 19.8745H55.9778C56.6697 19.8745 57.2305 19.3138 57.2305 18.6218C57.2305 17.9298 56.6697 17.3691 55.9778 17.3691Z" fill="black"/>
<path d="M15.2192 53.9887C15.6676 54.3107 16.2736 54.3012 16.712 53.9653L19.0442 52.1778L19.7976 55.0182C19.9391 55.5517 20.4133 55.9298 20.9647 55.9489C20.9794 55.9493 20.9941 55.9497 21.0086 55.9497C21.5425 55.9497 22.0203 55.6101 22.1939 55.1015L25.3028 45.989L28.4117 55.1015C28.5853 55.6101 29.0628 55.9497 29.597 55.9497C29.6116 55.9497 29.6262 55.9493 29.6409 55.9489C30.1926 55.9298 30.6667 55.5517 30.808 55.0182L31.5614 52.1778L33.8936 53.9653C34.3341 54.3028 34.9622 54.3062 35.4062 53.9736C35.8358 53.6518 36.0144 53.0747 35.8411 52.5667L32.4125 42.5173C34.5578 40.5753 35.908 37.7701 35.908 34.6553C35.908 28.8075 31.1503 24.0498 25.3025 24.0498C19.4547 24.0498 14.697 28.8075 14.697 34.6553C14.697 37.7701 16.0472 40.5753 18.1926 42.5173L14.7641 52.5667C14.5862 53.0892 14.7708 53.6668 15.2192 53.9887ZM32.1341 49.4606C31.9589 49.3264 31.7855 49.189 31.6083 49.0576C31.2466 48.7892 30.7831 48.7086 30.36 48.8807C29.7136 49.1439 29.6053 49.7801 29.4467 50.3775L27.6136 45.0043C28.5542 44.7943 29.4484 44.4604 30.2772 44.0182L32.1341 49.4606ZM17.2025 34.6553C17.2025 30.1889 20.8362 26.5551 25.3026 26.5551C29.7691 26.5551 33.4028 30.1889 33.4028 34.6553C33.4028 39.1217 29.7691 42.7554 25.3026 42.7554C20.8362 42.7554 17.2025 39.1218 17.2025 34.6553ZM22.9917 45.004L21.1586 50.3772C21.0001 49.7798 20.8919 49.1436 20.2453 48.8804C19.8222 48.7082 19.3587 48.7889 18.997 49.0573C18.8198 49.1889 18.6464 49.3261 18.4712 49.4603L20.3281 44.0179C21.1569 44.4601 22.0509 44.7942 22.9917 45.004Z" fill="black"/>
<path d="M25.3026 41.2527C28.9403 41.2527 31.8996 38.2931 31.8996 34.6556C31.8996 31.0181 28.9401 28.0586 25.3026 28.0586C21.6651 28.0586 18.7056 31.0181 18.7056 34.6556C18.7056 38.2931 21.6651 41.2527 25.3026 41.2527ZM25.3026 30.5638C27.559 30.5638 29.3945 32.3992 29.3945 34.6556C29.3945 36.912 27.559 38.7475 25.3026 38.7475C23.0462 38.7475 21.2107 36.912 21.2107 34.6556C21.2107 32.3992 23.0463 30.5638 25.3026 30.5638Z" fill="black"/>
<path d="M64.0501 36.0752H61.3779C60.686 36.0752 60.1252 36.6358 60.1252 37.3279C60.1252 38.0197 60.6859 38.5805 61.3779 38.5805H64.0501C64.742 38.5805 65.3027 38.0199 65.3027 37.3279C65.3026 36.6358 64.742 36.0752 64.0501 36.0752Z" fill="black"/>
<path d="M42.6721 46.5971H46.6804C47.3722 46.5971 47.933 46.0365 47.933 45.3445C47.933 44.6524 47.3724 44.0918 46.6804 44.0918H42.6721C41.9802 44.0918 41.4194 44.6524 41.4194 45.3445C41.4194 46.0365 41.9802 46.5971 42.6721 46.5971Z" fill="black"/>
<path d="M57.3696 38.5805C58.0615 38.5805 58.6222 38.0199 58.6222 37.3279C58.6222 36.636 58.0616 36.0752 57.3696 36.0752H53.3613C52.6694 36.0752 52.1086 36.6358 52.1086 37.3279C52.1086 38.0197 52.6693 38.5805 53.3613 38.5805H57.3696Z" fill="black"/>
<path d="M42.6721 38.5805H49.3527C50.0446 38.5805 50.6054 38.0199 50.6054 37.3279C50.6054 36.636 50.0447 36.0752 49.3527 36.0752H42.6721C41.9802 36.0752 41.4194 36.6358 41.4194 37.3279C41.4196 38.0199 41.9802 38.5805 42.6721 38.5805Z" fill="black"/>
<path d="M64.0502 44.0918H50.6889C49.9971 44.0918 49.4363 44.6524 49.4363 45.3445C49.4363 46.0365 49.9969 46.5971 50.6889 46.5971H64.0502C64.7421 46.5971 65.3028 46.0365 65.3028 45.3445C65.3028 44.6524 64.7421 44.0918 64.0502 44.0918Z" fill="black"/>
<path d="M62.0459 24.0498H44.6764C42.8806 24.0498 41.4197 25.5109 41.4197 27.3065C41.4197 29.1023 42.8808 30.5632 44.6764 30.5632H62.0459C63.8417 30.5632 65.3026 29.1021 65.3026 27.3065C65.3026 25.5107 63.8417 24.0498 62.0459 24.0498ZM62.0459 28.0581H44.6764C44.262 28.0581 43.9248 27.7209 43.9248 27.3065C43.9248 26.8921 44.262 26.555 44.6764 26.555H62.0459C62.4603 26.555 62.7975 26.8921 62.7975 27.3065C62.7975 27.7209 62.4603 28.0581 62.0459 28.0581Z" fill="black"/>
<path d="M42.6721 54.6137H53.361C54.0529 54.6137 54.6137 54.0531 54.6137 53.3611C54.6137 52.6692 54.053 52.1084 53.361 52.1084H42.6721C41.9802 52.1084 41.4194 52.669 41.4194 53.3611C41.4196 54.0531 41.9802 54.6137 42.6721 54.6137Z" fill="black"/>
<path d="M64.0502 52.1084H57.3696C56.6777 52.1084 56.1169 52.669 56.1169 53.3611C56.1169 54.0529 56.6776 54.6137 57.3696 54.6137H64.0502C64.7421 54.6137 65.3029 54.0531 65.3029 53.3611C65.3027 52.669 64.7421 52.1084 64.0502 52.1084Z" fill="black"/>
</svg>
