<svg width="100" height="100" viewBox="0 0 100 100" fill="none" xmlns="http://www.w3.org/2000/svg">
<path d="M83.8137 62.4655L64.4731 55.4325C63.1043 54.9345 61.591 55.6411 61.0934 57.0097C60.5955 58.3786 61.3018 59.8919 62.6707 60.3894L82.0113 67.4224C82.309 67.5308 82.6131 67.582 82.9125 67.582C83.9901 67.582 85.0018 66.9165 85.3912 65.8452C85.8887 64.4767 85.1824 62.9634 83.8137 62.4655Z" fill="#969072"/>
<path d="M64.4731 55.4328C63.1043 54.9347 61.591 55.6414 61.0934 57.0099C60.5955 58.3789 61.3018 59.8922 62.6707 60.3896L73.5832 64.3578L74.8391 59.2019L64.4731 55.4328Z" fill="#645C4C"/>
<path d="M43.3511 98.3516C28.3238 98.3516 16.0984 86.126 16.0984 71.0988C16.0984 65.566 18.9761 58.6416 24.8798 50C18.9761 41.3582 16.0984 34.4338 16.0984 28.9012C16.0984 13.8738 28.324 1.64844 43.3511 1.64844C58.3783 1.64844 70.6039 13.874 70.6039 28.9012C70.6039 34.4338 67.7261 41.358 61.8226 50C67.7261 58.642 70.6039 65.5664 70.6039 71.0988C70.6039 86.1262 58.3785 98.3516 43.3511 98.3516ZM43.3511 17.4725C37.0494 17.4725 31.9226 22.5992 31.9226 28.901C31.9226 30.524 33.8226 35.7912 40.9439 45.2367C43.0582 48.041 43.0582 51.9584 40.9439 54.7631C33.8228 64.2086 31.9228 69.4756 31.9228 71.0988C31.9228 77.4006 37.0496 82.5273 43.3513 82.5273C49.6531 82.5273 54.7798 77.4006 54.7798 71.0988C54.7798 69.4758 52.8798 64.2084 45.7585 54.7631C43.6445 51.9584 43.6445 48.0414 45.7583 45.2371C52.8798 35.7912 54.7798 30.5242 54.7798 28.901C54.7798 22.5994 49.6529 17.4725 43.3511 17.4725Z" fill="#B69D86"/>
<path d="M65.3294 28.9013C65.3294 16.7825 55.4702 6.92334 43.3515 6.92334C31.2327 6.92334 21.3735 16.7827 21.3735 28.9013C21.3735 33.8577 24.7259 40.9509 31.3415 50.0001C24.7259 59.0493 21.3735 66.1425 21.3735 71.0989C21.3735 83.2177 31.2329 93.0769 43.3515 93.0769C55.4704 93.0769 65.3294 83.2175 65.3294 71.0989C65.3294 66.1425 61.9771 59.0493 55.3614 50.0001C61.9771 40.9509 65.3294 33.8577 65.3294 28.9013ZM60.0546 71.0989C60.0546 80.3093 52.5614 87.8022 43.3513 87.8022C34.1409 87.8022 26.6479 80.3093 26.6479 71.0989C26.6479 67.1423 30.2292 60.213 36.7321 51.5878C37.4407 50.6479 37.4407 49.3522 36.7321 48.4124C30.2292 39.7872 26.6479 32.8579 26.6479 28.9013C26.6479 19.6909 34.1409 12.1979 43.3513 12.1979C52.5614 12.1979 60.0546 19.6909 60.0546 28.9013C60.0546 32.8579 56.4733 39.7872 49.9704 48.4124C49.2618 49.3522 49.2618 50.6479 49.9704 51.5878C56.4733 60.213 60.0546 67.1423 60.0546 71.0989Z" fill="#969072"/>
<path d="M24.88 50.0001C22.7251 53.1544 20.9753 56.0788 19.6196 58.7913H38.0417C38.8962 57.544 39.8587 56.2026 40.944 54.7632C42.0243 53.3304 42.5491 51.6071 42.5255 49.8901H24.8058C24.8304 49.9269 24.8546 49.9632 24.88 50.0001Z" fill="#70635D"/>
<path d="M61.8967 49.8901H44.177C44.1536 51.6071 44.6782 53.3304 45.7583 54.7632C46.8436 56.2028 47.8061 57.5438 48.6606 58.7913H67.0827C65.7268 56.0788 63.9772 53.1544 61.8223 50.0001C61.8475 49.9632 61.8717 49.9269 61.8967 49.8901Z" fill="#70635D"/>
<path d="M31.341 50.0001C29.0205 53.1741 27.1035 56.1065 25.5898 58.7913H31.7295C33.1283 56.5616 34.8002 54.1505 36.732 51.5878C37.1096 51.0872 37.284 50.4854 37.259 49.8901H31.2613C31.2883 49.9269 31.3141 49.9632 31.341 50.0001Z" fill="#645C4C"/>
<path d="M55.4409 49.8901H49.4432C49.4184 50.4853 49.5927 51.087 49.9702 51.5878C51.902 54.1505 53.5739 56.5616 54.9727 58.7913H61.1124C59.5987 56.1065 57.6815 53.1741 55.3612 50.0001C55.3882 49.9632 55.4141 49.9269 55.4409 49.8901Z" fill="#645C4C"/>
<path d="M66.2085 47.3628H20.4942C19.0378 47.3628 17.8569 48.5437 17.8569 50.0001C17.8569 51.4565 19.0378 52.6374 20.4942 52.6374H66.2085C67.6651 52.6374 68.8458 51.4565 68.8458 50.0001C68.8458 48.5437 67.6651 47.3628 66.2085 47.3628Z" fill="#969072"/>
<path d="M25.7688 50.0001C25.7688 48.5437 26.9497 47.3628 28.4061 47.3628H20.494C19.0375 47.3628 17.8567 48.5437 17.8567 50.0001C17.8567 51.4565 19.0375 52.6374 20.494 52.6374H28.4061C26.9497 52.6374 25.7688 51.4565 25.7688 50.0001Z" fill="#645C4C"/>
<path d="M69.7248 37.2527H16.9775C15.5816 37.2527 14.45 38.3843 14.45 39.7802C14.45 41.1761 15.5816 42.3078 16.9775 42.3078H69.7248C71.1208 42.3078 72.2523 41.1761 72.2523 39.7802C72.2523 38.3843 71.1208 37.2527 69.7248 37.2527Z" fill="#969072"/>
<path d="M22.2523 39.7802C22.2523 38.3843 23.3839 37.2527 24.7798 37.2527H16.9775C15.5816 37.2527 14.45 38.3843 14.45 39.7802C14.45 41.1761 15.5816 42.3078 16.9775 42.3078H24.7796C23.3839 42.3076 22.2523 41.1759 22.2523 39.7802Z" fill="#645C4C"/>
<path d="M69.7248 42.3076H16.9775C15.5816 42.3076 14.45 43.4393 14.45 44.8352C14.45 46.2311 15.5816 47.3627 16.9775 47.3627H69.7248C71.1208 47.3627 72.2523 46.2311 72.2523 44.8352C72.2523 43.4393 71.1208 42.3076 69.7248 42.3076Z" fill="#B69D86"/>
<path d="M22.2523 44.8352C22.2523 43.4393 23.3839 42.3076 24.7798 42.3076H16.9775C15.5816 42.3076 14.45 43.4393 14.45 44.8352C14.45 46.2311 15.5816 47.3627 16.9775 47.3627H24.7796C23.3839 47.3627 22.2523 46.2311 22.2523 44.8352Z" fill="#70635D"/>
<path d="M84.377 60.9168L66.6893 54.485C66.6619 54.475 66.6346 54.468 66.607 54.4598C66.5703 54.3969 66.5338 54.3342 66.4967 54.2713C68.725 54.1219 70.4937 52.266 70.4937 50.0004C70.4937 49.6402 70.4443 49.2922 70.3602 48.9578C72.3613 48.6502 73.9004 46.9215 73.9004 44.8355C73.9004 43.8852 73.5775 43.0107 73.0408 42.308C73.5777 41.6053 73.9004 40.7309 73.9004 39.7805C73.9004 37.9521 72.7174 36.398 71.0779 35.8342C71.8566 33.3506 72.252 31.0242 72.252 28.9014C72.252 22.3701 70.1174 16.2033 66.0795 11.0674C65.5168 10.3518 64.4807 10.2281 63.765 10.7904C63.0494 11.3531 62.9254 12.3893 63.4881 13.1051C67.0646 17.6543 68.9553 23.1166 68.9553 28.9016C68.9553 30.8979 68.523 33.1518 67.6801 35.6049H65.5906C66.5113 33.107 66.9771 30.8582 66.9771 28.9016C66.9771 15.8738 56.3783 5.2752 43.3508 5.2752C30.323 5.2752 19.7244 15.8738 19.7244 28.9016C19.7244 30.8582 20.1904 33.1068 21.1107 35.6049H19.0221C18.1793 33.1516 17.7469 30.8975 17.7469 28.9016C17.7469 14.7834 29.233 3.29707 43.3514 3.29707C49.16 3.29707 54.6398 5.20176 59.1988 8.80469C59.9129 9.36895 60.9498 9.24805 61.5141 8.5334C62.0785 7.81914 61.9574 6.78262 61.2432 6.21797C56.0961 2.1502 49.9092 0 43.3512 0C27.4152 0 14.4502 12.965 14.4502 28.9012C14.4502 31.024 14.8453 33.3504 15.6242 35.834C13.985 36.3979 12.8018 37.952 12.8018 39.7803C12.8018 40.7307 13.1246 41.6051 13.6613 42.3078C13.1244 43.0105 12.8018 43.885 12.8018 44.8354C12.8018 46.9213 14.3408 48.6498 16.342 48.9576C16.2578 49.2922 16.2084 49.64 16.2084 50.0002C16.2084 52.2662 17.9771 54.1219 20.2059 54.2715C16.3373 60.859 14.4502 66.382 14.4502 71.0992C14.4502 87.035 27.4152 100 43.3512 100C59.2875 100 72.2523 87.035 72.2523 71.0988C72.2523 69.2967 71.9766 67.3768 71.4209 65.3256L81.4473 68.9715C83.6408 69.7697 86.1428 68.6008 86.94 66.4086C87.7475 64.1879 86.5979 61.7242 84.377 60.9168ZM16.0984 39.7803C16.0984 39.2955 16.4928 38.9012 16.9775 38.9012H40.9336C41.8439 38.9012 42.582 38.1631 42.582 37.2527C42.582 36.3424 41.8439 35.6043 40.9336 35.6043H36.4371C34.1775 31.6887 33.5709 29.51 33.5709 28.901C33.5709 23.508 37.9582 19.1207 43.3512 19.1207C48.7439 19.1207 53.1314 23.508 53.1314 28.901C53.1314 29.5162 52.5207 31.6955 50.2648 35.6043H47.7469C46.8363 35.6043 46.0984 36.3424 46.0984 37.2527C46.0984 38.1631 46.8363 38.9012 47.7469 38.9012H69.7248C70.2096 38.9012 70.6039 39.2955 70.6039 39.7803C70.6039 40.265 70.2096 40.6594 69.7248 40.6594H16.9775C16.4928 40.6594 16.0984 40.265 16.0984 39.7803ZM28.2963 28.9012C28.2963 20.5998 35.05 13.8463 43.3512 13.8463C51.6523 13.8463 58.4061 20.6 58.4061 28.9012C58.4061 30.0023 58.0301 32.058 56.2621 35.6045H54.0338C55.5703 32.6979 56.4281 30.3164 56.4281 28.9012C56.4281 21.6904 50.5619 15.8242 43.3512 15.8242C36.1404 15.8242 30.2742 21.6904 30.2742 28.9012C30.2742 30.3133 31.135 32.7 32.6695 35.6045H30.441C28.6768 32.065 28.2963 30.0074 28.2963 28.9012ZM23.0215 28.9012C23.0215 17.6912 32.1412 8.57148 43.3512 8.57148C54.5611 8.57148 63.6809 17.6912 63.6809 28.9012C63.6809 30.7482 63.1316 33.0021 62.05 35.6045H59.9084C61.0982 32.942 61.7027 30.6912 61.7027 28.9012C61.7027 18.782 53.4701 10.5496 43.3512 10.5496C33.2322 10.5496 24.9996 18.7822 24.9996 28.9012C24.9996 30.6918 25.6029 32.9414 26.7932 35.6045H24.6518C23.5701 33.002 23.0215 30.7486 23.0215 28.9012ZM16.9775 43.9561H69.7248C70.2096 43.9561 70.6039 44.3504 70.6039 44.8352C70.6039 45.3199 70.2096 45.7143 69.7248 45.7143H66.2084H20.4941H16.9775C16.4928 45.7143 16.0984 45.3199 16.0984 44.8352C16.0984 44.3504 16.4928 43.9561 16.9775 43.9561ZM19.5051 50C19.5051 49.4547 19.9488 49.0109 20.4941 49.0109H66.2084C66.7537 49.0109 67.1975 49.4547 67.1975 50C67.1975 50.5453 66.7537 50.9891 66.2084 50.9891H20.4941C19.9488 50.9891 19.5051 50.5453 19.5051 50ZM32.7385 54.2857C28.9037 59.799 24.9996 66.5334 24.9996 71.099C24.9996 81.2182 33.2322 89.4506 43.3512 89.4506C53.4701 89.4506 61.7027 81.218 61.7027 71.099C61.7027 66.5252 57.7801 59.7732 53.9635 54.2857H56.3647C61.2191 61.4615 63.6809 67.1184 63.6809 71.099C63.6809 82.309 54.5611 91.4287 43.3512 91.4287C32.1412 91.4287 23.0215 82.3088 23.0215 71.0988C23.0215 67.118 25.4832 61.4613 30.3377 54.2855H32.7385V54.2857ZM44.4424 55.7557C51.5705 65.2102 53.1314 70.0369 53.1314 71.0992C53.1314 76.4922 48.7439 80.8795 43.3512 80.8795C37.9582 80.8795 33.5709 76.4922 33.5709 71.0992C33.5709 70.0371 35.132 65.2104 42.26 55.7557C42.6068 55.2957 42.909 54.8014 43.1668 54.2857H43.5338C43.7914 54.8012 44.0959 55.2955 44.4424 55.7557ZM30.2742 71.0988C30.2742 78.3096 36.1404 84.1758 43.3512 84.1758C50.5619 84.1758 56.4281 78.3096 56.4281 71.0988C56.4281 68.7645 54.0602 63.1342 47.4596 54.2855H49.9174C55.3133 61.7025 58.4064 67.8258 58.4064 71.0988C58.4064 79.4002 51.6527 86.1537 43.3516 86.1537C35.0504 86.1537 28.2967 79.4 28.2967 71.0988C28.2967 67.8232 31.3881 61.7061 36.7859 54.2855H39.2434C32.642 63.1348 30.2742 68.7646 30.2742 71.0988ZM43.3512 96.7033C29.233 96.7033 17.7467 85.2172 17.7467 71.0988C17.7467 66.6064 19.81 61.102 24.049 54.2855H26.3879C21.9088 61.2447 19.7246 66.7596 19.7246 71.0988C19.7246 84.1266 30.3232 94.7252 43.351 94.7252C56.3785 94.7252 66.9773 84.1266 66.9773 71.0988C66.9773 66.7598 64.7932 61.2447 60.3141 54.2855H62.6527C66.8924 61.1041 68.9555 66.6064 68.9555 71.0988C68.9557 85.2172 57.4695 96.7033 43.3512 96.7033ZM83.8416 65.2824C83.6576 65.7889 83.0805 66.0578 82.5744 65.8738C82.5744 65.8738 70.1453 61.3639 70.0598 61.3477C69.7223 60.5207 69.3445 59.6738 68.9281 58.807L83.2504 64.0148C83.7627 64.2014 84.0281 64.7699 83.8416 65.2824Z" fill="black"/>
</svg>
