<svg width="80" height="80" viewBox="0 0 80 80" fill="none" xmlns="http://www.w3.org/2000/svg">
<g clip-path="url(#clip0_481_1086)">
<path d="M71.4009 23.9685H52.6938V10.6064H71.4009L64.7198 17.2874L71.4009 23.9685Z" fill="#EFCCCB"/>
<path d="M59.3745 3.9248H40.6675V17.287H59.3745V3.9248Z" fill="#D8C0B4"/>
<path d="M43.3398 3.9248H40.6675V17.287H43.3398V3.9248Z" fill="#EFCCCB"/>
<path d="M40.6682 27.9766L78.0821 78.7527H3.25415L40.6682 27.9766Z" fill="#506873"/>
<path d="M40.6682 27.9766L78.0821 78.7527H3.25415L40.6682 27.9766Z" fill="#506873"/>
<path d="M29.9785 50.6922L35.3234 56.037L40.6682 50.6922L46.0131 56.037L51.3579 50.6922L56.7027 56.037L59.3751 53.3647L40.6682 27.9766L21.9612 53.3647L24.6337 56.037L29.9785 50.6922Z" fill="#E7EBEC"/>
<path d="M27.3059 6.59777C26.6878 6.59777 26.1025 6.73793 25.5797 6.98777C25.8295 6.46496 25.9697 5.87965 25.9697 5.26152C25.9697 3.04762 24.175 1.25293 21.9611 1.25293C19.7472 1.25293 17.9525 3.04762 17.9525 5.26152C17.9525 5.87965 18.0927 6.46496 18.3425 6.98777C17.8197 6.73793 17.2344 6.59777 16.6163 6.59777C14.4024 6.59777 12.6077 8.39246 12.6077 10.6064C12.6077 12.8203 14.4024 14.615 16.6163 14.615H27.3059C29.5199 14.615 31.3145 12.8203 31.3145 10.6064C31.3145 8.39246 29.5199 6.59777 27.3059 6.59777Z" fill="#CED7D9"/>
<path d="M28.6422 11.9422H17.9525C15.7386 11.9422 13.9439 10.1475 13.9439 7.93363C13.9439 7.82332 13.9495 7.71457 13.9583 7.60645C13.1302 8.34082 12.6077 9.41223 12.6077 10.6061C12.6077 12.82 14.4024 14.6147 16.6163 14.6147H27.3059C29.4097 14.6147 31.1336 12.9939 31.3002 10.9333C30.5927 11.5607 29.6622 11.9422 28.6422 11.9422Z" fill="#B6C4C6"/>
<path d="M74.0735 35.9943C73.4554 35.9943 72.8701 36.1344 72.3473 36.3843C72.5971 35.8614 72.7373 35.2761 72.7373 34.658C72.7373 32.4441 70.9426 30.6494 68.7287 30.6494C66.5148 30.6494 64.7201 32.4441 64.7201 34.658C64.7201 35.2761 64.8602 35.8614 65.1101 36.3843C64.5873 36.1344 64.002 35.9943 63.3838 35.9943C61.1699 35.9943 59.3752 37.7889 59.3752 40.0029C59.3752 42.2168 61.1699 44.0114 63.3838 44.0114H74.0735C76.2874 44.0114 78.0821 42.2168 78.0821 40.0029C78.0821 37.7889 76.2874 35.9943 74.0735 35.9943Z" fill="#CED7D9"/>
<path d="M75.4095 41.3387H64.7198C62.5059 41.3387 60.7113 39.544 60.7113 37.3301C60.7113 37.2198 60.7169 37.1111 60.7256 37.0029C59.8975 37.7373 59.375 38.8087 59.375 40.0026C59.375 42.2165 61.1697 44.0112 63.3836 44.0112H74.0733C76.177 44.0112 77.9008 42.3904 78.0675 40.3298C77.3602 40.957 76.4295 41.3387 75.4095 41.3387Z" fill="#B6C4C6"/>
<path d="M16.6163 41.339C15.9981 41.339 15.4128 41.4791 14.89 41.729C15.1398 41.2062 15.28 40.6209 15.28 40.0027C15.28 37.7888 13.4853 35.9941 11.2714 35.9941C9.0575 35.9941 7.26281 37.7888 7.26281 40.0027C7.26281 40.6209 7.40297 41.2062 7.65281 41.729C7.13 41.4791 6.54469 41.339 5.92656 41.339C3.71266 41.339 1.91797 43.1337 1.91797 45.3476C1.91797 47.5615 3.71266 49.3562 5.92656 49.3562H16.6163C18.8302 49.3562 20.6248 47.5615 20.6248 45.3476C20.6248 43.1337 18.8302 41.339 16.6163 41.339Z" fill="#CED7D9"/>
<path d="M17.9525 46.6834H7.26281C5.04891 46.6834 3.25422 44.8887 3.25422 42.6748C3.25422 42.5645 3.25984 42.4558 3.26859 42.3477C2.44047 43.082 1.91797 44.1534 1.91797 45.3473C1.91797 47.5612 3.71266 49.3559 5.92656 49.3559H16.6163C18.72 49.3559 20.4437 47.7352 20.6105 45.6745C19.903 46.3017 18.9725 46.6834 17.9525 46.6834Z" fill="#B6C4C6"/>
<path d="M51.5226 40.5961C51.1123 40.0392 50.3282 39.9208 49.771 40.3306C49.2142 40.7409 49.0952 41.5252 49.5056 42.0822L57.7276 53.2408L56.7027 54.2658L52.2438 49.8067C51.7545 49.3177 50.9613 49.3177 50.4721 49.8067L46.0132 54.2658L41.5543 49.8067C41.0649 49.3177 40.2718 49.3177 39.7826 49.8067L35.3237 54.2658L30.8648 49.8067C30.3754 49.3177 29.5823 49.3177 29.0931 49.8067L24.6342 54.2658L23.6093 53.2408L40.6687 30.0888L46.5518 38.073C46.9568 38.6223 47.7538 38.7433 48.3034 38.3384C48.8531 37.9336 48.9735 37.1363 48.5688 36.5869L41.9213 27.5655V18.54H51.4418V23.9684C51.4418 24.6605 52.0026 25.2211 52.6945 25.2211H71.4015C72.4934 25.2211 73.0602 23.8556 72.2874 23.0825L66.4915 17.2873L72.2868 11.4922C73.0596 10.7191 72.4931 9.35359 71.401 9.35359H60.6277V3.92516C60.6277 3.23313 60.067 2.6725 59.3751 2.6725H50.0217C49.3296 2.6725 48.769 3.23328 48.769 3.92516C48.769 4.61703 49.3298 5.17781 50.0217 5.17781H58.1224V16.0345H41.9209V5.17781H44.6768C45.3688 5.17781 45.9295 4.61703 45.9295 3.92516C45.9295 3.23328 45.3687 2.6725 44.6768 2.6725H41.9209V1.25266C41.9209 0.560625 41.3601 0 40.6682 0C39.9763 0 39.4156 0.560781 39.4156 1.25266V27.5652L20.9527 52.6219L2.24572 78.0099C1.85228 78.5441 1.9529 79.3202 2.47384 79.7328C3.02181 80.167 3.84743 80.06 4.2629 79.4959L22.1057 55.2806L23.7479 56.923C24.2373 57.412 25.0304 57.412 25.5196 56.923L29.9785 52.4639L34.4374 56.923C34.9268 57.412 35.7199 57.412 36.2092 56.923L40.6681 52.4639L45.127 56.923C45.6163 57.412 46.4095 57.412 46.8987 56.923L51.3576 52.4639L55.8165 56.923C56.3059 57.412 57.099 57.412 57.5882 56.923L59.2304 55.2806L77.0732 79.4959C77.5159 80.0967 78.4101 80.1717 78.9493 79.6564C79.3982 79.2274 79.4582 78.5091 79.0902 78.0095L51.5226 40.5961ZM59.3751 18.54C60.0671 18.54 60.6277 17.9792 60.6277 17.2873V11.8589H68.3768L63.8342 16.4014C63.3449 16.8908 63.3449 17.6839 63.8342 18.1731L68.3767 22.7158H53.9465V18.5402H59.3751V18.54Z" fill="black"/>
<path d="M16.6163 15.8675H27.306C30.2071 15.8675 32.5674 13.5072 32.5674 10.6061C32.5674 7.67719 30.155 5.30453 27.2219 5.34547C27.2224 5.31734 27.2225 5.28938 27.2225 5.26125C27.2225 2.36031 24.8622 0 21.9611 0C19.06 0 16.6997 2.36031 16.6997 5.26141C16.6997 5.28953 16.6999 5.3175 16.7004 5.34563C16.6722 5.34516 16.6443 5.345 16.6161 5.345C13.715 5.345 11.3547 7.70531 11.3547 10.6064C11.3547 13.5075 13.7152 15.8675 16.6163 15.8675ZM16.6163 7.85031C17.0319 7.85031 17.4308 7.94031 17.8024 8.11781C18.2763 8.34469 18.8572 8.24453 19.2285 7.87344C19.5997 7.50234 19.6993 6.92125 19.4729 6.44734C19.2954 6.07594 19.2054 5.67703 19.2054 5.26125C19.2054 3.74172 20.4418 2.50531 21.9613 2.50531C23.4808 2.50531 24.7172 3.74172 24.7172 5.26125C24.7172 5.67688 24.6272 6.07578 24.4497 6.44734C24.223 6.92141 24.3227 7.50219 24.6941 7.87344C25.0654 8.24453 25.6463 8.34469 26.1202 8.11781C26.4916 7.94031 26.8905 7.85031 27.3063 7.85031C28.8258 7.85031 30.0622 9.08672 30.0622 10.6062C30.0622 12.1258 28.8258 13.3622 27.3063 13.3622H16.6166C15.0971 13.3622 13.8607 12.1258 13.8607 10.6062C13.8607 9.08672 15.0968 7.85031 16.6163 7.85031Z" fill="black"/>
<path d="M68.7285 29.3965C65.8274 29.3965 63.4671 31.7568 63.4671 34.6579C63.4671 34.686 63.4672 34.714 63.4677 34.7421C63.4396 34.7416 63.4116 34.7415 63.3835 34.7415C60.4824 34.7415 58.1221 37.1018 58.1221 40.0029C58.1221 42.904 60.4824 45.2643 63.3835 45.2643H74.0732C76.9743 45.2643 79.3346 42.904 79.3346 40.0029C79.3346 37.1018 76.9743 34.7415 74.0732 34.7415C74.045 34.7415 74.0171 34.7416 73.9889 34.7421C73.9894 34.714 73.9896 34.686 73.9896 34.6579C73.9899 31.7566 71.6296 29.3965 68.7285 29.3965ZM74.0735 37.2466C75.593 37.2466 76.8294 38.483 76.8294 40.0026C76.8294 41.5221 75.593 42.7585 74.0735 42.7585H63.3838C61.8643 42.7585 60.6279 41.5221 60.6279 40.0026C60.6279 38.483 61.8643 37.2466 63.3838 37.2466C63.7994 37.2466 64.1983 37.3366 64.5699 37.5141C65.0439 37.741 65.6247 37.641 65.996 37.2698C66.3672 36.8985 66.4668 36.3177 66.2404 35.8437C66.0629 35.4723 65.9729 35.0734 65.9729 34.6576C65.9729 33.138 67.2093 31.9016 68.7288 31.9016C70.2483 31.9016 71.4847 33.138 71.4847 34.6576C71.4847 35.0732 71.3947 35.4721 71.2172 35.8437C70.9905 36.3177 71.0902 36.8985 71.4616 37.2698C71.8329 37.6409 72.4138 37.741 72.8877 37.5141C73.2588 37.3366 73.6579 37.2466 74.0735 37.2466Z" fill="black"/>
<path d="M5.9266 50.609H16.6163C19.5174 50.609 21.8777 48.2487 21.8777 45.3476C21.8777 42.4465 19.5174 40.0862 16.6163 40.0862C16.5882 40.0862 16.5602 40.0864 16.5321 40.0868C16.5325 40.0587 16.5327 40.0307 16.5327 40.0026C16.5327 37.1015 14.1724 34.7412 11.2713 34.7412C8.3702 34.7412 6.00988 37.1015 6.00988 40.0026C6.00988 40.0307 6.01004 40.0587 6.01051 40.0868C3.07707 40.0459 0.665195 42.4186 0.665039 45.3475C0.665195 48.2487 3.02551 50.609 5.9266 50.609ZM5.9266 42.5917C6.34223 42.5917 6.74113 42.6817 7.1127 42.8592C7.5866 43.0861 8.16754 42.9861 8.53879 42.6148C8.91004 42.2436 9.00957 41.6628 8.78316 41.1887C8.60566 40.8173 8.51566 40.4184 8.51566 40.0026C8.51566 38.4831 9.75207 37.2467 11.2716 37.2467C12.7911 37.2467 14.0275 38.4831 14.0275 40.0026C14.0275 40.4182 13.9375 40.8171 13.76 41.1887C13.535 41.6593 13.6357 42.2462 14.0044 42.6148C14.373 42.9834 14.96 43.0843 15.4305 42.8592C15.8019 42.6817 16.2008 42.5917 16.6166 42.5917C18.1361 42.5917 19.3725 43.8279 19.3725 45.3476C19.3725 46.8672 18.1361 48.1036 16.6166 48.1036H5.9266C4.40707 48.1036 3.17066 46.8672 3.17066 45.3476C3.17066 43.8281 4.40707 42.5917 5.9266 42.5917Z" fill="black"/>
</g>
<defs>
<clipPath id="clip0_481_1086">
<rect width="80" height="80" fill="white"/>
</clipPath>
</defs>
</svg>
