<svg width="100" height="100" viewBox="0 0 100 100" fill="none" xmlns="http://www.w3.org/2000/svg">
<path d="M58.3489 1.56592L91.7518 31.6284V39.9792L58.3489 18.2673V1.56592Z" fill="#9DB0B3"/>
<path d="M58.3489 13.9211V18.2672L91.7518 39.9791V36.0793L58.3489 13.9211Z" fill="#CED7D9"/>
<path d="M22.1624 1.56592H18.2653L8.24438 16.5972L13.5586 14.4716L22.1624 1.56592Z" fill="#3C6168"/>
<path d="M54.1993 90.6214C51.3218 80.3765 48.847 66.412 49.9981 49.9999C50.9054 37.064 53.8075 26.2847 56.6788 18.2671C52.2251 18.2671 47.7714 18.2671 43.3177 18.2671C40.4464 26.2847 37.5444 37.064 36.637 49.9999C35.1583 71.0813 39.662 88.1267 43.3177 98.4341H66.6997L54.1993 90.6214Z" fill="#737882"/>
<path d="M40.2659 49.9999C41.1731 37.064 44.0753 26.2847 46.9466 18.2671C45.737 18.2671 44.5274 18.2671 43.3177 18.2671C40.4464 26.2847 37.5444 37.064 36.637 49.9999C35.1583 71.0813 39.662 88.1267 43.3177 98.4341H46.9466C43.2907 88.1267 38.7872 71.0813 40.2659 49.9999Z" fill="#C0B7B7"/>
<path d="M58.3489 1.56592H43.3176H18.2653L8.24438 16.5972L24.9458 9.9165L43.3174 18.2673H58.3487C62.9606 18.2673 66.6995 14.5284 66.6995 9.9165C66.6995 5.30459 62.961 1.56592 58.3489 1.56592ZM46.6579 13.2569C44.8129 13.2569 43.3176 11.7612 43.3176 9.9167C43.3176 8.07217 44.8129 6.57647 46.6579 6.57647C48.5028 6.57647 49.9981 8.07217 49.9981 9.9167C49.9981 11.7612 48.5028 13.2569 46.6579 13.2569Z" fill="#54747B"/>
<path d="M92.7992 30.4645L68.1238 8.25684C67.3314 3.57656 63.2512 0 58.3488 0H33.2967C32.432 0 31.7309 0.700781 31.7309 1.56582C31.7309 2.43086 32.4318 3.13164 33.2967 3.13164H58.3488C62.09 3.13164 65.1338 6.17519 65.1338 9.9166C65.1338 13.658 62.0898 16.7014 58.3488 16.7014H43.6566L41.3385 15.6477C42.2414 15.0949 43.1258 14.5545 43.9875 14.0289C44.7566 14.5299 45.6732 14.8225 46.6578 14.8225C49.3631 14.8225 51.5639 12.6217 51.5639 9.91641C51.5639 7.21113 49.3631 5.01035 46.6578 5.01035C43.9525 5.01035 41.7518 7.21113 41.7518 9.91641C41.7518 10.4902 41.8518 11.0408 42.0336 11.5531C40.9369 12.2227 39.5236 13.0867 37.899 14.0842L25.5939 8.49082C25.2053 8.31406 24.7609 8.3041 24.3645 8.4625L12.3437 13.2709L19.1033 3.13145H26.7592C27.6238 3.13145 28.325 2.43066 28.325 1.56562C28.325 0.700586 27.624 0 26.7592 0H18.2652C17.7416 0 17.2527 0.261523 16.9625 0.697266L6.9418 15.7285C6.55937 16.3021 6.60371 17.0807 7.04863 17.6072C7.47891 18.1166 8.20664 18.2977 8.82617 18.0508L24.9068 11.6184L34.6832 16.0621C24.9387 22.0699 11.1818 30.6768 9.38066 32.4775C7.82324 34.0352 6.96543 36.1059 6.96543 38.3086C6.96543 40.5113 7.82324 42.582 9.38066 44.1395C10.9381 45.6971 13.009 46.5549 15.2117 46.5549C17.4145 46.5549 19.4852 45.6971 21.0428 44.1396C22.8219 42.3605 32.8596 29.64 41.1754 19.0131L41.3687 19.101C37.9273 29.0816 35.8086 39.4316 35.0752 49.89C33.9098 66.5023 36.1867 83.0109 41.842 98.957C42.0637 99.5818 42.6547 99.9994 43.3178 99.9994H66.6998C67.3797 99.9994 67.9965 99.5436 68.1961 98.8938C68.4021 98.2234 68.1244 97.4777 67.5297 97.1059L55.5449 89.6154C51.9719 76.6459 50.6309 63.357 51.5604 50.109C51.8457 46.0402 52.3521 41.9385 53.0658 37.918C53.217 37.0666 52.649 36.2537 51.7978 36.1027C50.9463 35.9531 50.1336 36.5195 49.9826 37.3707C49.25 41.4992 48.7301 45.7113 48.4369 49.8898C48.0803 54.9725 48.0502 60.0606 48.3424 65.135H44.9883C44.1236 65.135 43.4225 65.8357 43.4225 66.7008C43.4225 67.5656 44.1234 68.2666 44.9883 68.2666H48.5637C48.6162 68.8932 48.674 69.5193 48.7365 70.1455H44.9881C44.1234 70.1455 43.4223 70.8463 43.4223 71.7113C43.4223 72.5764 44.1232 73.2771 44.9881 73.2771H49.0891C49.1682 73.9039 49.2533 74.5303 49.3426 75.1561H44.9881C44.1234 75.1561 43.4223 75.8568 43.4223 76.7219C43.4223 77.5869 44.1232 78.2877 44.9881 78.2877H49.8281C49.934 78.9145 50.0467 79.5408 50.1625 80.1666H46.6582C45.7936 80.1666 45.0924 80.8674 45.0924 81.7324C45.0924 82.5975 45.7934 83.2982 46.6582 83.2982H50.7836C51.3342 85.8912 51.9701 88.4742 52.692 91.0445C52.7975 91.4199 53.0389 91.7422 53.3697 91.9488L61.2402 96.868H44.4289C39.1854 81.6533 37.0895 65.9281 38.199 50.109C38.9205 39.8234 41.0146 29.643 44.4256 19.8326H54.4768C53.2072 23.5938 52.1168 27.433 51.2277 31.2752C51.0328 32.1176 51.5576 32.9584 52.4002 33.1535C53.2424 33.3486 54.0834 32.8236 54.2787 31.9811C55.2238 27.8967 56.4055 23.8158 57.79 19.8328H57.8852L63.4641 23.4592V26.6178C63.4641 27.4826 64.165 28.1836 65.0299 28.1836C65.8945 28.1836 66.5957 27.4828 66.5957 26.6178V25.4945L68.4746 26.7158V29.958C68.4746 30.8228 69.1756 31.5238 70.0404 31.5238C70.9053 31.5238 71.6062 30.823 71.6062 29.958V28.7514L73.4852 29.9727V33.2982C73.4852 34.1631 74.1861 34.8641 75.051 34.8641C75.9158 34.8641 76.6168 34.1633 76.6168 33.2982V32.008L78.499 33.2316C78.498 33.2539 78.4957 33.276 78.4957 33.2984V36.6387C78.4957 37.5035 79.1967 38.2045 80.0615 38.2045C80.9262 38.2045 81.6273 37.5037 81.6273 36.6387V35.265L83.5139 36.4912C83.5094 36.5398 83.5064 36.5889 83.5064 36.6389V39.9791C83.5064 40.8439 84.2074 41.5449 85.0723 41.5449C85.9369 41.5449 86.6381 40.8441 86.6381 39.9791V38.5219L90.8996 41.2918C91.9236 41.9576 93.3186 41.1953 93.3186 39.9791V31.6289C93.3176 31.1846 93.1291 30.7615 92.7992 30.4645ZM46.6578 8.14199C47.6363 8.14199 48.4324 8.93809 48.4324 9.9166C48.4324 10.8951 47.6363 11.6912 46.6578 11.6912C46.6213 11.6912 46.5855 11.6879 46.5494 11.6857C46.5693 11.3766 46.4988 11.0584 46.3256 10.7734C46.0129 10.2588 45.4508 9.98965 44.8887 10.0248C44.8865 9.98887 44.8832 9.95312 44.8832 9.9166C44.8832 8.93809 45.6793 8.14199 46.6578 8.14199ZM18.8283 41.9256C16.8564 43.8973 13.5666 43.8973 11.5949 41.9254C9.62305 39.9537 9.62344 36.6639 11.5949 34.6922C13.0732 33.2139 26.3506 24.8623 38.1184 17.6238L38.2422 17.6803C27.157 31.84 20.1012 40.6527 18.8283 41.9256ZM90.1859 37.0939L62.3375 18.9926C65.1078 17.7703 67.2172 15.3172 67.9672 12.3291L90.1859 32.3258V37.0939Z" fill="black"/>
<path d="M58.5576 11.4822C59.4222 11.4822 60.1234 10.7814 60.1234 9.91641C60.1234 9.05137 59.4224 8.35059 58.5576 8.35059H58.3488C57.4841 8.35059 56.783 9.05137 56.783 9.91641C56.783 10.7814 57.4839 11.4822 58.3488 11.4822H58.5576Z" fill="black"/>
</svg>
