<svg width="195" height="62" viewBox="0 0 195 62" fill="none" xmlns="http://www.w3.org/2000/svg">
<path d="M88.732 20.5921V24.2881C91.98 24.3441 94.542 24.8761 96.418 25.8841C98.294 26.8921 99.624 28.2361 100.408 29.9161C101.192 31.5681 101.584 33.4161 101.584 35.4601C101.584 36.8041 101.374 38.1481 100.954 39.4921C100.562 40.8081 99.876 42.0121 98.896 43.1041C97.916 44.1681 96.6 45.0361 94.948 45.7081C93.296 46.3801 91.224 46.7441 88.732 46.8001V51.4201H84.994V46.8001C82.446 46.7441 80.332 46.3801 78.652 45.7081C77 45.0081 75.698 44.1121 74.746 43.0201C73.794 41.9001 73.122 40.6821 72.73 39.3661C72.338 38.0501 72.142 36.7481 72.142 35.4601C72.142 33.9761 72.352 32.5761 72.772 31.2601C73.22 29.9161 73.934 28.7401 74.914 27.7321C75.922 26.6961 77.252 25.8701 78.904 25.2541C80.556 24.6381 82.586 24.3161 84.994 24.2881V20.5921H88.732ZM84.994 27.4801C82.754 27.5361 80.962 27.9001 79.618 28.5721C78.302 29.2441 77.364 30.1681 76.804 31.3441C76.244 32.4921 75.964 33.8501 75.964 35.4181C75.964 37.0701 76.272 38.5121 76.888 39.7441C77.532 40.9481 78.512 41.8861 79.828 42.5581C81.172 43.2301 82.894 43.6081 84.994 43.6921V27.4801ZM88.732 43.6921C90.888 43.6081 92.624 43.2161 93.94 42.5161C95.284 41.8161 96.25 40.8641 96.838 39.6601C97.454 38.4281 97.762 37.0141 97.762 35.4181C97.762 33.8221 97.482 32.4501 96.922 31.3021C96.362 30.1261 95.424 29.2161 94.108 28.5721C92.792 27.9001 91 27.5361 88.732 27.4801V43.6921ZM126.646 51.0001L123.034 41.7181H111.148L107.578 51.0001H103.756L115.474 20.8861H118.876L130.552 51.0001H126.646ZM118.54 29.2861C118.456 29.0621 118.316 28.6561 118.12 28.0681C117.924 27.4801 117.728 26.8781 117.532 26.2621C117.364 25.6181 117.224 25.1281 117.112 24.7921C116.972 25.3521 116.818 25.9261 116.65 26.5141C116.51 27.0741 116.356 27.5921 116.188 28.0681C116.048 28.5441 115.922 28.9501 115.81 29.2861L112.408 38.3581H121.9L118.54 29.2861ZM157.586 51.0001H153.806V37.0141H138.434V51.0001H134.654V21.0121H138.434V33.6961H153.806V21.0121H157.586V51.0001ZM191.951 35.9641C191.951 38.2881 191.657 40.4021 191.069 42.3061C190.481 44.1821 189.599 45.8061 188.423 47.1781C187.275 48.5501 185.833 49.6001 184.097 50.3281C182.389 51.0561 180.401 51.4201 178.133 51.4201C175.781 51.4201 173.737 51.0561 172.001 50.3281C170.265 49.5721 168.823 48.5221 167.675 47.1781C166.527 45.8061 165.673 44.1681 165.113 42.2641C164.553 40.3601 164.273 38.2461 164.273 35.9221C164.273 32.8421 164.777 30.1541 165.785 27.8581C166.793 25.5621 168.319 23.7701 170.363 22.4821C172.435 21.1941 175.039 20.5501 178.175 20.5501C181.171 20.5501 183.691 21.1941 185.735 22.4821C187.779 23.7421 189.319 25.5341 190.355 27.8581C191.419 30.1541 191.951 32.8561 191.951 35.9641ZM168.263 35.9641C168.263 38.4841 168.613 40.6541 169.313 42.4741C170.013 44.2941 171.091 45.6941 172.547 46.6741C174.031 47.6541 175.893 48.1441 178.133 48.1441C180.401 48.1441 182.249 47.6541 183.677 46.6741C185.133 45.6941 186.211 44.2941 186.911 42.4741C187.611 40.6541 187.961 38.4841 187.961 35.9641C187.961 32.1841 187.177 29.2301 185.609 27.1021C184.041 24.9461 181.563 23.8681 178.175 23.8681C175.907 23.8681 174.031 24.3581 172.547 25.3381C171.091 26.2901 170.013 27.6761 169.313 29.4961C168.613 31.2881 168.263 33.4441 168.263 35.9641Z" fill="white"/>
<path fill-rule="evenodd" clip-rule="evenodd" d="M8.37085 51.0722H59.4431L35.2533 0L8.37085 51.0722Z" fill="#D9D9D9"/>
<mask id="path-3-inside-1_386_1313" fill="white">
<path fill-rule="evenodd" clip-rule="evenodd" d="M0 51.0726H31.2201L16.4331 19.6435L0 51.0726Z"/>
</mask>
<path fill-rule="evenodd" clip-rule="evenodd" d="M0 51.0726H31.2201L16.4331 19.6435L0 51.0726Z" fill="white"/>
<path d="M0 51.0726L-1.77235 50.1459L-3.30261 53.0726H0V51.0726ZM31.2201 51.0726V53.0726H34.3714L33.0299 50.2212L31.2201 51.0726ZM16.4331 19.6435L18.2428 18.792L16.5275 15.1464L14.6607 18.7168L16.4331 19.6435ZM0 53.0726H31.2201V49.0726H0V53.0726ZM33.0299 50.2212L18.2428 18.792L14.6234 20.4949L29.4104 51.9241L33.0299 50.2212ZM14.6607 18.7168L-1.77235 50.1459L1.77235 51.9993L18.2054 20.5702L14.6607 18.7168Z" fill="white" mask="url(#path-3-inside-1_386_1313)"/>
</svg>
