<svg width="195" height="72" viewBox="0 0 195 72" fill="none" xmlns="http://www.w3.org/2000/svg">
<path d="M88.732 20.592V24.288C91.98 24.344 94.542 24.876 96.418 25.884C98.294 26.892 99.624 28.236 100.408 29.916C101.192 31.568 101.584 33.416 101.584 35.46C101.584 36.804 101.374 38.148 100.954 39.492C100.562 40.808 99.876 42.012 98.896 43.104C97.916 44.168 96.6 45.036 94.948 45.708C93.296 46.38 91.224 46.744 88.732 46.8V51.42H84.994V46.8C82.446 46.744 80.332 46.38 78.652 45.708C77 45.008 75.698 44.112 74.746 43.02C73.794 41.9 73.122 40.682 72.73 39.366C72.338 38.05 72.142 36.748 72.142 35.46C72.142 33.976 72.352 32.576 72.772 31.26C73.22 29.916 73.934 28.74 74.914 27.732C75.922 26.696 77.252 25.87 78.904 25.254C80.556 24.638 82.586 24.316 84.994 24.288V20.592H88.732ZM84.994 27.48C82.754 27.536 80.962 27.9 79.618 28.572C78.302 29.244 77.364 30.168 76.804 31.344C76.244 32.492 75.964 33.85 75.964 35.418C75.964 37.07 76.272 38.512 76.888 39.744C77.532 40.948 78.512 41.886 79.828 42.558C81.172 43.23 82.894 43.608 84.994 43.692V27.48ZM88.732 43.692C90.888 43.608 92.624 43.216 93.94 42.516C95.284 41.816 96.25 40.864 96.838 39.66C97.454 38.428 97.762 37.014 97.762 35.418C97.762 33.822 97.482 32.45 96.922 31.302C96.362 30.126 95.424 29.216 94.108 28.572C92.792 27.9 91 27.536 88.732 27.48V43.692ZM126.646 51L123.034 41.718H111.148L107.578 51H103.756L115.474 20.886H118.876L130.552 51H126.646ZM118.54 29.286C118.456 29.062 118.316 28.656 118.12 28.068C117.924 27.48 117.728 26.878 117.532 26.262C117.364 25.618 117.224 25.128 117.112 24.792C116.972 25.352 116.818 25.926 116.65 26.514C116.51 27.074 116.356 27.592 116.188 28.068C116.048 28.544 115.922 28.95 115.81 29.286L112.408 38.358H121.9L118.54 29.286ZM157.586 51H153.806V37.014H138.434V51H134.654V21.012H138.434V33.696H153.806V21.012H157.586V51ZM191.951 35.964C191.951 38.288 191.657 40.402 191.069 42.306C190.481 44.182 189.599 45.806 188.423 47.178C187.275 48.55 185.833 49.6 184.097 50.328C182.389 51.056 180.401 51.42 178.133 51.42C175.781 51.42 173.737 51.056 172.001 50.328C170.265 49.572 168.823 48.522 167.675 47.178C166.527 45.806 165.673 44.168 165.113 42.264C164.553 40.36 164.273 38.246 164.273 35.922C164.273 32.842 164.777 30.154 165.785 27.858C166.793 25.562 168.319 23.77 170.363 22.482C172.435 21.194 175.039 20.55 178.175 20.55C181.171 20.55 183.691 21.194 185.735 22.482C187.779 23.742 189.319 25.534 190.355 27.858C191.419 30.154 191.951 32.856 191.951 35.964ZM168.263 35.964C168.263 38.484 168.613 40.654 169.313 42.474C170.013 44.294 171.091 45.694 172.547 46.674C174.031 47.654 175.893 48.144 178.133 48.144C180.401 48.144 182.249 47.654 183.677 46.674C185.133 45.694 186.211 44.294 186.911 42.474C187.611 40.654 187.961 38.484 187.961 35.964C187.961 32.184 187.177 29.23 185.609 27.102C184.041 24.946 181.563 23.868 178.175 23.868C175.907 23.868 174.031 24.358 172.547 25.338C171.091 26.29 170.013 27.676 169.313 29.496C168.613 31.288 168.263 33.444 168.263 35.964Z" fill="white"/>
<path fill-rule="evenodd" clip-rule="evenodd" d="M8.3708 51H59.4431L35.2533 -2.16674e-05L8.3708 51Z" fill="#D9D9D9"/>
<mask id="path-3-inside-1_386_1313" fill="white">
<path fill-rule="evenodd" clip-rule="evenodd" d="M-1.17259e-05 51H30.7939L16.2087 19.9999L-1.17259e-05 51Z"/>
</mask>
<path fill-rule="evenodd" clip-rule="evenodd" d="M-1.17259e-05 51H30.7939L16.2087 19.9999L-1.17259e-05 51Z" fill="white"/>
<path d="M0 51L-1.77235 50.0733L-3.30261 53H0V51ZM30.7939 51V53H33.9452L32.6036 50.1486L30.7939 51ZM16.2087 20L18.0184 19.1485L16.3032 15.5029L14.4363 19.0733L16.2087 20ZM0 53H30.7939V49H0V53ZM32.6036 50.1486L18.0184 19.1485L14.399 20.8514L28.9842 51.8515L32.6036 50.1486ZM14.4363 19.0733L-1.77235 50.0733L1.77235 51.9267L17.9811 20.9267L14.4363 19.0733Z" fill="white" mask="url(#path-3-inside-1_386_1313)"/>
</svg>
