<svg width="80" height="75" viewBox="0 0 80 75" fill="none" xmlns="http://www.w3.org/2000/svg">
<g clip-path="url(#clip0_529_764)">
<path fill-rule="evenodd" clip-rule="evenodd" d="M24.1015 57.9945L24.6818 57.0872L33.9249 53.2241L27.9761 58.2567L27.7748 58.1809L41.7984 63.4563L57.3724 69.629L60.5233 72.9372L55.5353 72.3136L41.1593 65.5355L26.7404 60.6738C25.0277 62.2492 24.6518 75.8456 24.0169 74.959C23.7468 73.9908 23.0717 66.0192 23.1482 64.9749L23.5876 58.9728L24.1016 57.9943L24.1015 57.9945ZM8.05178 63.3849L8.54993 64.0969L8.0359 64.4571C7.82825 64.6025 7.65149 64.6994 7.50563 64.7473C7.36062 64.7948 7.20593 64.804 7.04167 64.7721C6.8774 64.7416 6.71614 64.669 6.5546 64.5552L6.7538 64.2081C6.90107 64.3163 7.03819 64.3712 7.16639 64.3741C7.29488 64.3756 7.43134 64.329 7.57448 64.2325L7.33357 63.8883L8.05178 63.385V63.3849ZM7.22002 62.1963L7.71817 62.9083L7.20424 63.2685C6.9948 63.4151 6.81814 63.512 6.67322 63.5594C6.52812 63.6068 6.37362 63.6145 6.20954 63.5826C6.04452 63.5513 5.88326 63.4787 5.72303 63.3667L5.92224 63.0195C6.0695 63.1277 6.20653 63.1826 6.33483 63.1855C6.46331 63.187 6.59978 63.1404 6.74291 63.0439L6.50191 62.6996L7.22002 62.1964V62.1963ZM7.14028 57.7839L7.60246 57.5169L8.05046 58.2934L7.58828 58.5604C7.92714 59.2011 8.02567 59.7344 7.88563 60.1593C7.74475 60.5844 7.45764 60.9223 7.02307 61.1735C6.5655 61.4378 6.12078 61.5155 5.68932 61.4051C5.25691 61.2952 4.85428 60.945 4.4831 60.3546L4.09099 60.5811L3.64309 59.8047L4.03511 59.5781C3.6984 58.9411 3.59857 58.4098 3.7355 57.9842C3.87159 57.5593 4.16021 57.2194 4.59928 56.9657C5.03563 56.7135 5.4717 56.6335 5.90881 56.7261C6.34553 56.8201 6.75625 57.1717 7.14019 57.784L7.14028 57.7839ZM6.47242 58.1698C6.35267 57.9621 6.2147 57.8041 6.05861 57.6956C5.90252 57.5871 5.74623 57.5359 5.5923 57.5419C5.43742 57.5485 5.24451 57.6172 5.01572 57.7494C4.443 58.0804 4.33809 58.5617 4.70213 59.1928L6.47242 58.1699V58.1698ZM6.92032 58.9463L5.15003 59.9691C5.34266 60.303 5.55764 60.5008 5.79338 60.562C6.02921 60.6233 6.2998 60.5657 6.60438 60.3899C7.17898 60.0578 7.28445 59.5774 6.92032 58.9463ZM4.74364 53.7236L4.55439 52.865C4.89353 52.8486 5.18534 52.9196 5.43057 53.0803C5.67645 53.2395 5.86607 53.4872 6.00132 53.8221C6.21517 54.3519 6.19949 54.8138 5.95257 55.2097C5.75412 55.5236 5.44118 55.7674 5.01554 55.9394C4.50593 56.1454 4.05361 56.1747 3.65849 56.0268C3.26365 55.8801 2.9848 55.6045 2.82194 55.201C2.63889 54.7477 2.64566 54.3292 2.84204 53.9445C3.03862 53.5608 3.45027 53.2486 4.07784 53.0074L4.89335 55.0274C5.132 54.9242 5.29354 54.7837 5.37666 54.6054C5.4609 54.4268 5.46513 54.2438 5.39046 54.0587C5.33947 53.9325 5.26217 53.8407 5.15829 53.7824C5.05339 53.7246 4.91532 53.7041 4.74383 53.7234L4.74364 53.7236ZM3.90334 54.0097C3.66957 54.1111 3.51498 54.2431 3.43881 54.4072C3.36255 54.5714 3.35785 54.736 3.42425 54.9005C3.49544 55.0767 3.61914 55.1954 3.79477 55.2576C3.96936 55.3202 4.1681 55.306 4.38956 55.2141L3.90334 54.0097V54.0097ZM4.37632 49.2032L5.06156 51.5949L5.90129 51.3539L6.09561 52.0321L4.56585 52.4711L4.4678 52.129C4.26709 52.0317 3.98345 51.9855 3.61679 51.9898C3.25012 51.9939 2.65148 52.1053 1.82329 52.3243L1.09279 49.7752L3.58824 49.059L3.49103 48.7199L5.0207 48.281L5.21587 48.9623L4.37622 49.2032H4.37632ZM3.8252 49.8864L2.02118 50.4008L2.31093 51.4119C3.20119 51.1927 3.8421 51.1593 4.23337 51.3106L3.8252 49.8863V49.8864ZM2.75648 46.2119L2.74972 45.3326C3.08483 45.3872 3.3556 45.5173 3.56203 45.7254C3.76931 45.9322 3.90343 46.2142 3.96608 46.5699C4.06525 47.1325 3.95387 47.5811 3.63022 47.9172C3.37091 48.1827 3.0141 48.3561 2.56197 48.4359C2.02071 48.5314 1.57234 48.4658 1.21648 48.239C0.860898 48.0133 0.645164 47.6858 0.569746 47.2572C0.484937 46.7757 0.578481 46.3678 0.850473 46.0323C1.12246 45.698 1.5899 45.4782 2.25392 45.3729L2.63194 47.5184C2.88675 47.467 3.07402 47.3633 3.19236 47.2062C3.31174 47.049 3.354 46.871 3.31934 46.6744C3.29568 46.5402 3.23923 46.4343 3.14963 46.3559C3.0589 46.2775 2.92817 46.2287 2.75648 46.2118V46.2119ZM1.87514 46.3169C1.62541 46.3674 1.44677 46.4644 1.3381 46.6091C1.22944 46.7537 1.19065 46.9139 1.22155 47.0887C1.25442 47.2759 1.35088 47.4176 1.5097 47.515C1.66748 47.6126 1.8649 47.64 2.10055 47.5963L1.87523 46.3169H1.87514ZM0.274087 44.6986L0.217547 43.8895L0.703206 43.8555C0.529173 43.7629 0.384161 43.6302 0.268545 43.4583C0.151991 43.2864 0.0859653 43.0909 0.0707503 42.8729C0.044171 42.4925 0.172465 42.1585 0.454695 41.8731C0.73683 41.5867 1.14726 41.4245 1.68495 41.3869C2.23645 41.3484 2.67515 41.452 2.99973 41.6972C3.32451 41.9434 3.50014 42.2571 3.52662 42.6375C3.5393 42.8187 3.5147 42.9856 3.45271 43.1381C3.3896 43.2896 3.27614 43.4533 3.11122 43.6289L4.77736 43.5123L4.83793 44.3793L0.273993 44.6986H0.274087ZM1.81127 43.7283C2.18207 43.7024 2.45228 43.6104 2.61842 43.4516C2.78579 43.2939 2.86261 43.1095 2.84777 42.8988C2.83368 42.6976 2.74014 42.5358 2.56817 42.4133C2.39639 42.291 2.12384 42.2423 1.75304 42.2682C1.40554 42.2926 1.15327 42.3802 0.995015 42.5299C0.836761 42.6796 0.764724 42.8561 0.778906 43.0595C0.793651 43.2713 0.887853 43.4415 1.06339 43.57C1.23799 43.6986 1.48716 43.7509 1.81127 43.7284V43.7283ZM1.05653 39.8346L0.871699 40.6148C0.556128 40.5094 0.327903 40.3452 0.185051 40.121C0.0431378 39.8957 -0.0177222 39.5709 0.0046307 39.1449C0.0249174 38.7568 0.0868106 38.4712 0.189277 38.2862C0.291744 38.1024 0.415624 37.9746 0.562327 37.9051C0.708842 37.8354 0.971536 37.8102 1.35238 37.8302L2.37423 37.8933C2.66463 37.9086 2.88008 37.9061 3.02002 37.8849C3.15855 37.8646 3.31033 37.8197 3.47178 37.7521L3.42679 38.6115C3.36715 38.6306 3.27943 38.6546 3.16391 38.6813C3.11112 38.6922 3.07647 38.7009 3.05909 38.7065C3.19706 38.8628 3.29718 39.0267 3.3618 39.1993C3.42538 39.3718 3.45205 39.554 3.442 39.7459C3.42425 40.0835 3.31775 40.3454 3.12352 40.5298C2.92826 40.7152 2.68914 40.8 2.40626 40.7851C2.21992 40.7754 2.05537 40.7223 1.91327 40.6261C1.77098 40.5297 1.66579 40.3995 1.59657 40.2362C1.52726 40.0728 1.47119 39.8383 1.42846 39.5346C1.37314 39.1258 1.31547 38.8404 1.2578 38.6807L1.17055 38.6761C1.0015 38.6673 0.880245 38.7022 0.803419 38.7806C0.727907 38.8591 0.683577 39.0123 0.671649 39.2411C0.663572 39.3961 0.688085 39.518 0.745283 39.6077C0.801447 39.6973 0.905228 39.7725 1.05663 39.8345L1.05653 39.8346ZM1.82799 38.7107C1.85936 38.8233 1.89486 39.0019 1.93431 39.2461C1.97385 39.4893 2.01668 39.6491 2.06166 39.7266C2.13774 39.8437 2.23682 39.9061 2.36127 39.9125C2.48477 39.919 2.5924 39.8791 2.68642 39.7931C2.78062 39.7071 2.83124 39.5944 2.83866 39.4543C2.84693 39.2971 2.8026 39.1456 2.70689 38.9979C2.63373 38.8883 2.54047 38.8147 2.42729 38.776C2.35404 38.749 2.21203 38.7308 2.00249 38.7199L1.82808 38.7108L1.82799 38.7107ZM0.226657 36.7159L0.332693 35.8522L2.91878 36.17L3.0698 34.9393L0.483622 34.6216L0.589563 33.7579L3.17565 34.0757L3.21744 33.7349L4.78759 33.9279L4.70213 34.625L3.83506 34.5185L3.51592 37.1202L0.226751 36.7159H0.226657ZM0.848125 32.3622L1.06414 31.5552L3.07459 32.0944L1.40986 30.2638L1.63057 29.4396L4.83155 30.2979L4.61553 31.1048L2.56892 30.5561L4.26512 32.4136L4.0491 33.2205L0.848125 32.3622ZM2.99372 25.623L6.08744 26.8115L5.77816 27.6179L4.49334 27.1244L4.4646 27.1993C4.39736 27.3747 4.37096 27.5117 4.38533 27.6111C4.3997 27.7105 4.46141 27.8382 4.56998 27.9954L4.61271 28.0684L5.27297 28.9351L4.91063 29.8796L4.23638 28.9543C4.04337 28.6902 3.95302 28.4824 3.96561 28.3334C3.86568 28.5552 3.70761 28.706 3.49291 28.7864C3.27877 28.8659 3.0466 28.8582 2.79799 28.7626C2.59813 28.6859 2.44486 28.5737 2.33967 28.4259C2.23335 28.2775 2.18451 28.1163 2.19221 27.9416C2.20076 27.7674 2.2635 27.5266 2.38108 27.22L2.99372 25.6228V25.623ZM3.21143 26.632L2.98865 27.2128C2.90694 27.4258 2.87999 27.5884 2.90732 27.6985C2.93615 27.808 3.02096 27.8903 3.16212 27.9445C3.30441 27.9991 3.42425 27.9897 3.52484 27.9153C3.62421 27.8404 3.71766 27.6919 3.80322 27.4691L4.00712 26.9376L3.21143 26.632ZM5.44503 22.6389L4.92631 23.2503C4.69292 23.0129 4.56416 22.7629 4.53852 22.4982C4.51438 22.233 4.60745 21.9161 4.82065 21.5467C5.01478 21.2101 5.19943 20.9837 5.37459 20.8655C5.54928 20.7482 5.71777 20.6907 5.87997 20.6954C6.04199 20.7 6.28759 20.7967 6.61781 20.9876L7.49962 21.5081C7.75151 21.6535 7.94461 21.7493 8.07883 21.794C8.21144 21.8389 8.36707 21.8677 8.54157 21.8808L8.11151 22.6263C8.04962 22.616 7.96077 22.5977 7.84562 22.569C7.79359 22.5547 7.75884 22.5468 7.74081 22.5437C7.79284 22.7457 7.80777 22.9373 7.78692 23.1204C7.76532 23.3029 7.70653 23.4775 7.61045 23.644C7.44158 23.9367 7.22791 24.1216 6.97123 24.1977C6.71314 24.2742 6.46153 24.241 6.21621 24.0993C6.05476 24.006 5.9321 23.884 5.84907 23.7336C5.76596 23.5832 5.73139 23.4193 5.74379 23.2423C5.75609 23.0652 5.81263 22.8308 5.91228 22.5408C6.04847 22.1513 6.12661 21.8708 6.14755 21.7025L6.07185 21.6587C5.92515 21.5739 5.80127 21.5499 5.6973 21.585C5.59436 21.6205 5.48551 21.7369 5.37102 21.9354C5.29335 22.0698 5.26001 22.1896 5.27034 22.2955C5.27964 22.401 5.33806 22.5151 5.44484 22.6389H5.44503ZM6.64223 21.988C6.61912 22.1028 6.56972 22.2779 6.49402 22.5135C6.41898 22.7482 6.3847 22.9099 6.38958 22.9994C6.40423 23.1383 6.46425 23.2388 6.57216 23.3012C6.67923 23.3631 6.79325 23.3765 6.9161 23.3427C7.03894 23.3088 7.13521 23.2315 7.20537 23.1098C7.28398 22.9736 7.31319 22.8185 7.29488 22.6433C7.27947 22.5124 7.22979 22.4044 7.14648 22.3185C7.09351 22.2612 6.97527 22.1805 6.79344 22.0756L6.64223 21.9881V21.988ZM6.3168 19.2107L7.98556 16.8256L10.7001 18.7278L10.2038 19.4372L8.07206 17.9434L7.39302 18.914L8.61201 19.7682C8.9227 19.9859 9.11514 20.1735 9.19121 20.3326C9.26635 20.4909 9.2933 20.6272 9.27198 20.7412C9.25132 20.8544 9.17449 21.0069 9.04075 21.198C8.96139 21.3114 8.84108 21.4499 8.68038 21.6146L8.15171 21.2442C8.1626 21.2286 8.19134 21.1893 8.23952 21.1277C8.29681 21.057 8.33936 21.0018 8.36782 20.9612C8.43506 20.8651 8.44539 20.7834 8.3958 20.7165C8.34791 20.6493 8.17716 20.5142 7.88563 20.3101L6.3168 19.2107ZM8.69513 15.819L9.26494 15.163L10.3036 16.0665L10.8762 15.4075C11.1005 15.1493 11.2914 14.9668 11.4496 14.8611C11.6079 14.7551 11.7887 14.7111 11.9929 14.7279C12.1979 14.7438 12.3828 14.825 12.5476 14.9683C12.7888 15.1782 12.9 15.419 12.8788 15.6888C12.8576 15.9586 12.7048 16.2581 12.4194 16.5864L11.1961 17.9948L8.69513 15.819ZM11.3471 16.9744L11.8787 16.3624C12.045 16.171 12.1193 16.0204 12.103 15.9124C12.0874 15.8036 12.0362 15.7115 11.9501 15.6367C11.8295 15.5317 11.7051 15.5061 11.5788 15.5587C11.4536 15.6119 11.2877 15.7558 11.082 15.9926L10.7102 16.4205L11.347 16.9744H11.3471ZM11.4482 12.7959L13.5456 10.7689L15.8477 13.1546L15.2229 13.7584L13.413 11.8826L12.5658 12.7014L14.3758 14.5771L13.7503 15.1816L11.4481 12.7959H11.4482ZM14.6496 9.82205L15.3335 9.34288L16.5273 11.0492L16.4277 8.57599L17.1261 8.08658L19.027 10.8032L18.3431 11.2824L17.128 9.54553L17.2341 12.0595L16.5504 12.5387L14.6496 9.82205ZM18.0982 7.40222L18.8511 6.96713L19.4579 8.01871L20.5335 7.39724L19.9268 6.34565L20.6827 5.90896L22.3396 8.78109L21.5838 9.21787L20.8877 8.01119L19.812 8.63277L20.5082 9.83935L19.7551 10.2744L18.0982 7.40222ZM21.6933 5.35976L22.4557 5.01998L23.3024 6.92295L23.6762 4.47614L24.4551 4.12912L25.803 7.15878L25.0405 7.49856L24.1787 5.56157L23.8035 8.04964L23.0411 8.38951L21.6933 5.35976ZM27.0443 5.24312L26.8585 4.70285C27.0002 4.65397 27.1005 4.60811 27.1582 4.56797C27.2164 4.52652 27.2616 4.46016 27.2939 4.36899C27.3271 4.27754 27.3276 4.18486 27.2959 4.09218C27.2621 3.99434 27.1947 3.91501 27.0951 3.8557C26.9944 3.79676 26.8734 3.79225 26.7318 3.84113C26.623 3.87863 26.5332 3.9354 26.4637 4.01238C26.3942 4.08946 26.3549 4.2281 26.346 4.42962L25.5979 4.51938C25.5737 4.21879 25.6523 3.96059 25.8342 3.74347C26.0175 3.52691 26.2561 3.36694 26.5503 3.26552C26.9246 3.13656 27.2437 3.1235 27.5089 3.22604C27.7741 3.32859 27.9518 3.51093 28.0419 3.77298C28.098 3.93625 28.1006 4.08645 28.0486 4.22387C27.997 4.36232 27.8916 4.51026 27.733 4.66864C27.9839 4.6521 28.1885 4.68875 28.3472 4.77711C28.5051 4.86593 28.6167 5.0056 28.6827 5.19716C28.7666 5.44107 28.7261 5.68958 28.5602 5.94402C28.3955 6.19818 28.0993 6.39829 27.6752 6.54435C26.9339 6.79982 26.3803 6.66363 26.0136 6.13605L26.717 5.73808C26.9435 6.00389 27.1971 6.08896 27.4755 5.99308C27.6291 5.94007 27.7387 5.85614 27.8024 5.74288C27.8671 5.62924 27.881 5.51739 27.8428 5.40648C27.8009 5.28448 27.7191 5.20562 27.5993 5.16905C27.4783 5.13174 27.3398 5.14114 27.1842 5.19481L27.0444 5.24293L27.0443 5.24312ZM28.8053 2.66792L29.854 2.42551L31.1684 4.49381L31.4498 2.05687L32.4956 1.81522L33.2411 5.04667L32.5213 5.21295L32.0304 3.08571L31.7409 5.39332L31.0179 5.56034L29.7829 3.60502L30.2736 5.73225L29.5507 5.89928L28.8053 2.66792ZM34.4142 2.57618L33.6152 2.51546C33.6699 2.18705 33.7962 1.93581 33.9953 1.75948C34.1954 1.58409 34.5063 1.47309 34.9303 1.42853C35.3165 1.38783 35.608 1.40438 35.8066 1.47675C36.0041 1.54922 36.1497 1.65186 36.2413 1.7858C36.3327 1.91983 36.3988 2.17558 36.4387 2.55513L36.5364 3.57494C36.5668 3.86434 36.6029 4.07705 36.6458 4.21202C36.6874 4.34587 36.7555 4.48874 36.8474 4.63771L35.9921 4.72766C35.9639 4.67155 35.9266 4.58874 35.8821 4.47887C35.863 4.4283 35.849 4.3955 35.8409 4.37914C35.7081 4.53996 35.562 4.66469 35.4019 4.75549C35.2415 4.84516 35.0658 4.90023 34.8748 4.92026C34.539 4.9556 34.2639 4.89131 34.0514 4.72813C33.8378 4.56412 33.7168 4.34107 33.6871 4.0591C33.6677 3.87356 33.6942 3.70249 33.767 3.54693C33.8398 3.39128 33.952 3.26693 34.1023 3.17294C34.2527 3.07885 34.4754 2.98683 34.7684 2.89707C35.1633 2.77836 35.4361 2.67685 35.5846 2.59479L35.5755 2.50785C35.5576 2.33922 35.5043 2.22493 35.4149 2.16149C35.3256 2.09889 35.1675 2.07915 34.9398 2.10312C34.7855 2.11928 34.6691 2.16271 34.5895 2.2332C34.5098 2.30276 34.4518 2.41705 34.4144 2.57646L34.4142 2.57618ZM35.6441 3.16288C35.5378 3.21157 35.3671 3.27454 35.1322 3.3518C34.8985 3.42897 34.7474 3.49618 34.6781 3.55285C34.5744 3.64638 34.5284 3.75409 34.5414 3.87807C34.5544 4.0011 34.6105 4.1013 34.7102 4.18091C34.8097 4.26052 34.9288 4.29295 35.0684 4.27819C35.2249 4.26174 35.3673 4.19426 35.4982 4.07649C35.5949 3.98701 35.653 3.88333 35.6735 3.76537C35.6887 3.68877 35.6844 3.54552 35.6623 3.33677L35.6442 3.16288H35.6441ZM39.2998 4.56844L39.6189 0.000976562L40.5326 0.0648914L40.4072 1.86212L42.1957 1.98732L42.3213 0.190089L43.2339 0.25391L42.9147 4.82138L42.0021 4.75755L42.1417 2.7604L40.3531 2.63521L40.2136 4.63236L39.2998 4.56844ZM44.3484 1.66502L45.1704 1.81014L44.809 3.86153L46.486 2.0423L47.3258 2.19053L46.7504 5.45648L45.9282 5.31145L46.2961 3.22341L44.595 5.07619L43.7729 4.93106L44.3484 1.66502ZM48.9286 6.02965L49.2944 4.66328C49.1821 4.64185 49.1001 4.64655 49.0463 4.67625C48.9925 4.70595 48.8845 4.80709 48.7219 4.9821L48.0744 5.80068L47.1723 5.55875L47.8574 4.79562C48.2022 4.41345 48.5065 4.22358 48.7685 4.22424C48.6037 4.10506 48.5119 3.88512 48.4936 3.56564C48.4789 3.32661 48.4467 3.17782 48.397 3.11823C48.3475 3.05864 48.2116 2.99905 47.9894 2.93937L48.1396 2.37814C48.3075 2.41216 48.4241 2.43782 48.4892 2.45531C48.6747 2.50512 48.8217 2.58868 48.9312 2.70636C49.0406 2.82394 49.1088 3.06297 49.1364 3.42127C49.1578 3.7007 49.1866 3.88183 49.2218 3.96294C49.2576 4.04537 49.3288 4.10196 49.4357 4.13514L49.7861 2.82639L50.6189 3.04971L50.2685 4.35846C50.3766 4.38751 50.4664 4.37407 50.5401 4.3188C50.6143 4.2625 50.7278 4.11963 50.8834 3.88982C51.0843 3.59609 51.2591 3.42446 51.4102 3.37446C51.5613 3.32445 51.7377 3.32652 51.9385 3.38038C51.9967 3.39598 52.1063 3.43085 52.2687 3.48546L52.1184 4.04669C51.8982 3.98766 51.7508 3.97131 51.6771 3.99781C51.6043 4.0246 51.501 4.13711 51.3688 4.33675C51.1924 4.60397 51.004 4.74891 50.8018 4.76959C51.029 4.90005 51.1978 5.2168 51.3053 5.72032L51.5174 6.72406L50.6153 6.48222L50.4657 5.4499C50.4387 5.26502 50.4025 5.13493 50.3586 5.05805C50.3135 4.98191 50.2359 4.92477 50.127 4.88679L49.7612 6.25316L48.9284 6.02984L48.9286 6.02965ZM54.0347 6.81439L54.7583 7.31321C54.5214 7.55674 54.2596 7.70393 53.9708 7.75384C53.6826 7.80516 53.3749 7.75337 53.0478 7.60064C52.5304 7.35926 52.2272 7.01065 52.1378 6.55262C52.0691 6.18765 52.1317 5.79589 52.3259 5.3795C52.5581 4.88097 52.8691 4.55077 53.2589 4.3892C53.6476 4.22716 54.0394 4.23825 54.4334 4.4221C54.8763 4.62878 55.1564 4.93952 55.275 5.35478C55.3926 5.76966 55.3043 6.27891 55.0097 6.88366L53.0368 5.96301C52.9327 6.20128 52.9102 6.41436 52.9709 6.6014C53.0311 6.78948 53.1526 6.92615 53.3334 7.01065C53.4568 7.06817 53.5759 7.08264 53.6916 7.05426C53.8076 7.02484 53.9226 6.9456 54.0348 6.81448L54.0347 6.81439ZM54.4542 6.03153C54.5561 5.79796 54.5792 5.59587 54.5231 5.42377C54.4671 5.25186 54.3583 5.12798 54.1976 5.05297C54.0254 4.9727 53.8542 4.97045 53.6834 5.0448C53.5129 5.11811 53.3773 5.26427 53.278 5.48252L54.4543 6.03153H54.4542ZM56.4894 5.44924L58.4821 6.42188L58.1716 7.05905L56.9604 6.46784L55.8183 8.81145L55.0367 8.42993L56.4894 5.44906V5.44924ZM58.037 8.16873C58.1954 7.92463 58.4093 7.72687 58.6765 7.57498C58.9439 7.42468 59.2266 7.35926 59.523 7.38154C59.8199 7.40297 60.1037 7.50091 60.3735 7.67621C60.7895 7.94662 61.0424 8.30539 61.1311 8.75214C61.2201 9.19888 61.1288 9.63021 60.8579 10.0477C60.5852 10.468 60.2243 10.7291 59.7763 10.8321C59.3275 10.9344 58.9001 10.8524 58.4921 10.5872C58.239 10.4227 58.0363 10.2097 57.8818 9.94537C57.7274 9.68097 57.6628 9.39871 57.6878 9.0985C57.7136 8.79866 57.8292 8.48877 58.0369 8.16873H58.037ZM58.7584 8.69349C58.5791 8.96982 58.5068 9.22276 58.5418 9.45398C58.576 9.68463 58.6885 9.862 58.8788 9.98569C59.0691 10.1094 59.2759 10.1396 59.4995 10.0763C59.7238 10.0137 59.9265 9.84292 60.1081 9.5631C60.2845 9.29137 60.3561 9.03919 60.322 8.80863C60.2889 8.57863 60.1771 8.40173 59.9868 8.27813C59.7965 8.15444 59.5889 8.1237 59.3643 8.1863C59.1392 8.24824 58.9371 8.41818 58.7584 8.69358L58.7584 8.69349ZM62.4681 9.18196L63.1154 9.67016L62.8224 10.0592C63.0065 9.98842 63.2017 9.96605 63.4072 9.99152C63.6133 10.0161 63.8039 10.0946 63.9784 10.2262C64.2827 10.4557 64.4503 10.7717 64.4804 11.1721C64.5113 11.5732 64.3644 11.9895 64.04 12.4203C63.7073 12.8621 63.3413 13.1255 62.9434 13.2098C62.5447 13.2936 62.1928 13.2204 61.8886 12.991C61.7437 12.8817 61.6341 12.7536 61.5595 12.6067C61.4866 12.4597 61.4377 12.2667 61.4136 12.0267L60.4084 13.3617L59.7147 12.8386L62.4681 9.18196ZM62.1914 10.9796C61.9677 11.2767 61.8598 11.5411 61.8706 11.7707C61.8798 12.0006 61.9683 12.1795 62.137 12.3066C62.2979 12.428 62.4812 12.4635 62.6864 12.414C62.8915 12.3644 63.107 12.1905 63.3306 11.8934C63.5403 11.615 63.6397 11.367 63.6306 11.1492C63.6215 10.9315 63.5357 10.7612 63.373 10.6387C63.2037 10.5108 63.0135 10.4703 62.8014 10.5185C62.5901 10.566 62.3869 10.7199 62.1914 10.9796ZM64.5943 13.0247C64.8071 12.8261 65.0623 12.686 65.3583 12.6034C65.6541 12.5222 65.9442 12.5272 66.2264 12.6207C66.5093 12.7133 66.761 12.877 66.9805 13.1125C67.3187 13.4756 67.4774 13.885 67.4556 14.3399C67.4337 14.7949 67.2411 15.1914 66.8772 15.5309C66.5111 15.8726 66.0979 16.0388 65.6383 16.0301C65.178 16.0206 64.7831 15.8377 64.4514 15.4815C64.2455 15.2606 64.1003 15.0048 64.0144 14.711C63.9284 14.4171 63.9339 14.1276 64.0307 13.8423C64.1283 13.5577 64.3155 13.2849 64.5943 13.0247V13.0247ZM65.1674 13.7084C64.9267 13.9332 64.7955 14.1611 64.7734 14.3938C64.7508 14.6257 64.8172 14.8252 64.9719 14.9913C65.1266 15.1572 65.3201 15.2367 65.5522 15.2295C65.7851 15.223 66.023 15.1064 66.267 14.8789C66.5037 14.6579 66.6343 14.4306 66.6569 14.1986C66.6804 13.9674 66.6147 13.7688 66.46 13.6027C66.3053 13.4366 66.1111 13.3564 65.8783 13.3629C65.6447 13.3685 65.4076 13.4846 65.1676 13.7084H65.1674ZM67.7074 19.2519L66.1767 17.2912L65.4884 17.8294L65.0545 17.2736L66.3085 16.293L66.5274 16.5735C66.75 16.5885 67.0302 16.5247 67.3685 16.3835C67.707 16.2422 68.2204 15.9144 68.9064 15.4009L70.5378 17.4905L68.492 19.0901L68.709 19.368L67.4549 20.3485L67.019 19.7901L67.7073 19.2519H67.7074ZM67.9626 18.4118L69.4427 17.2584L68.7956 16.4296C68.0522 16.9666 67.4705 17.2378 67.051 17.2443L67.9625 18.4119L67.9626 18.4118ZM71.9373 21.3996L71.3401 20.7652C71.4694 20.6472 71.5426 20.5214 71.5602 20.3879C71.5777 20.2544 71.5424 20.1199 71.454 19.9834C71.3356 19.8009 71.1784 19.6978 70.9824 19.6716C70.7854 19.646 70.5386 19.7296 70.2419 19.9224C69.9124 20.1366 69.7149 20.343 69.6503 20.5411C69.5858 20.7393 69.6133 20.9304 69.7334 21.1154C69.8237 21.2544 69.936 21.3414 70.073 21.3783C70.21 21.4153 70.3868 21.3884 70.6034 21.2993L70.946 22.0953C70.5662 22.2364 70.2222 22.256 69.9165 22.1549C69.6101 22.0543 69.3426 21.8265 69.1122 21.4713C68.8507 21.0683 68.7699 20.6637 68.8711 20.2579C68.9718 19.8512 69.2497 19.5005 69.7035 19.2057C70.1618 18.9078 70.5973 18.7961 71.0086 18.8699C71.4213 18.9443 71.76 19.1863 72.0261 19.5964C72.244 19.9321 72.3437 20.2463 72.3268 20.5393C72.3094 20.8315 72.1795 21.1186 71.9374 21.3994L71.9373 21.3996ZM73.1712 21.6434L73.578 22.4089L72.3825 23.045C72.4641 23.1644 72.5516 23.2338 72.6447 23.2523C72.7364 23.2706 72.9116 23.2598 73.1676 23.2193C73.5085 23.1636 73.7502 23.1737 73.893 23.2472C74.0359 23.3207 74.1575 23.452 74.2581 23.6414C74.2888 23.6992 74.3381 23.8032 74.4051 23.9519L73.894 24.2275C73.7865 24.0251 73.6988 23.9056 73.6305 23.8702C73.5599 23.8348 73.4073 23.8382 73.1722 23.8796C72.8548 23.9337 72.6199 23.8936 72.4691 23.7597C72.5287 24.0377 72.426 24.3555 72.1588 24.713C72.1445 24.7314 72.131 24.7516 72.1163 24.7739L71.5372 25.6321L71.0988 24.807L71.7411 23.9747C71.8708 23.8053 71.9446 23.6786 71.9633 23.5957C71.9806 23.5124 71.96 23.4146 71.9001 23.3017L70.652 23.9658L70.2451 23.2003L73.1712 21.6433V21.6434ZM73.0992 25.1756C73.3689 25.0666 73.6575 25.0273 73.9633 25.0564C74.2685 25.0867 74.5375 25.1954 74.7675 25.3838C74.9985 25.5718 75.1748 25.8149 75.2954 26.1135C75.4812 26.5737 75.4827 27.0128 75.2993 27.4298C75.1161 27.8467 74.7941 28.1477 74.333 28.3342C73.8688 28.5219 73.4235 28.5288 72.9975 28.3559C72.5712 28.1821 72.2681 27.8695 72.0859 27.4182C71.9729 27.1381 71.929 26.8472 71.9539 26.542C71.979 26.2369 72.0877 25.9685 72.2804 25.7369C72.4733 25.5063 72.7456 25.3187 73.0992 25.1756ZM73.3895 26.0197C73.0842 26.1431 72.8801 26.3088 72.7762 26.5182C72.6719 26.7267 72.6625 26.9367 72.7475 27.1472C72.8324 27.3577 72.9847 27.5012 73.204 27.5776C73.4236 27.655 73.6876 27.6315 73.9967 27.5065C74.297 27.3852 74.5003 27.2198 74.6045 27.0114C74.7092 26.8038 74.719 26.5949 74.634 26.3844C74.549 26.1738 74.3965 26.0293 74.1768 25.9519C73.9567 25.8734 73.6939 25.8966 73.3896 26.0196L73.3895 26.0197ZM76.1179 28.6699L76.3619 29.4687L74.3714 30.0778L76.7525 30.7473L77.0018 31.5633L73.8328 32.5331L73.5888 31.7342L75.6148 31.1142L73.1929 30.4383L72.9488 29.6396L76.1179 28.6699ZM78.0129 30.2678L78.1365 30.6728C77.8595 30.7323 77.6179 30.7034 77.4138 30.5859C77.2083 30.4676 77.0669 30.2778 76.9867 30.0153C76.9065 29.7527 76.9177 29.5162 77.0223 29.3043C77.1258 29.0926 77.31 28.9335 77.5725 28.8267L77.6965 29.2327C77.5589 29.2891 77.4681 29.3711 77.4208 29.4783C77.3743 29.5853 77.3753 29.7197 77.4246 29.8812C77.474 30.0429 77.5482 30.1549 77.6466 30.2176C77.7458 30.2801 77.8669 30.2971 78.0128 30.2678H78.0129ZM75.9536 34.706C76.2422 34.6704 76.5312 34.7073 76.819 34.8144C77.1061 34.9228 77.3378 35.0975 77.5113 35.3391C77.6857 35.5804 77.7932 35.8609 77.8323 36.1806C77.8928 36.6732 77.7807 37.0978 77.4958 37.453C77.2111 37.8082 76.8222 38.0156 76.3284 38.0763C75.8315 38.1373 75.3996 38.0287 75.0329 37.7514C74.6661 37.473 74.4541 37.0925 74.3948 36.6094C74.3581 36.3097 74.3909 36.0173 74.494 35.729C74.597 35.4408 74.7715 35.2098 75.0174 35.036C75.2634 34.863 75.5751 34.7525 75.9535 34.7061L75.9536 34.706ZM76.0156 35.5964C75.6888 35.6366 75.4488 35.7435 75.2943 35.9191C75.1398 36.0934 75.0763 36.2938 75.1039 36.5192C75.1316 36.7445 75.2414 36.9225 75.4335 37.0532C75.6257 37.1849 75.8866 37.2306 76.2176 37.1899C76.539 37.1504 76.7781 37.0433 76.9327 36.869C77.0874 36.6957 77.1509 36.4963 77.1232 36.271C77.0956 36.0456 76.9857 35.8666 76.7936 35.7349C76.6013 35.6021 76.3413 35.5564 76.0156 35.5965L76.0156 35.5964ZM79.3809 41.1719L79.4117 41.7614C79.146 41.7574 78.9434 41.6993 78.801 41.5872C78.6586 41.4762 78.5753 41.1878 78.5508 40.7227C78.548 40.6668 78.546 40.6108 78.5453 40.5559L78.5396 40.4441C78.525 40.1678 78.4825 39.9458 78.4116 39.7751C78.342 39.6053 78.2154 39.4703 78.0331 39.3699C77.8508 39.2684 77.5626 39.2263 77.1699 39.2427C77.4202 39.3576 77.6097 39.5136 77.7415 39.7097C77.8724 39.9069 77.9457 40.1453 77.9604 40.4247C77.9828 40.8551 77.8328 41.2288 77.5112 41.5449C77.1886 41.8622 76.8049 42.0315 76.3614 42.0547C75.8975 42.079 75.4914 41.9427 75.142 41.6459C74.7937 41.3501 74.6063 40.9475 74.5797 40.4412C74.5615 40.0931 74.6296 39.783 74.7837 39.5105C74.938 39.2381 75.1591 39.0372 75.4445 38.909C75.7301 38.7798 76.211 38.6985 76.8867 38.6631C77.6801 38.6216 78.2579 38.7361 78.6199 39.0069C78.9818 39.2787 79.1817 39.7749 79.2194 40.4951L79.2424 40.9337C79.2487 41.0551 79.2946 41.1351 79.3807 41.172L79.3809 41.1719ZM76.2438 39.5819C75.9428 39.5977 75.7084 39.685 75.5407 39.8441C75.3731 40.002 75.2944 40.1901 75.3056 40.4063C75.3178 40.6394 75.4193 40.8254 75.609 40.9646C75.7987 41.1049 76.0367 41.1675 76.3228 41.1524C76.6165 41.137 76.8485 41.0488 77.0204 40.8875C77.1923 40.7272 77.2719 40.5358 77.2603 40.3133C77.2489 40.0971 77.151 39.9172 76.9664 39.7736C76.7819 39.6309 76.5416 39.5664 76.2439 39.5819H76.2438ZM77.9213 43.3063L77.6172 46.2019L74.3215 45.8553L74.412 44.9941L77 45.2663L77.1237 44.0879L75.6438 43.9323C75.2666 43.8926 75.0074 43.8217 74.8639 43.7197C74.7214 43.6176 74.6318 43.5114 74.5953 43.4015C74.5585 43.2925 74.5518 43.1219 74.5762 42.8898C74.5906 42.7521 74.6288 42.5725 74.6896 42.3506L75.3315 42.418C75.3295 42.437 75.3236 42.4853 75.3112 42.5625C75.2953 42.6521 75.2848 42.7211 75.2796 42.7705C75.2674 42.8871 75.2979 42.9635 75.3735 42.9981C75.448 43.0336 75.6628 43.0688 76.0167 43.1061L77.9215 43.3065L77.9213 43.3063ZM76.319 47.9328L76.6492 47.2022C76.939 47.3658 77.1315 47.5706 77.2291 47.8181C77.3255 48.0663 77.3232 48.3967 77.2201 48.8107C77.1261 49.1878 77.0109 49.4561 76.8751 49.6182C76.7395 49.7792 76.5934 49.881 76.4362 49.9212C76.2792 49.9614 76.0164 49.9361 75.6464 49.8438L74.6554 49.5867C74.3733 49.5164 74.1612 49.4776 74.0199 49.4718C73.8799 49.465 73.7225 49.4804 73.5511 49.5158L73.7592 48.6807C73.8214 48.6733 73.9119 48.6666 74.0304 48.6624C74.0845 48.6617 74.1201 48.6598 74.1381 48.6576C74.0325 48.4778 73.9655 48.2977 73.9349 48.116C73.9055 47.9346 73.914 47.7506 73.9605 47.5641C74.0423 47.2362 74.1968 46.9994 74.4225 46.8554C74.6496 46.7107 74.9004 46.6732 75.1754 46.7417C75.3563 46.7869 75.5078 46.8705 75.629 46.9922C75.7502 47.1138 75.8286 47.2618 75.8655 47.4354C75.9023 47.609 75.9126 47.8499 75.8967 48.156C75.8731 48.5681 75.8753 48.8592 75.9015 49.0269L75.9863 49.0481C76.1507 49.0891 76.2764 49.0779 76.3666 49.0156C76.4558 48.953 76.5284 48.811 76.5838 48.5886C76.6213 48.4381 76.6205 48.3137 76.5814 48.2147C76.5434 48.116 76.4559 48.0223 76.3191 47.9327L76.319 47.9328ZM75.3475 48.8888C75.3381 48.7721 75.3374 48.5901 75.3452 48.3429C75.3528 48.0966 75.3412 47.9315 75.3118 47.8469C75.2594 47.7173 75.174 47.6373 75.0532 47.6071C74.9332 47.5772 74.82 47.5957 74.7112 47.6622C74.6024 47.7286 74.5312 47.8295 74.4972 47.9658C74.4592 48.1184 74.4739 48.2756 74.5397 48.4389C74.5905 48.5604 74.668 48.6506 74.7719 48.7101C74.8386 48.7507 74.9746 48.7956 75.1781 48.8464L75.3476 48.8887L75.3475 48.8888ZM74.6985 53.6369L74.8154 52.7733C74.9883 52.7995 75.1321 52.7774 75.2468 52.707C75.3616 52.6366 75.4438 52.5246 75.494 52.37C75.5613 52.163 75.5425 51.9759 75.4394 51.8068C75.3353 51.6376 75.1151 51.4982 74.7787 51.3889C74.405 51.2673 74.1203 51.2436 73.9258 51.3181C73.7314 51.3925 73.6003 51.5343 73.5322 51.7442C73.481 51.9019 73.4842 52.044 73.5417 52.1737C73.5993 52.3034 73.7315 52.4242 73.9369 52.5365L73.5344 53.3039C73.1859 53.0973 72.9541 52.8421 72.8401 52.5407C72.7254 52.239 72.7341 51.8877 72.8648 51.4849C73.0131 51.028 73.2766 50.7104 73.6553 50.5339C74.0344 50.3562 74.4817 50.3517 74.9963 50.5191C75.516 50.688 75.8769 50.9565 76.0783 51.3229C76.2803 51.6906 76.3055 52.1063 76.1546 52.5713C76.031 52.952 75.8497 53.2273 75.6115 53.3985C75.3737 53.5688 75.0689 53.6485 74.6986 53.6369H74.6985ZM75.5059 54.6083L74.2504 57.3026L73.6085 57.0029L74.0526 56.0497L71.6912 54.9477L72.0582 54.16L74.4197 55.262L74.8638 54.3087L75.5059 54.6084L75.5059 54.6083ZM73.9845 57.901L73.5926 58.6386L71.7549 57.6606L72.9654 59.819L72.5651 60.5726L69.6392 59.0155L70.0311 58.2779L71.9018 59.2734L70.6667 57.0816L71.0587 56.344L73.9846 57.901H73.9845ZM72.1473 63.5152L71.6616 64.2358L71.1389 63.8829C70.9287 63.7411 70.7751 63.6106 70.6797 63.4927C70.5835 63.3743 70.52 63.2322 70.4902 63.0667C70.4609 62.9005 70.4691 62.7226 70.5164 62.534L70.9149 62.5966C70.8651 62.7733 70.8632 62.9211 70.9078 63.0417C70.952 63.1631 71.0455 63.2721 71.1874 63.3704L71.4204 63.0247L72.1473 63.5152ZM72.9634 62.3044L72.4777 63.025L71.9549 62.6721C71.7447 62.5302 71.5905 62.4006 71.4944 62.2837C71.3978 62.1661 71.3343 62.0239 71.3044 61.8586C71.2745 61.6932 71.2833 61.5144 71.3323 61.3233L71.7302 61.3867C71.68 61.5644 71.6775 61.713 71.7227 61.8326C71.7679 61.9524 71.8604 62.0631 72.0016 62.1624L72.2365 61.8139L72.9633 62.3045L72.9634 62.3044ZM10.1051 53.6735L13.3561 48.9629L22.3592 31.4332L30.6587 18.8022L39.1516 9.15893C39.348 8.95619 40.0702 8.73249 40.2643 9.09211L40.5159 9.40501L44.9731 20.6638L48.2021 31.0959L49.7595 29.4639L51.4064 27.3721L52.7203 25.1786L53.6637 22.8193C53.6764 22.7914 53.7238 22.7699 53.7478 22.7891L53.7907 22.8058L56.4617 25.1741L57.3507 26.303L58.6519 27.9555L60.3965 31.1115L61.7303 34.604L61.73 34.6029L63.4881 39.5544C61.3796 37.1662 60.3753 32.6604 56.1798 30.7356C54.982 32.6849 50.6218 33.4514 47.5986 33.5731L35.7619 27.6392L25.0846 33.6909L25.4154 32.8069L32.6086 20.1789L36.4144 14.8907L39.5172 11.3228L43.9228 21.0615L47.7616 31.7827L47.8446 31.9204C47.8854 32.0193 48.0605 32.0623 48.1451 31.9968C48.9323 31.3872 49.5413 30.5802 50.1482 29.7906L51.7375 27.593L52.9858 25.305L53.7804 23.0474L56.4224 25.2126L57.3509 26.3029L58.7191 27.9095L60.5969 31.0142L62.0838 34.4853L65.055 41.8721L69.4239 48.8736C69.4965 49.0376 69.3503 49.295 69.1766 49.3718L69.3356 49.6504L56.2448 44.3773L52.7885 48.6746L45.2888 58.7013L34.9863 52.084L30.7093 53.4525L30.2951 53.6371L28.3468 54.2084L12.9621 59.1306L12.0937 57.4719C11.3408 56.8631 10.882 55.9691 10.8103 55.0204L10.1053 53.6735H10.1051ZM46.6911 61.0833L65.9393 50.142L54.3376 61.9613L46.6911 61.0832V61.0833Z" fill="white"/>
</g>
<defs>
<clipPath id="clip0_529_764">
<rect width="79.4118" height="75" fill="white"/>
</clipPath>
</defs>
</svg>
